<svg class="main-svg" xmlns="http://www.w3.org/2000/svg" xmlns:xlink="http://www.w3.org/1999/xlink" width="975.84" height="720" style="" viewBox="0 0 813.2 600"><rect x="0" y="0" width="813.2" height="600" style="fill: rgb(255, 255, 255); fill-opacity: 1;"/><defs id="defs-b036fd"><g class="clips"><clipPath id="clipb036fdxyplot" class="plotclip"><rect width="653" height="420"/></clipPath><clipPath class="axesclip" id="clipb036fdx"><rect x="80" y="0" width="653" height="600"/></clipPath><clipPath class="axesclip" id="clipb036fdy"><rect x="0" y="100" width="813.2" height="420"/></clipPath><clipPath class="axesclip" id="clipb036fdxy"><rect x="80" y="100" width="653" height="420"/></clipPath></g><g class="gradients"/></defs><g class="bglayer"/><g class="layer-below"><g class="imagelayer"/><g class="shapelayer"/></g><g class="cartesianlayer"><g class="subplot xy"><g class="layer-subplot"><g class="shapelayer"/><g class="imagelayer"/></g><g class="gridlayer"><g class="x"><path class="xgrid crisp" transform="translate(202.13,0)" d="M0,100v420" style="stroke: rgb(238, 238, 238); stroke-opacity: 1; stroke-width: 1px;"/><path class="xgrid crisp" transform="translate(280.61,0)" d="M0,100v420" style="stroke: rgb(238, 238, 238); stroke-opacity: 1; stroke-width: 1px;"/><path class="xgrid crisp" transform="translate(359.1,0)" d="M0,100v420" style="stroke: rgb(238, 238, 238); stroke-opacity: 1; stroke-width: 1px;"/><path class="xgrid crisp" transform="translate(437.58,0)" d="M0,100v420" style="stroke: rgb(238, 238, 238); stroke-opacity: 1; stroke-width: 1px;"/><path class="xgrid crisp" transform="translate(516.06,0)" d="M0,100v420" style="stroke: rgb(238, 238, 238); stroke-opacity: 1; stroke-width: 1px;"/><path class="xgrid crisp" transform="translate(594.54,0)" d="M0,100v420" style="stroke: rgb(238, 238, 238); stroke-opacity: 1; stroke-width: 1px;"/><path class="xgrid crisp" transform="translate(673.02,0)" d="M0,100v420" style="stroke: rgb(238, 238, 238); stroke-opacity: 1; stroke-width: 1px;"/></g><g class="y"><path class="ygrid crisp" transform="translate(0,398.26)" d="M80,0h653" style="stroke: rgb(238, 238, 238); stroke-opacity: 1; stroke-width: 1px;"/><path class="ygrid crisp" transform="translate(0,326.44)" d="M80,0h653" style="stroke: rgb(238, 238, 238); stroke-opacity: 1; stroke-width: 1px;"/><path class="ygrid crisp" transform="translate(0,254.61)" d="M80,0h653" style="stroke: rgb(238, 238, 238); stroke-opacity: 1; stroke-width: 1px;"/><path class="ygrid crisp" transform="translate(0,182.78)" d="M80,0h653" style="stroke: rgb(238, 238, 238); stroke-opacity: 1; stroke-width: 1px;"/><path class="ygrid crisp" transform="translate(0,110.95)" d="M80,0h653" style="stroke: rgb(238, 238, 238); stroke-opacity: 1; stroke-width: 1px;"/></g></g><g class="zerolinelayer"><path class="xzl zl crisp" transform="translate(123.65,0)" d="M0,100v420" style="stroke: rgb(68, 68, 68); stroke-opacity: 1; stroke-width: 1px;"/><path class="yzl zl crisp" transform="translate(0,470.09)" d="M80,0h653" style="stroke: rgb(68, 68, 68); stroke-opacity: 1; stroke-width: 1px;"/></g><path class="xlines-below"/><path class="ylines-below"/><g class="overlines-below"/><g class="xaxislayer-below"/><g class="yaxislayer-below"/><g class="overaxes-below"/><g class="plot" transform="translate(80,100)" clip-path="url('#clipb036fdxyplot')"><g class="scatterlayer mlayer"><g class="trace scatter tracefb8261" style="stroke-miterlimit: 2; opacity: 1;"><g class="fills"/><g class="errorbars"/><g class="lines"/><g class="points"><path class="point" transform="translate(47.26,370.04)" style="opacity: 0.7; stroke-width: 1px; fill: rgb(255, 255, 255); fill-opacity: 0.3; stroke: rgb(0, 0, 0); stroke-opacity: 1;" d="M8.78,0A8.78,8.78 0 1,1 0,-8.78A8.78,8.78 0 0,1 8.78,0Z"/><path class="point" transform="translate(47.27,370.05)" style="opacity: 0.7; stroke-width: 1px; fill: rgb(255, 255, 255); fill-opacity: 0.3; stroke: rgb(0, 0, 0); stroke-opacity: 1;" d="M7.58,0A7.58,7.58 0 1,1 0,-7.58A7.58,7.58 0 0,1 7.58,0Z"/><path class="point" transform="translate(47.79,370.01)" style="opacity: 0.7; stroke-width: 1px; fill: rgb(255, 255, 255); fill-opacity: 0.3; stroke: rgb(0, 0, 0); stroke-opacity: 1;" d="M4.6,0A4.6,4.6 0 1,1 0,-4.6A4.6,4.6 0 0,1 4.6,0Z"/><path class="point" transform="translate(48,369.98)" style="opacity: 0.7; stroke-width: 1px; fill: rgb(255, 255, 255); fill-opacity: 0.3; stroke: rgb(0, 0, 0); stroke-opacity: 1;" d="M7.61,0A7.61,7.61 0 1,1 0,-7.61A7.61,7.61 0 0,1 7.61,0Z"/><path class="point" transform="translate(48.4,370.05)" style="opacity: 0.7; stroke-width: 1px; fill: rgb(255, 255, 255); fill-opacity: 0.3; stroke: rgb(0, 0, 0); stroke-opacity: 1;" d="M7.98,0A7.98,7.98 0 1,1 0,-7.98A7.98,7.98 0 0,1 7.98,0Z"/><path class="point" transform="translate(49.06,370.01)" style="opacity: 0.7; stroke-width: 1px; fill: rgb(255, 255, 255); fill-opacity: 0.3; stroke: rgb(0, 0, 0); stroke-opacity: 1;" d="M6.16,0A6.16,6.16 0 1,1 0,-6.16A6.16,6.16 0 0,1 6.16,0Z"/><path class="point" transform="translate(49.3,370.05)" style="opacity: 0.7; stroke-width: 1px; fill: rgb(255, 255, 255); fill-opacity: 0.3; stroke: rgb(0, 0, 0); stroke-opacity: 1;" d="M6.84,0A6.84,6.84 0 1,1 0,-6.84A6.84,6.84 0 0,1 6.84,0Z"/><path class="point" transform="translate(49.61,370)" style="opacity: 0.7; stroke-width: 1px; fill: rgb(255, 255, 255); fill-opacity: 0.3; stroke: rgb(0, 0, 0); stroke-opacity: 1;" d="M8.18,0A8.18,8.18 0 1,1 0,-8.18A8.18,8.18 0 0,1 8.18,0Z"/><path class="point" transform="translate(49.71,369.91)" style="opacity: 0.7; stroke-width: 1px; fill: rgb(255, 255, 255); fill-opacity: 0.3; stroke: rgb(0, 0, 0); stroke-opacity: 1;" d="M9.37,0A9.37,9.37 0 1,1 0,-9.37A9.37,9.37 0 0,1 9.37,0Z"/><path class="point" transform="translate(50.78,369.99)" style="opacity: 0.7; stroke-width: 1px; fill: rgb(255, 255, 255); fill-opacity: 0.3; stroke: rgb(0, 0, 0); stroke-opacity: 1;" d="M6.88,0A6.88,6.88 0 1,1 0,-6.88A6.88,6.88 0 0,1 6.88,0Z"/><path class="point" transform="translate(50.88,370.05)" style="opacity: 0.7; stroke-width: 1px; fill: rgb(255, 255, 255); fill-opacity: 0.3; stroke: rgb(0, 0, 0); stroke-opacity: 1;" d="M8.21,0A8.21,8.21 0 1,1 0,-8.21A8.21,8.21 0 0,1 8.21,0Z"/><path class="point" transform="translate(51.11,370.01)" style="opacity: 0.7; stroke-width: 1px; fill: rgb(255, 255, 255); fill-opacity: 0.3; stroke: rgb(0, 0, 0); stroke-opacity: 1;" d="M8.64,0A8.64,8.64 0 1,1 0,-8.64A8.64,8.64 0 0,1 8.64,0Z"/><path class="point" transform="translate(51.12,370.04)" style="opacity: 0.7; stroke-width: 1px; fill: rgb(255, 255, 255); fill-opacity: 0.3; stroke: rgb(0, 0, 0); stroke-opacity: 1;" d="M5.74,0A5.74,5.74 0 1,1 0,-5.74A5.74,5.74 0 0,1 5.74,0Z"/><path class="point" transform="translate(51.35,369.67)" style="opacity: 0.7; stroke-width: 1px; fill: rgb(255, 255, 255); fill-opacity: 0.3; stroke: rgb(0, 0, 0); stroke-opacity: 1;" d="M7.19,0A7.19,7.19 0 1,1 0,-7.19A7.19,7.19 0 0,1 7.19,0Z"/><path class="point" transform="translate(51.92,369.43)" style="opacity: 0.7; stroke-width: 1px; fill: rgb(255, 255, 255); fill-opacity: 0.3; stroke: rgb(0, 0, 0); stroke-opacity: 1;" d="M15.26,0A15.26,15.26 0 1,1 0,-15.26A15.26,15.26 0 0,1 15.26,0Z"/><path class="point" transform="translate(51.92,370.01)" style="opacity: 0.7; stroke-width: 1px; fill: rgb(255, 255, 255); fill-opacity: 0.3; stroke: rgb(0, 0, 0); stroke-opacity: 1;" d="M5.45,0A5.45,5.45 0 1,1 0,-5.45A5.45,5.45 0 0,1 5.45,0Z"/><path class="point" transform="translate(52.18,370.05)" style="opacity: 0.7; stroke-width: 1px; fill: rgb(255, 255, 255); fill-opacity: 0.3; stroke: rgb(0, 0, 0); stroke-opacity: 1;" d="M8.05,0A8.05,8.05 0 1,1 0,-8.05A8.05,8.05 0 0,1 8.05,0Z"/><path class="point" transform="translate(52.47,369.92)" style="opacity: 0.7; stroke-width: 1px; fill: rgb(255, 255, 255); fill-opacity: 0.3; stroke: rgb(0, 0, 0); stroke-opacity: 1;" d="M6.37,0A6.37,6.37 0 1,1 0,-6.37A6.37,6.37 0 0,1 6.37,0Z"/><path class="point" transform="translate(53.26,369.71)" style="opacity: 0.7; stroke-width: 1px; fill: rgb(255, 255, 255); fill-opacity: 0.3; stroke: rgb(0, 0, 0); stroke-opacity: 1;" d="M8.39,0A8.39,8.39 0 1,1 0,-8.39A8.39,8.39 0 0,1 8.39,0Z"/><path class="point" transform="translate(53.62,370.05)" style="opacity: 0.7; stroke-width: 1px; fill: rgb(255, 255, 255); fill-opacity: 0.3; stroke: rgb(0, 0, 0); stroke-opacity: 1;" d="M6.78,0A6.78,6.78 0 1,1 0,-6.78A6.78,6.78 0 0,1 6.78,0Z"/><path class="point" transform="translate(53.64,369.99)" style="opacity: 0.7; stroke-width: 1px; fill: rgb(255, 255, 255); fill-opacity: 0.3; stroke: rgb(0, 0, 0); stroke-opacity: 1;" d="M0,0A0,0 0 1,1 0,-0A0,0 0 0,1 0,0Z"/><path class="point" transform="translate(55.29,368.4)" style="opacity: 0.7; stroke-width: 1px; fill: rgb(255, 255, 255); fill-opacity: 0.3; stroke: rgb(0, 0, 0); stroke-opacity: 1;" d="M18.11,0A18.11,18.11 0 1,1 0,-18.11A18.11,18.11 0 0,1 18.11,0Z"/><path class="point" transform="translate(57.17,369.98)" style="opacity: 0.7; stroke-width: 1px; fill: rgb(255, 255, 255); fill-opacity: 0.3; stroke: rgb(0, 0, 0); stroke-opacity: 1;" d="M9.61,0A9.61,9.61 0 1,1 0,-9.61A9.61,9.61 0 0,1 9.61,0Z"/><path class="point" transform="translate(57.24,370.04)" style="opacity: 0.7; stroke-width: 1px; fill: rgb(255, 255, 255); fill-opacity: 0.3; stroke: rgb(0, 0, 0); stroke-opacity: 1;" d="M7.53,0A7.53,7.53 0 1,1 0,-7.53A7.53,7.53 0 0,1 7.53,0Z"/><path class="point" transform="translate(57.46,370.02)" style="opacity: 0.7; stroke-width: 1px; fill: rgb(255, 255, 255); fill-opacity: 0.3; stroke: rgb(0, 0, 0); stroke-opacity: 1;" d="M9.36,0A9.36,9.36 0 1,1 0,-9.36A9.36,9.36 0 0,1 9.36,0Z"/><path class="point" transform="translate(57.67,368.21)" style="opacity: 0.7; stroke-width: 1px; fill: rgb(255, 255, 255); fill-opacity: 0.3; stroke: rgb(0, 0, 0); stroke-opacity: 1;" d="M19.54,0A19.54,19.54 0 1,1 0,-19.54A19.54,19.54 0 0,1 19.54,0Z"/><path class="point" transform="translate(58.87,370.04)" style="opacity: 0.7; stroke-width: 1px; fill: rgb(255, 255, 255); fill-opacity: 0.3; stroke: rgb(0, 0, 0); stroke-opacity: 1;" d="M0,0A0,0 0 1,1 0,-0A0,0 0 0,1 0,0Z"/><path class="point" transform="translate(59.3,370.05)" style="opacity: 0.7; stroke-width: 1px; fill: rgb(255, 255, 255); fill-opacity: 0.3; stroke: rgb(0, 0, 0); stroke-opacity: 1;" d="M7.09,0A7.09,7.09 0 1,1 0,-7.09A7.09,7.09 0 0,1 7.09,0Z"/><path class="point" transform="translate(62.38,369.84)" style="opacity: 0.7; stroke-width: 1px; fill: rgb(255, 255, 255); fill-opacity: 0.3; stroke: rgb(0, 0, 0); stroke-opacity: 1;" d="M11.21,0A11.21,11.21 0 1,1 0,-11.21A11.21,11.21 0 0,1 11.21,0Z"/><path class="point" transform="translate(62.4,369.93)" style="opacity: 0.7; stroke-width: 1px; fill: rgb(255, 255, 255); fill-opacity: 0.3; stroke: rgb(0, 0, 0); stroke-opacity: 1;" d="M0,0A0,0 0 1,1 0,-0A0,0 0 0,1 0,0Z"/><path class="point" transform="translate(65.43,355.38)" style="opacity: 0.7; stroke-width: 1px; fill: rgb(255, 255, 255); fill-opacity: 0.3; stroke: rgb(0, 0, 0); stroke-opacity: 1;" d="M0,0A0,0 0 1,1 0,-0A0,0 0 0,1 0,0Z"/><path class="point" transform="translate(65.86,370.05)" style="opacity: 0.7; stroke-width: 1px; fill: rgb(255, 255, 255); fill-opacity: 0.3; stroke: rgb(0, 0, 0); stroke-opacity: 1;" d="M5.66,0A5.66,5.66 0 1,1 0,-5.66A5.66,5.66 0 0,1 5.66,0Z"/><path class="point" transform="translate(66.6,369.93)" style="opacity: 0.7; stroke-width: 1px; fill: rgb(255, 255, 255); fill-opacity: 0.3; stroke: rgb(0, 0, 0); stroke-opacity: 1;" d="M0,0A0,0 0 1,1 0,-0A0,0 0 0,1 0,0Z"/><path class="point" transform="translate(66.74,369.35)" style="opacity: 0.7; stroke-width: 1px; fill: rgb(255, 255, 255); fill-opacity: 0.3; stroke: rgb(0, 0, 0); stroke-opacity: 1;" d="M5.4,0A5.4,5.4 0 1,1 0,-5.4A5.4,5.4 0 0,1 5.4,0Z"/><path class="point" transform="translate(67.71,369.95)" style="opacity: 0.7; stroke-width: 1px; fill: rgb(255, 255, 255); fill-opacity: 0.3; stroke: rgb(0, 0, 0); stroke-opacity: 1;" d="M10.3,0A10.3,10.3 0 1,1 0,-10.3A10.3,10.3 0 0,1 10.3,0Z"/><path class="point" transform="translate(78.1,369.79)" style="opacity: 0.7; stroke-width: 1px; fill: rgb(255, 255, 255); fill-opacity: 0.3; stroke: rgb(0, 0, 0); stroke-opacity: 1;" d="M9.76,0A9.76,9.76 0 1,1 0,-9.76A9.76,9.76 0 0,1 9.76,0Z"/><path class="point" transform="translate(78.42,370.02)" style="opacity: 0.7; stroke-width: 1px; fill: rgb(255, 255, 255); fill-opacity: 0.3; stroke: rgb(0, 0, 0); stroke-opacity: 1;" d="M8.34,0A8.34,8.34 0 1,1 0,-8.34A8.34,8.34 0 0,1 8.34,0Z"/><path class="point" transform="translate(80.43,369.89)" style="opacity: 0.7; stroke-width: 1px; fill: rgb(255, 255, 255); fill-opacity: 0.3; stroke: rgb(0, 0, 0); stroke-opacity: 1;" d="M10.9,0A10.9,10.9 0 1,1 0,-10.9A10.9,10.9 0 0,1 10.9,0Z"/><path class="point" transform="translate(84.96,369.86)" style="opacity: 0.7; stroke-width: 1px; fill: rgb(255, 255, 255); fill-opacity: 0.3; stroke: rgb(0, 0, 0); stroke-opacity: 1;" d="M10.74,0A10.74,10.74 0 1,1 0,-10.74A10.74,10.74 0 0,1 10.74,0Z"/><path class="point" transform="translate(86.27,369.88)" style="opacity: 0.7; stroke-width: 1px; fill: rgb(255, 255, 255); fill-opacity: 0.3; stroke: rgb(0, 0, 0); stroke-opacity: 1;" d="M6.69,0A6.69,6.69 0 1,1 0,-6.69A6.69,6.69 0 0,1 6.69,0Z"/><path class="point" transform="translate(88.19,366.83)" style="opacity: 0.7; stroke-width: 1px; fill: rgb(255, 255, 255); fill-opacity: 0.3; stroke: rgb(0, 0, 0); stroke-opacity: 1;" d="M23.07,0A23.07,23.07 0 1,1 0,-23.07A23.07,23.07 0 0,1 23.07,0Z"/><path class="point" transform="translate(91.31,370.01)" style="opacity: 0.7; stroke-width: 1px; fill: rgb(255, 255, 255); fill-opacity: 0.3; stroke: rgb(0, 0, 0); stroke-opacity: 1;" d="M7.97,0A7.97,7.97 0 1,1 0,-7.97A7.97,7.97 0 0,1 7.97,0Z"/><path class="point" transform="translate(92.56,369.91)" style="opacity: 0.7; stroke-width: 1px; fill: rgb(255, 255, 255); fill-opacity: 0.3; stroke: rgb(0, 0, 0); stroke-opacity: 1;" d="M10.71,0A10.71,10.71 0 1,1 0,-10.71A10.71,10.71 0 0,1 10.71,0Z"/><path class="point" transform="translate(93.31,370.05)" style="opacity: 0.7; stroke-width: 1px; fill: rgb(255, 255, 255); fill-opacity: 0.3; stroke: rgb(0, 0, 0); stroke-opacity: 1;" d="M4.64,0A4.64,4.64 0 1,1 0,-4.64A4.64,4.64 0 0,1 4.64,0Z"/><path class="point" transform="translate(97.1,369.93)" style="opacity: 0.7; stroke-width: 1px; fill: rgb(255, 255, 255); fill-opacity: 0.3; stroke: rgb(0, 0, 0); stroke-opacity: 1;" d="M9.99,0A9.99,9.99 0 1,1 0,-9.99A9.99,9.99 0 0,1 9.99,0Z"/><path class="point" transform="translate(99.99,366.58)" style="opacity: 0.7; stroke-width: 1px; fill: rgb(255, 255, 255); fill-opacity: 0.3; stroke: rgb(0, 0, 0); stroke-opacity: 1;" d="M15.98,0A15.98,15.98 0 1,1 0,-15.98A15.98,15.98 0 0,1 15.98,0Z"/><path class="point" transform="translate(106.99,353.9)" style="opacity: 0.7; stroke-width: 1px; fill: rgb(255, 255, 255); fill-opacity: 0.3; stroke: rgb(0, 0, 0); stroke-opacity: 1;" d="M25,0A25,25 0 1,1 0,-25A25,25 0 0,1 25,0Z"/><path class="point" transform="translate(112.93,369.8)" style="opacity: 0.7; stroke-width: 1px; fill: rgb(255, 255, 255); fill-opacity: 0.3; stroke: rgb(0, 0, 0); stroke-opacity: 1;" d="M0,0A0,0 0 1,1 0,-0A0,0 0 0,1 0,0Z"/><path class="point" transform="translate(115.62,370.02)" style="opacity: 0.7; stroke-width: 1px; fill: rgb(255, 255, 255); fill-opacity: 0.3; stroke: rgb(0, 0, 0); stroke-opacity: 1;" d="M9.34,0A9.34,9.34 0 1,1 0,-9.34A9.34,9.34 0 0,1 9.34,0Z"/><path class="point" transform="translate(117.01,370.04)" style="opacity: 0.7; stroke-width: 1px; fill: rgb(255, 255, 255); fill-opacity: 0.3; stroke: rgb(0, 0, 0); stroke-opacity: 1;" d="M8.05,0A8.05,8.05 0 1,1 0,-8.05A8.05,8.05 0 0,1 8.05,0Z"/><path class="point" transform="translate(129.02,368.19)" style="opacity: 0.7; stroke-width: 1px; fill: rgb(255, 255, 255); fill-opacity: 0.3; stroke: rgb(0, 0, 0); stroke-opacity: 1;" d="M0,0A0,0 0 1,1 0,-0A0,0 0 0,1 0,0Z"/><path class="point" transform="translate(145.57,368.98)" style="opacity: 0.7; stroke-width: 1px; fill: rgb(255, 255, 255); fill-opacity: 0.3; stroke: rgb(0, 0, 0); stroke-opacity: 1;" d="M9.34,0A9.34,9.34 0 1,1 0,-9.34A9.34,9.34 0 0,1 9.34,0Z"/><path class="point" transform="translate(151.56,370)" style="opacity: 0.7; stroke-width: 1px; fill: rgb(255, 255, 255); fill-opacity: 0.3; stroke: rgb(0, 0, 0); stroke-opacity: 1;" d="M0,0A0,0 0 1,1 0,-0A0,0 0 0,1 0,0Z"/><path class="point" transform="translate(173.21,370.02)" style="opacity: 0.7; stroke-width: 1px; fill: rgb(255, 255, 255); fill-opacity: 0.3; stroke: rgb(0, 0, 0); stroke-opacity: 1;" d="M9.42,0A9.42,9.42 0 1,1 0,-9.42A9.42,9.42 0 0,1 9.42,0Z"/><path class="point" transform="translate(179.73,369.43)" style="opacity: 0.7; stroke-width: 1px; fill: rgb(255, 255, 255); fill-opacity: 0.3; stroke: rgb(0, 0, 0); stroke-opacity: 1;" d="M11.3,0A11.3,11.3 0 1,1 0,-11.3A11.3,11.3 0 0,1 11.3,0Z"/><path class="point" transform="translate(196.01,369.94)" style="opacity: 0.7; stroke-width: 1px; fill: rgb(255, 255, 255); fill-opacity: 0.3; stroke: rgb(0, 0, 0); stroke-opacity: 1;" d="M0,0A0,0 0 1,1 0,-0A0,0 0 0,1 0,0Z"/><path class="point" transform="translate(200.06,370)" style="opacity: 0.7; stroke-width: 1px; fill: rgb(255, 255, 255); fill-opacity: 0.3; stroke: rgb(0, 0, 0); stroke-opacity: 1;" d="M7.91,0A7.91,7.91 0 1,1 0,-7.91A7.91,7.91 0 0,1 7.91,0Z"/><path class="point" transform="translate(216.31,362.98)" style="opacity: 0.7; stroke-width: 1px; fill: rgb(255, 255, 255); fill-opacity: 0.3; stroke: rgb(0, 0, 0); stroke-opacity: 1;" d="M10.34,0A10.34,10.34 0 1,1 0,-10.34A10.34,10.34 0 0,1 10.34,0Z"/><path class="point" transform="translate(218.16,369.24)" style="opacity: 0.7; stroke-width: 1px; fill: rgb(255, 255, 255); fill-opacity: 0.3; stroke: rgb(0, 0, 0); stroke-opacity: 1;" d="M16.23,0A16.23,16.23 0 1,1 0,-16.23A16.23,16.23 0 0,1 16.23,0Z"/><path class="point" transform="translate(229.15,368.12)" style="opacity: 0.7; stroke-width: 1px; fill: rgb(255, 255, 255); fill-opacity: 0.3; stroke: rgb(0, 0, 0); stroke-opacity: 1;" d="M19.6,0A19.6,19.6 0 1,1 0,-19.6A19.6,19.6 0 0,1 19.6,0Z"/><path class="point" transform="translate(249,354.39)" style="opacity: 0.7; stroke-width: 1px; fill: rgb(255, 255, 255); fill-opacity: 0.3; stroke: rgb(0, 0, 0); stroke-opacity: 1;" d="M7.82,0A7.82,7.82 0 1,1 0,-7.82A7.82,7.82 0 0,1 7.82,0Z"/><path class="point" transform="translate(272.61,368.86)" style="opacity: 0.7; stroke-width: 1px; fill: rgb(255, 255, 255); fill-opacity: 0.3; stroke: rgb(0, 0, 0); stroke-opacity: 1;" d="M17.89,0A17.89,17.89 0 1,1 0,-17.89A17.89,17.89 0 0,1 17.89,0Z"/><path class="point" transform="translate(274.8,294.68)" style="opacity: 0.7; stroke-width: 1px; fill: rgb(255, 255, 255); fill-opacity: 0.3; stroke: rgb(0, 0, 0); stroke-opacity: 1;" d="M11.91,0A11.91,11.91 0 1,1 0,-11.91A11.91,11.91 0 0,1 11.91,0Z"/><path class="point" transform="translate(294.48,362.11)" style="opacity: 0.7; stroke-width: 1px; fill: rgb(255, 255, 255); fill-opacity: 0.3; stroke: rgb(0, 0, 0); stroke-opacity: 1;" d="M20.05,0A20.05,20.05 0 1,1 0,-20.05A20.05,20.05 0 0,1 20.05,0Z"/><path class="point" transform="translate(296.23,368.74)" style="opacity: 0.7; stroke-width: 1px; fill: rgb(255, 255, 255); fill-opacity: 0.3; stroke: rgb(0, 0, 0); stroke-opacity: 1;" d="M17.57,0A17.57,17.57 0 1,1 0,-17.57A17.57,17.57 0 0,1 17.57,0Z"/><path class="point" transform="translate(321.2,369.69)" style="opacity: 0.7; stroke-width: 1px; fill: rgb(255, 255, 255); fill-opacity: 0.3; stroke: rgb(0, 0, 0); stroke-opacity: 1;" d="M10.28,0A10.28,10.28 0 1,1 0,-10.28A10.28,10.28 0 0,1 10.28,0Z"/><path class="point" transform="translate(337.27,368.88)" style="opacity: 0.7; stroke-width: 1px; fill: rgb(255, 255, 255); fill-opacity: 0.3; stroke: rgb(0, 0, 0); stroke-opacity: 1;" d="M16.44,0A16.44,16.44 0 1,1 0,-16.44A16.44,16.44 0 0,1 16.44,0Z"/><path class="point" transform="translate(350.95,363.7)" style="opacity: 0.7; stroke-width: 1px; fill: rgb(255, 255, 255); fill-opacity: 0.3; stroke: rgb(0, 0, 0); stroke-opacity: 1;" d="M28.2,0A28.2,28.2 0 1,1 0,-28.2A28.2,28.2 0 0,1 28.2,0Z"/><path class="point" transform="translate(379.13,347.95)" style="opacity: 0.7; stroke-width: 1px; fill: rgb(255, 255, 255); fill-opacity: 0.3; stroke: rgb(0, 0, 0); stroke-opacity: 1;" d="M0,0A0,0 0 1,1 0,-0A0,0 0 0,1 0,0Z"/><path class="point" transform="translate(387.87,369.72)" style="opacity: 0.7; stroke-width: 1px; fill: rgb(255, 255, 255); fill-opacity: 0.3; stroke: rgb(0, 0, 0); stroke-opacity: 1;" d="M11.02,0A11.02,11.02 0 1,1 0,-11.02A11.02,11.02 0 0,1 11.02,0Z"/><path class="point" transform="translate(389.02,368.89)" style="opacity: 0.7; stroke-width: 1px; fill: rgb(255, 255, 255); fill-opacity: 0.3; stroke: rgb(0, 0, 0); stroke-opacity: 1;" d="M13.21,0A13.21,13.21 0 1,1 0,-13.21A13.21,13.21 0 0,1 13.21,0Z"/><path class="point" transform="translate(486.32,360.18)" style="opacity: 0.7; stroke-width: 1px; fill: rgb(255, 255, 255); fill-opacity: 0.3; stroke: rgb(0, 0, 0); stroke-opacity: 1;" d="M31.06,0A31.06,31.06 0 1,1 0,-31.06A31.06,31.06 0 0,1 31.06,0Z"/><path class="point" transform="translate(491.33,59.26)" style="opacity: 0.7; stroke-width: 1px; fill: rgb(255, 255, 255); fill-opacity: 0.3; stroke: rgb(0, 0, 0); stroke-opacity: 1;" d="M30.61,0A30.61,30.61 0 1,1 0,-30.61A30.61,30.61 0 0,1 30.61,0Z"/><path class="point" transform="translate(514.58,353.58)" style="opacity: 0.7; stroke-width: 1px; fill: rgb(255, 255, 255); fill-opacity: 0.3; stroke: rgb(0, 0, 0); stroke-opacity: 1;" d="M21.23,0A21.23,21.23 0 1,1 0,-21.23A21.23,21.23 0 0,1 21.23,0Z"/><path class="point" transform="translate(585.92,358.75)" style="opacity: 0.7; stroke-width: 1px; fill: rgb(255, 255, 255); fill-opacity: 0.3; stroke: rgb(0, 0, 0); stroke-opacity: 1;" d="M27.55,0A27.55,27.55 0 1,1 0,-27.55A27.55,27.55 0 0,1 27.55,0Z"/><path class="point" transform="translate(608.77,370)" style="opacity: 0.7; stroke-width: 1px; fill: rgb(255, 255, 255); fill-opacity: 0.3; stroke: rgb(0, 0, 0); stroke-opacity: 1;" d="M8,0A8,8 0 1,1 0,-8A8,8 0 0,1 8,0Z"/></g><g class="text"><g class="textpoint" transform="translate(0,3)"><text x="47.26" y="370.04" style="font-family: TOBESTRIPPEDOpen SansTOBESTRIPPED, verdana, arial, sans-serif; font-size: 12px; fill: rgb(68, 68, 68); fill-opacity: 1; white-space: pre;" text-anchor="middle">managedprovisioning</text></g><g class="textpoint" transform="translate(0,3)"><text x="47.27" y="370.05" style="font-family: TOBESTRIPPEDOpen SansTOBESTRIPPED, verdana, arial, sans-serif; font-size: 12px; fill: rgb(68, 68, 68); fill-opacity: 1; white-space: pre;" text-anchor="middle">intelligence</text></g><g class="textpoint" transform="translate(0,3)"><text x="47.79" y="370.01" style="font-family: TOBESTRIPPEDOpen SansTOBESTRIPPED, verdana, arial, sans-serif; font-size: 12px; fill: rgb(68, 68, 68); fill-opacity: 1; white-space: pre;" text-anchor="middle">services</text></g><g class="textpoint" transform="translate(0,3)"><text x="48" y="369.98" style="font-family: TOBESTRIPPEDOpen SansTOBESTRIPPED, verdana, arial, sans-serif; font-size: 12px; fill: rgb(68, 68, 68); fill-opacity: 1; white-space: pre;" text-anchor="middle">gos</text></g><g class="textpoint" transform="translate(0,3)"><text x="48.4" y="370.05" style="font-family: TOBESTRIPPEDOpen SansTOBESTRIPPED, verdana, arial, sans-serif; font-size: 12px; fill: rgb(68, 68, 68); fill-opacity: 1; white-space: pre;" text-anchor="middle">peoplestripe</text></g><g class="textpoint" transform="translate(0,3)"><text x="49.06" y="370.01" style="font-family: TOBESTRIPPEDOpen SansTOBESTRIPPED, verdana, arial, sans-serif; font-size: 12px; fill: rgb(68, 68, 68); fill-opacity: 1; white-space: pre;" text-anchor="middle">app</text></g><g class="textpoint" transform="translate(0,3)"><text x="49.3" y="370.05" style="font-family: TOBESTRIPPEDOpen SansTOBESTRIPPED, verdana, arial, sans-serif; font-size: 12px; fill: rgb(68, 68, 68); fill-opacity: 1; white-space: pre;" text-anchor="middle">gamehome</text></g><g class="textpoint" transform="translate(0,3)"><text x="49.61" y="370" style="font-family: TOBESTRIPPEDOpen SansTOBESTRIPPED, verdana, arial, sans-serif; font-size: 12px; fill: rgb(68, 68, 68); fill-opacity: 1; white-space: pre;" text-anchor="middle">cocktailbarservice</text></g><g class="textpoint" transform="translate(0,3)"><text x="49.71" y="369.91" style="font-family: TOBESTRIPPEDOpen SansTOBESTRIPPED, verdana, arial, sans-serif; font-size: 12px; fill: rgb(68, 68, 68); fill-opacity: 1; white-space: pre;" text-anchor="middle">galaxyfinder</text></g><g class="textpoint" transform="translate(0,3)"><text x="50.78" y="369.99" style="font-family: TOBESTRIPPEDOpen SansTOBESTRIPPED, verdana, arial, sans-serif; font-size: 12px; fill: rgb(68, 68, 68); fill-opacity: 1; white-space: pre;" text-anchor="middle">service</text></g><g class="textpoint" transform="translate(0,3)"><text x="50.88" y="370.05" style="font-family: TOBESTRIPPEDOpen SansTOBESTRIPPED, verdana, arial, sans-serif; font-size: 12px; fill: rgb(68, 68, 68); fill-opacity: 1; white-space: pre;" text-anchor="middle">traceur</text></g><g class="textpoint" transform="translate(0,3)"><text x="51.11" y="370.01" style="font-family: TOBESTRIPPEDOpen SansTOBESTRIPPED, verdana, arial, sans-serif; font-size: 12px; fill: rgb(68, 68, 68); fill-opacity: 1; white-space: pre;" text-anchor="middle">dynamiclock</text></g><g class="textpoint" transform="translate(0,3)"><text x="51.12" y="370.04" style="font-family: TOBESTRIPPEDOpen SansTOBESTRIPPED, verdana, arial, sans-serif; font-size: 12px; fill: rgb(68, 68, 68); fill-opacity: 1; white-space: pre;" text-anchor="middle">push</text></g><g class="textpoint" transform="translate(0,3)"><text x="51.35" y="369.67" style="font-family: TOBESTRIPPEDOpen SansTOBESTRIPPED, verdana, arial, sans-serif; font-size: 12px; fill: rgb(68, 68, 68); fill-opacity: 1; white-space: pre;" text-anchor="middle">config</text></g><g class="textpoint" transform="translate(0,3)"><text x="51.92" y="369.43" style="font-family: TOBESTRIPPEDOpen SansTOBESTRIPPED, verdana, arial, sans-serif; font-size: 12px; fill: rgb(68, 68, 68); fill-opacity: 1; white-space: pre;" text-anchor="middle">mattermost</text></g><g class="textpoint" transform="translate(0,3)"><text x="51.92" y="370.01" style="font-family: TOBESTRIPPEDOpen SansTOBESTRIPPED, verdana, arial, sans-serif; font-size: 12px; fill: rgb(68, 68, 68); fill-opacity: 1; white-space: pre;" text-anchor="middle">partnersetup</text></g><g class="textpoint" transform="translate(0,3)"><text x="52.18" y="370.05" style="font-family: TOBESTRIPPEDOpen SansTOBESTRIPPED, verdana, arial, sans-serif; font-size: 12px; fill: rgb(68, 68, 68); fill-opacity: 1; white-space: pre;" text-anchor="middle">contacts</text></g><g class="textpoint" transform="translate(0,3)"><text x="52.47" y="369.92" style="font-family: TOBESTRIPPEDOpen SansTOBESTRIPPED, verdana, arial, sans-serif; font-size: 12px; fill: rgb(68, 68, 68); fill-opacity: 1; white-space: pre;" text-anchor="middle">mather</text></g><g class="textpoint" transform="translate(0,3)"><text x="53.26" y="369.71" style="font-family: TOBESTRIPPEDOpen SansTOBESTRIPPED, verdana, arial, sans-serif; font-size: 12px; fill: rgb(68, 68, 68); fill-opacity: 1; white-space: pre;" text-anchor="middle">scs</text></g><g class="textpoint" transform="translate(0,3)"><text x="53.62" y="370.05" style="font-family: TOBESTRIPPEDOpen SansTOBESTRIPPED, verdana, arial, sans-serif; font-size: 12px; fill: rgb(68, 68, 68); fill-opacity: 1; white-space: pre;" text-anchor="middle">calendar</text></g><g class="textpoint" transform="translate(0,3)"><text x="53.64" y="369.99" style="font-family: TOBESTRIPPEDOpen SansTOBESTRIPPED, verdana, arial, sans-serif; font-size: 12px; fill: rgb(68, 68, 68); fill-opacity: 1; white-space: pre;" text-anchor="middle">messaging</text></g><g class="textpoint" transform="translate(0,3)"><text x="55.29" y="368.4" style="font-family: TOBESTRIPPEDOpen SansTOBESTRIPPED, verdana, arial, sans-serif; font-size: 12px; fill: rgb(68, 68, 68); fill-opacity: 1; white-space: pre;" text-anchor="middle">jumpgo</text></g><g class="textpoint" transform="translate(0,3)"><text x="57.17" y="369.98" style="font-family: TOBESTRIPPEDOpen SansTOBESTRIPPED, verdana, arial, sans-serif; font-size: 12px; fill: rgb(68, 68, 68); fill-opacity: 1; white-space: pre;" text-anchor="middle">easysetup</text></g><g class="textpoint" transform="translate(0,3)"><text x="57.24" y="370.04" style="font-family: TOBESTRIPPEDOpen SansTOBESTRIPPED, verdana, arial, sans-serif; font-size: 12px; fill: rgb(68, 68, 68); fill-opacity: 1; white-space: pre;" text-anchor="middle">appsedge</text></g><g class="textpoint" transform="translate(0,3)"><text x="57.46" y="370.02" style="font-family: TOBESTRIPPEDOpen SansTOBESTRIPPED, verdana, arial, sans-serif; font-size: 12px; fill: rgb(68, 68, 68); fill-opacity: 1; white-space: pre;" text-anchor="middle">quickboard</text></g><g class="textpoint" transform="translate(0,3)"><text x="57.67" y="368.21" style="font-family: TOBESTRIPPEDOpen SansTOBESTRIPPED, verdana, arial, sans-serif; font-size: 12px; fill: rgb(68, 68, 68); fill-opacity: 1; white-space: pre;" text-anchor="middle">lightning</text></g><g class="textpoint" transform="translate(0,3)"><text x="58.87" y="370.04" style="font-family: TOBESTRIPPEDOpen SansTOBESTRIPPED, verdana, arial, sans-serif; font-size: 12px; fill: rgb(68, 68, 68); fill-opacity: 1; white-space: pre;" text-anchor="middle">authenticator2</text></g><g class="textpoint" transform="translate(0,3)"><text x="59.3" y="370.05" style="font-family: TOBESTRIPPEDOpen SansTOBESTRIPPED, verdana, arial, sans-serif; font-size: 12px; fill: rgb(68, 68, 68); fill-opacity: 1; white-space: pre;" text-anchor="middle">secscanqr</text></g><g class="textpoint" transform="translate(0,3)"><text x="62.38" y="369.84" style="font-family: TOBESTRIPPEDOpen SansTOBESTRIPPED, verdana, arial, sans-serif; font-size: 12px; fill: rgb(68, 68, 68); fill-opacity: 1; white-space: pre;" text-anchor="middle">launcher</text></g><g class="textpoint" transform="translate(0,3)"><text x="62.4" y="369.93" style="font-family: TOBESTRIPPEDOpen SansTOBESTRIPPED, verdana, arial, sans-serif; font-size: 12px; fill: rgb(68, 68, 68); fill-opacity: 1; white-space: pre;" text-anchor="middle">markor</text></g><g class="textpoint" transform="translate(0,3)"><text x="65.43" y="355.38" style="font-family: TOBESTRIPPEDOpen SansTOBESTRIPPED, verdana, arial, sans-serif; font-size: 12px; fill: rgb(68, 68, 68); fill-opacity: 1; white-space: pre;" text-anchor="middle">quickdic</text></g><g class="textpoint" transform="translate(0,3)"><text x="65.86" y="370.05" style="font-family: TOBESTRIPPEDOpen SansTOBESTRIPPED, verdana, arial, sans-serif; font-size: 12px; fill: rgb(68, 68, 68); fill-opacity: 1; white-space: pre;" text-anchor="middle">turbo</text></g><g class="textpoint" transform="translate(0,3)"><text x="66.6" y="369.93" style="font-family: TOBESTRIPPEDOpen SansTOBESTRIPPED, verdana, arial, sans-serif; font-size: 12px; fill: rgb(68, 68, 68); fill-opacity: 1; white-space: pre;" text-anchor="middle">standard</text></g><g class="textpoint" transform="translate(0,3)"><text x="66.74" y="369.35" style="font-family: TOBESTRIPPEDOpen SansTOBESTRIPPED, verdana, arial, sans-serif; font-size: 12px; fill: rgb(68, 68, 68); fill-opacity: 1; white-space: pre;" text-anchor="middle">module</text></g><g class="textpoint" transform="translate(0,3)"><text x="67.71" y="369.95" style="font-family: TOBESTRIPPEDOpen SansTOBESTRIPPED, verdana, arial, sans-serif; font-size: 12px; fill: rgb(68, 68, 68); fill-opacity: 1; white-space: pre;" text-anchor="middle">spage</text></g><g class="textpoint" transform="translate(0,3)"><text x="78.1" y="369.79" style="font-family: TOBESTRIPPEDOpen SansTOBESTRIPPED, verdana, arial, sans-serif; font-size: 12px; fill: rgb(68, 68, 68); fill-opacity: 1; white-space: pre;" text-anchor="middle">android</text></g><g class="textpoint" transform="translate(0,3)"><text x="78.42" y="370.02" style="font-family: TOBESTRIPPEDOpen SansTOBESTRIPPED, verdana, arial, sans-serif; font-size: 12px; fill: rgb(68, 68, 68); fill-opacity: 1; white-space: pre;" text-anchor="middle">clockpackage</text></g><g class="textpoint" transform="translate(0,3)"><text x="80.43" y="369.89" style="font-family: TOBESTRIPPEDOpen SansTOBESTRIPPED, verdana, arial, sans-serif; font-size: 12px; fill: rgb(68, 68, 68); fill-opacity: 1; white-space: pre;" text-anchor="middle">mobileservice</text></g><g class="textpoint" transform="translate(0,3)"><text x="84.96" y="369.86" style="font-family: TOBESTRIPPEDOpen SansTOBESTRIPPED, verdana, arial, sans-serif; font-size: 12px; fill: rgb(68, 68, 68); fill-opacity: 1; white-space: pre;" text-anchor="middle">sharelive</text></g><g class="textpoint" transform="translate(0,3)"><text x="86.27" y="369.88" style="font-family: TOBESTRIPPEDOpen SansTOBESTRIPPED, verdana, arial, sans-serif; font-size: 12px; fill: rgb(68, 68, 68); fill-opacity: 1; white-space: pre;" text-anchor="middle">alarm</text></g><g class="textpoint" transform="translate(0,3)"><text x="88.19" y="366.83" style="font-family: TOBESTRIPPEDOpen SansTOBESTRIPPED, verdana, arial, sans-serif; font-size: 12px; fill: rgb(68, 68, 68); fill-opacity: 1; white-space: pre;" text-anchor="middle">chrome</text></g><g class="textpoint" transform="translate(0,3)"><text x="91.31" y="370.01" style="font-family: TOBESTRIPPEDOpen SansTOBESTRIPPED, verdana, arial, sans-serif; font-size: 12px; fill: rgb(68, 68, 68); fill-opacity: 1; white-space: pre;" text-anchor="middle">davdroid</text></g><g class="textpoint" transform="translate(0,3)"><text x="92.56" y="369.91" style="font-family: TOBESTRIPPEDOpen SansTOBESTRIPPED, verdana, arial, sans-serif; font-size: 12px; fill: rgb(68, 68, 68); fill-opacity: 1; white-space: pre;" text-anchor="middle">daemonapp</text></g><g class="textpoint" transform="translate(0,3)"><text x="93.31" y="370.05" style="font-family: TOBESTRIPPEDOpen SansTOBESTRIPPED, verdana, arial, sans-serif; font-size: 12px; fill: rgb(68, 68, 68); fill-opacity: 1; white-space: pre;" text-anchor="middle">kidshome</text></g><g class="textpoint" transform="translate(0,3)"><text x="97.1" y="369.93" style="font-family: TOBESTRIPPEDOpen SansTOBESTRIPPED, verdana, arial, sans-serif; font-size: 12px; fill: rgb(68, 68, 68); fill-opacity: 1; white-space: pre;" text-anchor="middle">restore</text></g><g class="textpoint" transform="translate(0,3)"><text x="99.99" y="366.58" style="font-family: TOBESTRIPPEDOpen SansTOBESTRIPPED, verdana, arial, sans-serif; font-size: 12px; fill: rgb(68, 68, 68); fill-opacity: 1; white-space: pre;" text-anchor="middle">pro</text></g><g class="textpoint" transform="translate(0,3)"><text x="106.99" y="353.9" style="font-family: TOBESTRIPPEDOpen SansTOBESTRIPPED, verdana, arial, sans-serif; font-size: 12px; fill: rgb(68, 68, 68); fill-opacity: 1; white-space: pre;" text-anchor="middle">fdroid</text></g><g class="textpoint" transform="translate(0,3)"><text x="112.93" y="369.8" style="font-family: TOBESTRIPPEDOpen SansTOBESTRIPPED, verdana, arial, sans-serif; font-size: 12px; fill: rgb(68, 68, 68); fill-opacity: 1; white-space: pre;" text-anchor="middle">bustaiwan</text></g><g class="textpoint" transform="translate(0,3)"><text x="115.62" y="370.02" style="font-family: TOBESTRIPPEDOpen SansTOBESTRIPPED, verdana, arial, sans-serif; font-size: 12px; fill: rgb(68, 68, 68); fill-opacity: 1; white-space: pre;" text-anchor="middle">pro</text></g><g class="textpoint" transform="translate(0,3)"><text x="117.01" y="370.04" style="font-family: TOBESTRIPPEDOpen SansTOBESTRIPPED, verdana, arial, sans-serif; font-size: 12px; fill: rgb(68, 68, 68); fill-opacity: 1; white-space: pre;" text-anchor="middle">calendar</text></g><g class="textpoint" transform="translate(0,3)"><text x="129.02" y="368.19" style="font-family: TOBESTRIPPEDOpen SansTOBESTRIPPED, verdana, arial, sans-serif; font-size: 12px; fill: rgb(68, 68, 68); fill-opacity: 1; white-space: pre;" text-anchor="middle">honeyboard</text></g><g class="textpoint" transform="translate(0,3)"><text x="145.57" y="368.98" style="font-family: TOBESTRIPPEDOpen SansTOBESTRIPPED, verdana, arial, sans-serif; font-size: 12px; fill: rgb(68, 68, 68); fill-opacity: 1; white-space: pre;" text-anchor="middle">docs</text></g><g class="textpoint" transform="translate(0,3)"><text x="151.56" y="370" style="font-family: TOBESTRIPPEDOpen SansTOBESTRIPPED, verdana, arial, sans-serif; font-size: 12px; fill: rgb(68, 68, 68); fill-opacity: 1; white-space: pre;" text-anchor="middle">meetings</text></g><g class="textpoint" transform="translate(0,3)"><text x="173.21" y="370.02" style="font-family: TOBESTRIPPEDOpen SansTOBESTRIPPED, verdana, arial, sans-serif; font-size: 12px; fill: rgb(68, 68, 68); fill-opacity: 1; white-space: pre;" text-anchor="middle">webview</text></g><g class="textpoint" transform="translate(0,3)"><text x="179.73" y="369.43" style="font-family: TOBESTRIPPEDOpen SansTOBESTRIPPED, verdana, arial, sans-serif; font-size: 12px; fill: rgb(68, 68, 68); fill-opacity: 1; white-space: pre;" text-anchor="middle">samsungapps</text></g><g class="textpoint" transform="translate(0,3)"><text x="196.01" y="369.94" style="font-family: TOBESTRIPPEDOpen SansTOBESTRIPPED, verdana, arial, sans-serif; font-size: 12px; fill: rgb(68, 68, 68); fill-opacity: 1; white-space: pre;" text-anchor="middle">vlc</text></g><g class="textpoint" transform="translate(0,3)"><text x="200.06" y="370" style="font-family: TOBESTRIPPEDOpen SansTOBESTRIPPED, verdana, arial, sans-serif; font-size: 12px; fill: rgb(68, 68, 68); fill-opacity: 1; white-space: pre;" text-anchor="middle">mediaclient</text></g><g class="textpoint" transform="translate(0,3)"><text x="216.31" y="362.98" style="font-family: TOBESTRIPPEDOpen SansTOBESTRIPPED, verdana, arial, sans-serif; font-size: 12px; fill: rgb(68, 68, 68); fill-opacity: 1; white-space: pre;" text-anchor="middle">sheets</text></g><g class="textpoint" transform="translate(0,3)"><text x="218.16" y="369.24" style="font-family: TOBESTRIPPEDOpen SansTOBESTRIPPED, verdana, arial, sans-serif; font-size: 12px; fill: rgb(68, 68, 68); fill-opacity: 1; white-space: pre;" text-anchor="middle">client</text></g><g class="textpoint" transform="translate(0,3)"><text x="229.15" y="368.12" style="font-family: TOBESTRIPPEDOpen SansTOBESTRIPPED, verdana, arial, sans-serif; font-size: 12px; fill: rgb(68, 68, 68); fill-opacity: 1; white-space: pre;" text-anchor="middle">vending</text></g><g class="textpoint" transform="translate(0,3)"><text x="249" y="354.39" style="font-family: TOBESTRIPPEDOpen SansTOBESTRIPPED, verdana, arial, sans-serif; font-size: 12px; fill: rgb(68, 68, 68); fill-opacity: 1; white-space: pre;" text-anchor="middle">tts</text></g><g class="textpoint" transform="translate(0,3)"><text x="272.61" y="368.86" style="font-family: TOBESTRIPPEDOpen SansTOBESTRIPPED, verdana, arial, sans-serif; font-size: 12px; fill: rgb(68, 68, 68); fill-opacity: 1; white-space: pre;" text-anchor="middle">tachyon</text></g><g class="textpoint" transform="translate(0,3)"><text x="274.8" y="294.68" style="font-family: TOBESTRIPPEDOpen SansTOBESTRIPPED, verdana, arial, sans-serif; font-size: 12px; fill: rgb(68, 68, 68); fill-opacity: 1; white-space: pre;" text-anchor="middle">termux</text></g><g class="textpoint" transform="translate(0,3)"><text x="294.48" y="362.11" style="font-family: TOBESTRIPPEDOpen SansTOBESTRIPPED, verdana, arial, sans-serif; font-size: 12px; fill: rgb(68, 68, 68); fill-opacity: 1; white-space: pre;" text-anchor="middle">latin</text></g><g class="textpoint" transform="translate(0,3)"><text x="296.23" y="368.74" style="font-family: TOBESTRIPPEDOpen SansTOBESTRIPPED, verdana, arial, sans-serif; font-size: 12px; fill: rgb(68, 68, 68); fill-opacity: 1; white-space: pre;" text-anchor="middle">maps</text></g><g class="textpoint" transform="translate(0,3)"><text x="321.2" y="369.69" style="font-family: TOBESTRIPPEDOpen SansTOBESTRIPPED, verdana, arial, sans-serif; font-size: 12px; fill: rgb(68, 68, 68); fill-opacity: 1; white-space: pre;" text-anchor="middle">skydrive</text></g><g class="textpoint" transform="translate(0,3)"><text x="337.27" y="368.88" style="font-family: TOBESTRIPPEDOpen SansTOBESTRIPPED, verdana, arial, sans-serif; font-size: 12px; fill: rgb(68, 68, 68); fill-opacity: 1; white-space: pre;" text-anchor="middle">messaging</text></g><g class="textpoint" transform="translate(0,3)"><text x="350.95" y="363.7" style="font-family: TOBESTRIPPEDOpen SansTOBESTRIPPED, verdana, arial, sans-serif; font-size: 12px; fill: rgb(68, 68, 68); fill-opacity: 1; white-space: pre;" text-anchor="middle">youtube</text></g><g class="textpoint" transform="translate(0,3)"><text x="379.13" y="347.95" style="font-family: TOBESTRIPPEDOpen SansTOBESTRIPPED, verdana, arial, sans-serif; font-size: 12px; fill: rgb(68, 68, 68); fill-opacity: 1; white-space: pre;" text-anchor="middle">osmand</text></g><g class="textpoint" transform="translate(0,3)"><text x="387.87" y="369.72" style="font-family: TOBESTRIPPEDOpen SansTOBESTRIPPED, verdana, arial, sans-serif; font-size: 12px; fill: rgb(68, 68, 68); fill-opacity: 1; white-space: pre;" text-anchor="middle">sbrowser</text></g><g class="textpoint" transform="translate(0,3)"><text x="389.02" y="368.89" style="font-family: TOBESTRIPPEDOpen SansTOBESTRIPPED, verdana, arial, sans-serif; font-size: 12px; fill: rgb(68, 68, 68); fill-opacity: 1; white-space: pre;" text-anchor="middle">gm</text></g><g class="textpoint" transform="translate(0,3)"><text x="486.32" y="360.18" style="font-family: TOBESTRIPPEDOpen SansTOBESTRIPPED, verdana, arial, sans-serif; font-size: 12px; fill: rgb(68, 68, 68); fill-opacity: 1; white-space: pre;" text-anchor="middle">eats</text></g><g class="textpoint" transform="translate(0,3)"><text x="491.33" y="59.26" style="font-family: TOBESTRIPPEDOpen SansTOBESTRIPPED, verdana, arial, sans-serif; font-size: 12px; fill: rgb(68, 68, 68); fill-opacity: 1; white-space: pre;" text-anchor="middle">line</text></g><g class="textpoint" transform="translate(0,3)"><text x="514.58" y="353.58" style="font-family: TOBESTRIPPEDOpen SansTOBESTRIPPED, verdana, arial, sans-serif; font-size: 12px; fill: rgb(68, 68, 68); fill-opacity: 1; white-space: pre;" text-anchor="middle">gms</text></g><g class="textpoint" transform="translate(0,3)"><text x="585.92" y="358.75" style="font-family: TOBESTRIPPEDOpen SansTOBESTRIPPED, verdana, arial, sans-serif; font-size: 12px; fill: rgb(68, 68, 68); fill-opacity: 1; white-space: pre;" text-anchor="middle">googlequicksearchbox</text></g><g class="textpoint" transform="translate(0,3)"><text x="608.77" y="370" style="font-family: TOBESTRIPPEDOpen SansTOBESTRIPPED, verdana, arial, sans-serif; font-size: 12px; fill: rgb(68, 68, 68); fill-opacity: 1; white-space: pre;" text-anchor="middle">SimpleX</text></g></g></g></g></g><g class="overplot"/><path class="xlines-above crisp" style="fill: none;" d="M0,0"/><path class="ylines-above crisp" style="fill: none;" d="M0,0"/><g class="overlines-above"/><g class="xaxislayer-above"><g class="xtick"><text text-anchor="middle" x="0" y="533" style="font-family: TOBESTRIPPEDOpen SansTOBESTRIPPED, verdana, arial, sans-serif; font-size: 12px; fill: rgb(68, 68, 68); fill-opacity: 1; white-space: pre;" transform="translate(123.65,0)">0</text></g><g class="xtick"><text text-anchor="middle" x="0" y="533" style="font-family: TOBESTRIPPEDOpen SansTOBESTRIPPED, verdana, arial, sans-serif; font-size: 12px; fill: rgb(68, 68, 68); fill-opacity: 1; white-space: pre;" transform="translate(202.13,0)">50M</text></g><g class="xtick"><text text-anchor="middle" x="0" y="533" style="font-family: TOBESTRIPPEDOpen SansTOBESTRIPPED, verdana, arial, sans-serif; font-size: 12px; fill: rgb(68, 68, 68); fill-opacity: 1; white-space: pre;" transform="translate(280.61,0)">100M</text></g><g class="xtick"><text text-anchor="middle" x="0" y="533" style="font-family: TOBESTRIPPEDOpen SansTOBESTRIPPED, verdana, arial, sans-serif; font-size: 12px; fill: rgb(68, 68, 68); fill-opacity: 1; white-space: pre;" transform="translate(359.1,0)">150M</text></g><g class="xtick"><text text-anchor="middle" x="0" y="533" style="font-family: TOBESTRIPPEDOpen SansTOBESTRIPPED, verdana, arial, sans-serif; font-size: 12px; fill: rgb(68, 68, 68); fill-opacity: 1; white-space: pre;" transform="translate(437.58,0)">200M</text></g><g class="xtick"><text text-anchor="middle" x="0" y="533" style="font-family: TOBESTRIPPEDOpen SansTOBESTRIPPED, verdana, arial, sans-serif; font-size: 12px; fill: rgb(68, 68, 68); fill-opacity: 1; white-space: pre;" transform="translate(516.06,0)">250M</text></g><g class="xtick"><text text-anchor="middle" x="0" y="533" style="font-family: TOBESTRIPPEDOpen SansTOBESTRIPPED, verdana, arial, sans-serif; font-size: 12px; fill: rgb(68, 68, 68); fill-opacity: 1; white-space: pre;" transform="translate(594.54,0)">300M</text></g><g class="xtick"><text text-anchor="middle" x="0" y="533" style="font-family: TOBESTRIPPEDOpen SansTOBESTRIPPED, verdana, arial, sans-serif; font-size: 12px; fill: rgb(68, 68, 68); fill-opacity: 1; white-space: pre;" transform="translate(673.02,0)">350M</text></g></g><g class="yaxislayer-above"><g class="ytick"><text text-anchor="end" x="79" y="4.199999999999999" style="font-family: TOBESTRIPPEDOpen SansTOBESTRIPPED, verdana, arial, sans-serif; font-size: 12px; fill: rgb(68, 68, 68); fill-opacity: 1; white-space: pre;" transform="translate(0,470.09)">0</text></g><g class="ytick"><text text-anchor="end" x="79" y="4.199999999999999" style="font-family: TOBESTRIPPEDOpen SansTOBESTRIPPED, verdana, arial, sans-serif; font-size: 12px; fill: rgb(68, 68, 68); fill-opacity: 1; white-space: pre;" transform="translate(0,398.26)">2B</text></g><g class="ytick"><text text-anchor="end" x="79" y="4.199999999999999" style="font-family: TOBESTRIPPEDOpen SansTOBESTRIPPED, verdana, arial, sans-serif; font-size: 12px; fill: rgb(68, 68, 68); fill-opacity: 1; white-space: pre;" transform="translate(0,326.44)">4B</text></g><g class="ytick"><text text-anchor="end" x="79" y="4.199999999999999" style="font-family: TOBESTRIPPEDOpen SansTOBESTRIPPED, verdana, arial, sans-serif; font-size: 12px; fill: rgb(68, 68, 68); fill-opacity: 1; white-space: pre;" transform="translate(0,254.61)">6B</text></g><g class="ytick"><text text-anchor="end" x="79" y="4.199999999999999" style="font-family: TOBESTRIPPEDOpen SansTOBESTRIPPED, verdana, arial, sans-serif; font-size: 12px; fill: rgb(68, 68, 68); fill-opacity: 1; white-space: pre;" transform="translate(0,182.78)">8B</text></g><g class="ytick"><text text-anchor="end" x="79" y="4.199999999999999" style="font-family: TOBESTRIPPEDOpen SansTOBESTRIPPED, verdana, arial, sans-serif; font-size: 12px; fill: rgb(68, 68, 68); fill-opacity: 1; white-space: pre;" transform="translate(0,110.95)">10B</text></g></g><g class="overaxes-above"/></g></g><g class="polarlayer"/><g class="ternarylayer"/><g class="geolayer"/><g class="funnelarealayer"/><g class="pielayer"/><g class="treemaplayer"/><g class="sunburstlayer"/><g class="glimages"/><defs id="topdefs-b036fd"><g class="clips"/></defs><g class="layer-above"><g class="imagelayer"/><g class="shapelayer"/></g><g class="infolayer"><g class="g-gtitle"><text class="gtitle" style="font-family: TOBESTRIPPEDOpen SansTOBESTRIPPED, verdana, arial, sans-serif; font-size: 17px; fill: rgb(68, 68, 68); opacity: 1; font-weight: normal; white-space: pre;" x="406.6" y="50" text-anchor="middle" dy="0em">sizes of android apps</text></g><g class="g-xtitle"><text class="xtitle" style="font-family: TOBESTRIPPEDOpen SansTOBESTRIPPED, verdana, arial, sans-serif; font-size: 14px; fill: rgb(68, 68, 68); opacity: 1; font-weight: normal; white-space: pre;" x="406.5" y="572" text-anchor="middle">App</text></g><g class="g-ytitle"><text class="ytitle" transform="rotate(-90,42,310)" style="font-family: TOBESTRIPPEDOpen SansTOBESTRIPPED, verdana, arial, sans-serif; font-size: 14px; fill: rgb(68, 68, 68); opacity: 1; font-weight: normal; white-space: pre;" x="42" y="310" text-anchor="middle">Data</text></g></g></svg>