<?xml version="1.0" encoding="utf-8" standalone="no"?>
<!-- Created with matplotlib (http://matplotlib.org/) -->
<svg height="345pt" version="1.1" viewBox="0 0 460 345" width="460pt" xmlns="http://www.w3.org/2000/svg" xmlns:xlink="http://www.w3.org/1999/xlink">
 <defs>
  <style type="text/css">
*{stroke-linecap:butt;stroke-linejoin:round;}
  </style>
 </defs>
 <g id="figure_1">
  <g id="patch_1">
   <path d="M 0 345.6 
L 460.8 345.6 
L 460.8 0 
L 0 0 
z
" style="fill:#ffffff;"/>
  </g>
  <g id="axes_1">
   <g id="patch_2">
    <path d="M 57.6 307.584 
L 414.72 307.584 
L 414.72 41.472 
L 57.6 41.472 
z
" style="fill:#ffffff;"/>
   </g>
   <g id="PathCollection_1">
    <path clip-path="url(#pbac91b2ed6)" d="M 224.012182 176.205743 
C 226.573138 176.205743 229.02955 175.188264 230.840419 173.377394 
C 232.651289 171.566524 233.668768 169.110113 233.668768 166.549157 
C 233.668768 163.9882 232.651289 161.531789 230.840419 159.720919 
C 229.02955 157.910049 226.573138 156.892571 224.012182 156.892571 
C 221.451225 156.892571 218.994814 157.910049 217.183944 159.720919 
C 215.373075 161.531789 214.355596 163.9882 214.355596 166.549157 
C 214.355596 169.110113 215.373075 171.566524 217.183944 173.377394 
C 218.994814 175.188264 221.451225 176.205743 224.012182 176.205743 
z
" style="fill:none;stroke:#0000ff;"/>
   </g>
   <g id="PathCollection_2">
    <path clip-path="url(#pbac91b2ed6)" d="M 228.52624 253.307087 
C 231.095008 253.307087 233.558911 252.286505 235.375304 250.470112 
C 237.191696 248.653719 238.212279 246.189816 238.212279 243.621048 
C 238.212279 241.052281 237.191696 238.588378 235.375304 236.771985 
C 233.558911 234.955592 231.095008 233.93501 228.52624 233.93501 
C 225.957473 233.93501 223.49357 234.955592 221.677177 236.771985 
C 219.860784 238.588378 218.840202 241.052281 218.840202 243.621048 
C 218.840202 246.189816 219.860784 248.653719 221.677177 250.470112 
C 223.49357 252.286505 225.957473 253.307087 228.52624 253.307087 
z
" style="fill:none;stroke:#0000ff;"/>
   </g>
   <g id="PathCollection_3">
    <path clip-path="url(#pbac91b2ed6)" d="M 251.103139 233.588169 
C 253.645649 233.588169 256.084367 232.57802 257.882193 230.780194 
C 259.680018 228.982368 260.690168 226.54365 260.690168 224.001141 
C 260.690168 221.458631 259.680018 219.019913 257.882193 217.222088 
C 256.084367 215.424262 253.645649 214.414112 251.103139 214.414112 
C 248.56063 214.414112 246.121912 215.424262 244.324086 217.222088 
C 242.52626 219.019913 241.516111 221.458631 241.516111 224.001141 
C 241.516111 226.54365 242.52626 228.982368 244.324086 230.780194 
C 246.121912 232.57802 248.56063 233.588169 251.103139 233.588169 
z
" style="fill:none;stroke:#0000ff;"/>
   </g>
   <g id="PathCollection_4">
    <path clip-path="url(#pbac91b2ed6)" d="M 273.800736 214.197543 
C 276.432183 214.197543 278.956208 213.152058 280.816922 211.291344 
C 282.677636 209.430629 283.723121 206.906605 283.723121 204.275158 
C 283.723121 201.643711 282.677636 199.119687 280.816922 197.258973 
C 278.956208 195.398259 276.432183 194.352774 273.800736 194.352774 
C 271.169289 194.352774 268.645265 195.398259 266.784551 197.258973 
C 264.923837 199.119687 263.878352 201.643711 263.878352 204.275158 
C 263.878352 206.906605 264.923837 209.430629 266.784551 211.291344 
C 268.645265 213.152058 271.169289 214.197543 273.800736 214.197543 
z
" style="fill:none;stroke:#0000ff;"/>
   </g>
   <g id="PathCollection_5">
    <path clip-path="url(#pbac91b2ed6)" d="M 301.253276 190.292399 
C 303.869716 190.292399 306.379346 189.252876 308.229449 187.402773 
C 310.079551 185.552671 311.119074 183.043041 311.119074 180.426601 
C 311.119074 177.81016 310.079551 175.30053 308.229449 173.450428 
C 306.379346 171.600325 303.869716 170.560802 301.253276 170.560802 
C 298.636836 170.560802 296.127206 171.600325 294.277103 173.450428 
C 292.427001 175.30053 291.387478 177.81016 291.387478 180.426601 
C 291.387478 183.043041 292.427001 185.552671 294.277103 187.402773 
C 296.127206 189.252876 298.636836 190.292399 301.253276 190.292399 
z
" style="fill:none;stroke:#0000ff;"/>
   </g>
   <g id="PathCollection_6">
    <path clip-path="url(#pbac91b2ed6)" d="M 187.502276 286.748051 
C 189.474487 286.748051 191.366186 285.964483 192.76075 284.56992 
C 194.155313 283.175356 194.938881 281.283657 194.938881 279.311446 
C 194.938881 277.339235 194.155313 275.447536 192.76075 274.052972 
C 191.366186 272.658408 189.474487 271.874841 187.502276 271.874841 
C 185.530065 271.874841 183.638366 272.658408 182.243802 274.052972 
C 180.849238 275.447536 180.065671 277.339235 180.065671 279.311446 
C 180.065671 281.283657 180.849238 283.175356 182.243802 284.56992 
C 183.638366 285.964483 185.530065 286.748051 187.502276 286.748051 
z
" style="fill:none;stroke:#0000ff;"/>
   </g>
   <g id="PathCollection_7">
    <path clip-path="url(#pbac91b2ed6)" d="M 389.066624 111.403354 
C 390.989276 111.403354 392.83344 110.639476 394.192961 109.279956 
C 395.552481 107.920435 396.316359 106.076271 396.316359 104.153619 
C 396.316359 102.230967 395.552481 100.386803 394.192961 99.027282 
C 392.83344 97.667762 390.989276 96.903884 389.066624 96.903884 
C 387.143972 96.903884 385.299808 97.667762 383.940287 99.027282 
C 382.580767 100.386803 381.816889 102.230967 381.816889 104.153619 
C 381.816889 106.076271 382.580767 107.920435 383.940287 109.279956 
C 385.299808 110.639476 387.143972 111.403354 389.066624 111.403354 
z
" style="fill:none;stroke:#0000ff;"/>
   </g>
   <g id="PathCollection_8">
    <path clip-path="url(#pbac91b2ed6)" d="M 188.599355 269.495481 
C 190.755767 269.495481 192.824149 268.63873 194.348962 267.113916 
C 195.873776 265.589103 196.730527 263.520721 196.730527 261.364309 
C 196.730527 259.207897 195.873776 257.139516 194.348962 255.614703 
C 192.824149 254.089889 190.755767 253.233137 188.599355 253.233137 
C 186.442943 253.233137 184.374562 254.089889 182.849748 255.614703 
C 181.324935 257.139516 180.468183 259.207897 180.468183 261.364309 
C 180.468183 263.520721 181.324935 265.589103 182.849748 267.113916 
C 184.374562 268.63873 186.442943 269.495481 188.599355 269.495481 
z
" style="fill:none;stroke:#0000ff;"/>
   </g>
   <g id="PathCollection_9">
    <path clip-path="url(#pbac91b2ed6)" d="M 200.713061 259.132578 
C 202.918121 259.132578 205.033165 258.256498 206.592378 256.697285 
C 208.151591 255.138072 209.027671 253.023028 209.027671 250.817968 
C 209.027671 248.612908 208.151591 246.497864 206.592378 244.938651 
C 205.033165 243.379438 202.918121 242.503358 200.713061 242.503358 
C 198.508001 242.503358 196.392957 243.379438 194.833744 244.938651 
C 193.274531 246.497864 192.398451 248.612908 192.398451 250.817968 
C 192.398451 253.023028 193.274531 255.138072 194.833744 256.697285 
C 196.392957 258.256498 198.508001 259.132578 200.713061 259.132578 
z
" style="fill:none;stroke:#0000ff;"/>
   </g>
   <g id="PathCollection_10">
    <path clip-path="url(#pbac91b2ed6)" d="M 211.088682 250.651286 
C 213.439265 250.651286 215.693891 249.71739 217.356005 248.055276 
C 219.018118 246.393163 219.952015 244.138537 219.952015 241.787953 
C 219.952015 239.43737 219.018118 237.182744 217.356005 235.520631 
C 215.693891 233.858517 213.439265 232.92462 211.088682 232.92462 
C 208.738098 232.92462 206.483472 233.858517 204.821359 235.520631 
C 203.159245 237.182744 202.225349 239.43737 202.225349 241.787953 
C 202.225349 244.138537 203.159245 246.393163 204.821359 248.055276 
C 206.483472 249.71739 208.738098 250.651286 211.088682 250.651286 
z
" style="fill:none;stroke:#0000ff;"/>
   </g>
   <g id="PathCollection_11">
    <path clip-path="url(#pbac91b2ed6)" d="M 223.121407 240.229078 
C 225.480894 240.229078 227.744059 239.291644 229.412468 237.623235 
C 231.080877 235.954826 232.018311 233.691661 232.018311 231.332174 
C 232.018311 228.972688 231.080877 226.709522 229.412468 225.041114 
C 227.744059 223.372705 225.480894 222.435271 223.121407 222.435271 
C 220.761921 222.435271 218.498755 223.372705 216.830347 225.041114 
C 215.161938 226.709522 214.224504 228.972688 214.224504 231.332174 
C 214.224504 233.691661 215.161938 235.954826 216.830347 237.623235 
C 218.498755 239.291644 220.761921 240.229078 223.121407 240.229078 
z
" style="fill:none;stroke:#0000ff;"/>
   </g>
   <g id="PathCollection_12">
    <path clip-path="url(#pbac91b2ed6)" d="M 239.358115 226.32981 
C 241.774088 226.32981 244.091435 225.369934 245.799787 223.661582 
C 247.508138 221.953231 248.468015 219.635884 248.468015 217.219911 
C 248.468015 214.803937 247.508138 212.48659 245.799787 210.778239 
C 244.091435 209.069887 241.774088 208.110011 239.358115 208.110011 
C 236.942141 208.110011 234.624794 209.069887 232.916443 210.778239 
C 231.208091 212.48659 230.248215 214.803937 230.248215 217.219911 
C 230.248215 219.635884 231.208091 221.953231 232.916443 223.661582 
C 234.624794 225.369934 236.942141 226.32981 239.358115 226.32981 
z
" style="fill:none;stroke:#0000ff;"/>
   </g>
   <g id="PathCollection_13">
    <path clip-path="url(#pbac91b2ed6)" d="M 280.235143 191.611729 
C 282.862829 191.611729 285.383246 190.567738 287.2413 188.709684 
C 289.099355 186.851629 290.143346 184.331212 290.143346 181.703526 
C 290.143346 179.07584 289.099355 176.555423 287.2413 174.697369 
C 285.383246 172.839314 282.862829 171.795323 280.235143 171.795323 
C 277.607457 171.795323 275.08704 172.839314 273.228985 174.697369 
C 271.370931 176.555423 270.32694 179.07584 270.32694 181.703526 
C 270.32694 184.331212 271.370931 186.851629 273.228985 188.709684 
C 275.08704 190.567738 277.607457 191.611729 280.235143 191.611729 
z
" style="fill:none;stroke:#0000ff;"/>
   </g>
   <g id="PathCollection_14">
    <path clip-path="url(#pbac91b2ed6)" d="M 290.234071 181.404269 
C 292.307569 181.404269 294.296421 180.580459 295.762605 179.114275 
C 297.228789 177.648091 298.052598 175.659239 298.052598 173.585742 
C 298.052598 171.512244 297.228789 169.523392 295.762605 168.057208 
C 294.296421 166.591024 292.307569 165.767215 290.234071 165.767215 
C 288.160574 165.767215 286.171722 166.591024 284.705538 168.057208 
C 283.239354 169.523392 282.415544 171.512244 282.415544 173.585742 
C 282.415544 175.659239 283.239354 177.648091 284.705538 179.114275 
C 286.171722 180.580459 288.160574 181.404269 290.234071 181.404269 
z
" style="fill:none;stroke:#0000ff;"/>
   </g>
   <g id="PathCollection_15">
    <path clip-path="url(#pbac91b2ed6)" d="M 332.236111 145.618365 
C 334.64479 145.618365 336.955139 144.661386 338.658333 142.958193 
C 340.361526 141.255 341.318504 138.94465 341.318504 136.535971 
C 341.318504 134.127292 340.361526 131.816942 338.658333 130.113749 
C 336.955139 128.410556 334.64479 127.453577 332.236111 127.453577 
C 329.827432 127.453577 327.517082 128.410556 325.813888 130.113749 
C 324.110695 131.816942 323.153717 134.127292 323.153717 136.535971 
C 323.153717 138.94465 324.110695 141.255 325.813888 142.958193 
C 327.517082 144.661386 329.827432 145.618365 332.236111 145.618365 
z
" style="fill:none;stroke:#0000ff;"/>
   </g>
   <g id="PathCollection_16">
    <path clip-path="url(#pbac91b2ed6)" d="M 394.9966 89.640112 
C 397.022647 89.640112 398.965985 88.835155 400.398616 87.402523 
C 401.831247 85.969892 402.636204 84.026554 402.636204 82.000508 
C 402.636204 79.974461 401.831247 78.031124 400.398616 76.598492 
C 398.965985 75.165861 397.022647 74.360904 394.9966 74.360904 
C 392.970554 74.360904 391.027216 75.165861 389.594585 76.598492 
C 388.161954 78.031124 387.356997 79.974461 387.356997 82.000508 
C 387.356997 84.026554 388.161954 85.969892 389.594585 87.402523 
C 391.027216 88.835155 392.970554 89.640112 394.9966 89.640112 
z
" style="fill:none;stroke:#0000ff;"/>
   </g>
   <g id="PathCollection_17">
    <path clip-path="url(#pbac91b2ed6)" d="M 178.732674 277.43007 
C 180.722635 277.43007 182.63136 276.63945 184.038475 275.232335 
C 185.44559 273.82522 186.23621 271.916495 186.23621 269.926534 
C 186.23621 267.936573 185.44559 266.027847 184.038475 264.620732 
C 182.63136 263.213618 180.722635 262.422998 178.732674 262.422998 
C 176.742713 262.422998 174.833987 263.213618 173.426873 264.620732 
C 172.019758 266.027847 171.229138 267.936573 171.229138 269.926534 
C 171.229138 271.916495 172.019758 273.82522 173.426873 275.232335 
C 174.833987 276.63945 176.742713 277.43007 178.732674 277.43007 
z
" style="fill:none;stroke:#0000ff;"/>
   </g>
   <g id="PathCollection_18">
    <path clip-path="url(#pbac91b2ed6)" d="M 178.716622 277.095893 
C 180.607206 277.095893 182.420611 276.344755 183.757456 275.00791 
C 185.094301 273.671066 185.845438 271.85766 185.845438 269.967076 
C 185.845438 268.076492 185.094301 266.263086 183.757456 264.926241 
C 182.420611 263.589396 180.607206 262.838259 178.716622 262.838259 
C 176.826038 262.838259 175.012632 263.589396 173.675787 264.926241 
C 172.338942 266.263086 171.587805 268.076492 171.587805 269.967076 
C 171.587805 271.85766 172.338942 273.671066 173.675787 275.00791 
C 175.012632 276.344755 176.826038 277.095893 178.716622 277.095893 
z
" style="fill:none;stroke:#0000ff;"/>
   </g>
   <g id="PathCollection_19">
    <path clip-path="url(#pbac91b2ed6)" d="M 189.983918 242.575074 
C 192.348753 242.575074 194.617048 241.635516 196.289238 239.963325 
C 197.961429 238.291135 198.900987 236.02284 198.900987 233.658005 
C 198.900987 231.293171 197.961429 229.024876 196.289238 227.352685 
C 194.617048 225.680495 192.348753 224.740936 189.983918 224.740936 
C 187.619084 224.740936 185.350789 225.680495 183.678598 227.352685 
C 182.006408 229.024876 181.066849 231.293171 181.066849 233.658005 
C 181.066849 236.02284 182.006408 238.291135 183.678598 239.963325 
C 185.350789 241.635516 187.619084 242.575074 189.983918 242.575074 
z
" style="fill:none;stroke:#0000ff;"/>
   </g>
   <g id="PathCollection_20">
    <path clip-path="url(#pbac91b2ed6)" d="M 206.1123 228.576914 
C 208.478987 228.576914 210.749059 227.636619 212.422559 225.963119 
C 214.096059 224.289619 215.036354 222.019547 215.036354 219.65286 
C 215.036354 217.286173 214.096059 215.016101 212.422559 213.342601 
C 210.749059 211.669101 208.478987 210.728806 206.1123 210.728806 
C 203.745613 210.728806 201.475541 211.669101 199.802041 213.342601 
C 198.128541 215.016101 197.188246 217.286173 197.188246 219.65286 
C 197.188246 222.019547 198.128541 224.289619 199.802041 225.963119 
C 201.475541 227.636619 203.745613 228.576914 206.1123 228.576914 
z
" style="fill:none;stroke:#0000ff;"/>
   </g>
   <g id="PathCollection_21">
    <path clip-path="url(#pbac91b2ed6)" d="M 230.169423 207.882241 
C 232.591106 207.882241 234.913929 206.920097 236.626318 205.207708 
C 238.338707 203.495319 239.300852 201.172496 239.300852 198.750813 
C 239.300852 196.329129 238.338707 194.006306 236.626318 192.293917 
C 234.913929 190.581529 232.591106 189.619384 230.169423 189.619384 
C 227.747739 189.619384 225.424916 190.581529 223.712527 192.293917 
C 222.000139 194.006306 221.037994 196.329129 221.037994 198.750813 
C 221.037994 201.172496 222.000139 203.495319 223.712527 205.207708 
C 225.424916 206.920097 227.747739 207.882241 230.169423 207.882241 
z
" style="fill:none;stroke:#0000ff;"/>
   </g>
   <g id="PathCollection_22">
    <path clip-path="url(#pbac91b2ed6)" d="M 244.302959 195.589834 
C 246.718193 195.589834 249.034831 194.630251 250.74266 192.922422 
C 252.450488 191.214594 253.410071 188.897956 253.410071 186.482722 
C 253.410071 184.067488 252.450488 181.75085 250.74266 180.043021 
C 249.034831 178.335193 246.718193 177.37561 244.302959 177.37561 
C 241.887725 177.37561 239.571087 178.335193 237.863259 180.043021 
C 236.15543 181.75085 235.195847 184.067488 235.195847 186.482722 
C 235.195847 188.897956 236.15543 191.214594 237.863259 192.922422 
C 239.571087 194.630251 241.887725 195.589834 244.302959 195.589834 
z
" style="fill:none;stroke:#0000ff;"/>
   </g>
   <g id="PathCollection_23">
    <path clip-path="url(#pbac91b2ed6)" d="M 171.267276 258.21142 
C 173.458812 258.21142 175.560883 257.340714 177.110533 255.791064 
C 178.660183 254.241414 179.530889 252.139343 179.530889 249.947807 
C 179.530889 247.756272 178.660183 245.6542 177.110533 244.104551 
C 175.560883 242.554901 173.458812 241.684194 171.267276 241.684194 
C 169.07574 241.684194 166.973669 242.554901 165.424019 244.104551 
C 163.874369 245.6542 163.003663 247.756272 163.003663 249.947807 
C 163.003663 252.139343 163.874369 254.241414 165.424019 255.791064 
C 166.973669 257.340714 169.07574 258.21142 171.267276 258.21142 
z
" style="fill:none;stroke:#0000ff;"/>
   </g>
   <g id="PathCollection_24">
    <path clip-path="url(#pbac91b2ed6)" d="M 138.422105 285.733295 
C 140.346794 285.733295 142.192913 284.968608 143.553874 283.607647 
C 144.914835 282.246686 145.679522 280.400568 145.679522 278.475878 
C 145.679522 276.551189 144.914835 274.705071 143.553874 273.34411 
C 142.192913 271.983149 140.346794 271.218462 138.422105 271.218462 
C 136.497415 271.218462 134.651297 271.983149 133.290336 273.34411 
C 131.929375 274.705071 131.164688 276.551189 131.164688 278.475878 
C 131.164688 280.400568 131.929375 282.246686 133.290336 283.607647 
C 134.651297 284.968608 136.497415 285.733295 138.422105 285.733295 
z
" style="fill:none;stroke:#0000ff;"/>
   </g>
   <g id="PathCollection_25">
    <path clip-path="url(#pbac91b2ed6)" d="M 151.216944 274.746672 
C 153.182502 274.746672 155.06782 273.965748 156.45768 272.575888 
C 157.847539 271.186029 158.628463 269.300711 158.628463 267.335153 
C 158.628463 265.369595 157.847539 263.484277 156.45768 262.094418 
C 155.06782 260.704558 153.182502 259.923634 151.216944 259.923634 
C 149.251386 259.923634 147.366068 260.704558 145.976209 262.094418 
C 144.58635 263.484277 143.805425 265.369595 143.805425 267.335153 
C 143.805425 269.300711 144.58635 271.186029 145.976209 272.575888 
C 147.366068 273.965748 149.251386 274.746672 151.216944 274.746672 
z
" style="fill:none;stroke:#0000ff;"/>
   </g>
   <g id="PathCollection_26">
    <path clip-path="url(#pbac91b2ed6)" d="M 392.022319 65.395207 
C 393.970589 65.395207 395.839325 64.621151 397.21696 63.243516 
C 398.594595 61.865881 399.368651 59.997145 399.368651 58.048874 
C 399.368651 56.100604 398.594595 54.231868 397.21696 52.854233 
C 395.839325 51.476598 393.970589 50.702542 392.022319 50.702542 
C 390.074049 50.702542 388.205312 51.476598 386.827677 52.854233 
C 385.450042 54.231868 384.675986 56.100604 384.675986 58.048874 
C 384.675986 59.997145 385.450042 61.865881 386.827677 63.243516 
C 388.205312 64.621151 390.074049 65.395207 392.022319 65.395207 
z
" style="fill:none;stroke:#0000ff;"/>
   </g>
   <g id="PathCollection_27">
    <path clip-path="url(#pbac91b2ed6)" d="M 220.11669 219.309049 
C 222.63444 219.309049 225.049408 218.308736 226.829726 216.528419 
C 228.610044 214.748101 229.610356 212.333133 229.610356 209.815383 
C 229.610356 207.297633 228.610044 204.882665 226.829726 203.102348 
C 225.049408 201.32203 222.63444 200.321717 220.11669 200.321717 
C 217.598941 200.321717 215.183973 201.32203 213.403655 203.102348 
C 211.623337 204.882665 210.623024 207.297633 210.623024 209.815383 
C 210.623024 212.333133 211.623337 214.748101 213.403655 216.528419 
C 215.183973 218.308736 217.598941 219.309049 220.11669 219.309049 
z
" style="fill:none;stroke:#0000ff;"/>
   </g>
   <g id="PathCollection_28">
    <path clip-path="url(#pbac91b2ed6)" d="M 353.494252 101.950909 
C 355.619147 101.950909 357.657299 101.106679 359.159827 99.604151 
C 360.662355 98.101623 361.506585 96.063472 361.506585 93.938576 
C 361.506585 91.813681 360.662355 89.775529 359.159827 88.273001 
C 357.657299 86.770473 355.619147 85.926243 353.494252 85.926243 
C 351.369356 85.926243 349.331205 86.770473 347.828677 88.273001 
C 346.326149 89.775529 345.481919 91.813681 345.481919 93.938576 
C 345.481919 96.063472 346.326149 98.101623 347.828677 99.604151 
C 349.331205 101.106679 351.369356 101.950909 353.494252 101.950909 
z
" style="fill:none;stroke:#0000ff;"/>
   </g>
   <g id="PathCollection_29">
    <path clip-path="url(#pbac91b2ed6)" d="M 127.247077 297.820996 
C 129.195347 297.820996 131.064083 297.04694 132.441718 295.669305 
C 133.819353 294.29167 134.593409 292.422934 134.593409 290.474664 
C 134.593409 288.526394 133.819353 286.657657 132.441718 285.280022 
C 131.064083 283.902387 129.195347 283.128331 127.247077 283.128331 
C 125.298807 283.128331 123.43007 283.902387 122.052435 285.280022 
C 120.6748 286.657657 119.900744 288.526394 119.900744 290.474664 
C 119.900744 292.422934 120.6748 294.29167 122.052435 295.669305 
C 123.43007 297.04694 125.298807 297.820996 127.247077 297.820996 
z
" style="fill:none;stroke:#0000ff;"/>
   </g>
   <g id="PathCollection_30">
    <path clip-path="url(#pbac91b2ed6)" d="M 135.272105 290.991894 
C 137.256113 290.991894 139.159129 290.203639 140.562035 288.800734 
C 141.96494 287.397828 142.753195 285.494812 142.753195 283.510804 
C 142.753195 281.526796 141.96494 279.62378 140.562035 278.220874 
C 139.159129 276.817969 137.256113 276.029714 135.272105 276.029714 
C 133.288097 276.029714 131.385081 276.817969 129.982176 278.220874 
C 128.57927 279.62378 127.791015 281.526796 127.791015 283.510804 
C 127.791015 285.494812 128.57927 287.397828 129.982176 288.800734 
C 131.385081 290.203639 133.288097 290.991894 135.272105 290.991894 
z
" style="fill:none;stroke:#0000ff;"/>
   </g>
   <g id="PathCollection_31">
    <path clip-path="url(#pbac91b2ed6)" d="M 143.612872 283.822178 
C 145.618339 283.822178 147.541937 283.025398 148.960016 281.607319 
C 150.378095 280.189239 151.174875 278.265642 151.174875 276.260175 
C 151.174875 274.254708 150.378095 272.331111 148.960016 270.913032 
C 147.541937 269.494952 145.618339 268.698172 143.612872 268.698172 
C 141.607406 268.698172 139.683808 269.494952 138.265729 270.913032 
C 136.84765 272.331111 136.05087 274.254708 136.05087 276.260175 
C 136.05087 278.265642 136.84765 280.189239 138.265729 281.607319 
C 139.683808 283.025398 141.607406 283.822178 143.612872 283.822178 
z
" style="fill:none;stroke:#0000ff;"/>
   </g>
   <g id="PathCollection_32">
    <path clip-path="url(#pbac91b2ed6)" d="M 166.450525 264.616277 
C 168.618694 264.616277 170.698352 263.754855 172.231479 262.221728 
C 173.764606 260.688601 174.626028 258.608943 174.626028 256.440774 
C 174.626028 254.272606 173.764606 252.192948 172.231479 250.659821 
C 170.698352 249.126694 168.618694 248.265272 166.450525 248.265272 
C 164.282357 248.265272 162.202699 249.126694 160.669572 250.659821 
C 159.136445 252.192948 158.275023 254.272606 158.275023 256.440774 
C 158.275023 258.608943 159.136445 260.688601 160.669572 262.221728 
C 162.202699 263.754855 164.282357 264.616277 166.450525 264.616277 
z
" style="fill:none;stroke:#0000ff;"/>
   </g>
   <g id="PathCollection_33">
    <path clip-path="url(#pbac91b2ed6)" d="M 79.299564 216.41855 
C 81.672152 216.41855 83.947885 215.475911 85.625558 213.798237 
C 87.303231 212.120564 88.245871 209.844832 88.245871 207.472244 
C 88.245871 205.099655 87.303231 202.823923 85.625558 201.14625 
C 83.947885 199.468577 81.672152 198.525937 79.299564 198.525937 
C 76.926976 198.525937 74.651244 199.468577 72.97357 201.14625 
C 71.295897 202.823923 70.353258 205.099655 70.353258 207.472244 
C 70.353258 209.844832 71.295897 212.120564 72.97357 213.798237 
C 74.651244 215.475911 76.926976 216.41855 79.299564 216.41855 
z
" style="fill:none;stroke:#0000ff;"/>
   </g>
   <g id="PathCollection_34">
    <path clip-path="url(#pbac91b2ed6)" d="M 124.362383 157.997722 
C 126.474699 157.997722 128.500786 157.15849 129.994419 155.664856 
C 131.488053 154.171223 132.327285 152.145136 132.327285 150.03282 
C 132.327285 147.920503 131.488053 145.894416 129.994419 144.400783 
C 128.500786 142.907149 126.474699 142.067917 124.362383 142.067917 
C 122.250066 142.067917 120.223979 142.907149 118.730346 144.400783 
C 117.236712 145.894416 116.39748 147.920503 116.39748 150.03282 
C 116.39748 152.145136 117.236712 154.171223 118.730346 155.664856 
C 120.223979 157.15849 122.250066 157.997722 124.362383 157.997722 
z
" style="fill:none;stroke:#0000ff;"/>
   </g>
   <g id="PathCollection_35">
    <path clip-path="url(#pbac91b2ed6)" d="M 112.771655 167.270029 
C 114.747964 167.270029 116.643594 166.484833 118.041055 165.087372 
C 119.438516 163.689911 120.223712 161.794281 120.223712 159.817972 
C 120.223712 157.841664 119.438516 155.946034 118.041055 154.548573 
C 116.643594 153.151112 114.747964 152.365916 112.771655 152.365916 
C 110.795347 152.365916 108.899717 153.151112 107.502256 154.548573 
C 106.104795 155.946034 105.319599 157.841664 105.319599 159.817972 
C 105.319599 161.794281 106.104795 163.689911 107.502256 165.087372 
C 108.899717 166.484833 110.795347 167.270029 112.771655 167.270029 
z
" style="fill:none;stroke:#0000ff;"/>
   </g>
   <g id="PathCollection_36">
    <path clip-path="url(#pbac91b2ed6)" d="M 110.696049 190.344418 
C 112.904785 190.344418 115.023355 189.466878 116.585168 187.905065 
C 118.14698 186.343253 119.024521 184.224683 119.024521 182.015946 
C 119.024521 179.807209 118.14698 177.688639 116.585168 176.126827 
C 115.023355 174.565014 112.904785 173.687474 110.696049 173.687474 
C 108.487312 173.687474 106.368742 174.565014 104.806929 176.126827 
C 103.245117 177.688639 102.367576 179.807209 102.367576 182.015946 
C 102.367576 184.224683 103.245117 186.343253 104.806929 187.905065 
C 106.368742 189.466878 108.487312 190.344418 110.696049 190.344418 
z
" style="fill:none;stroke:#0000ff;"/>
   </g>
   <g id="matplotlib.axis_1">
    <g id="xtick_1">
     <g id="line2d_1">
      <defs>
       <path d="M 0 0 
L 0 3.5 
" id="m078b998b97" style="stroke:#000000;stroke-width:0.8;"/>
      </defs>
      <g>
       <use style="stroke:#000000;stroke-width:0.8;" x="102.577538" xlink:href="#m078b998b97" y="307.584"/>
      </g>
     </g>
     <g id="text_1">
      <!-- 4.5 -->
      <defs>
       <path d="M 35.359375 22.953125 
L 46.78125 22.953125 
L 46.78125 20.21875 
L 35.359375 20.21875 
L 35.359375 14.65625 
Q 35.453125 10.15625 42.28125 10.15625 
L 42.28125 7.421875 
L 21.484375 7.421875 
L 21.484375 10.15625 
Q 28.328125 10.15625 28.328125 14.65625 
L 28.328125 20.21875 
L 3.21875 20.21875 
L 3.21875 23.640625 
L 32.125 67.78125 
L 35.359375 67.78125 
z
M 28.328125 22.953125 
L 28.328125 56.9375 
L 6.453125 22.953125 
z
" id="UKaiTW-34"/>
       <path d="M 22.171875 4.390625 
Q 18.171875 8.40625 18.171875 11.234375 
Q 18.171875 14.0625 20.171875 16.0625 
Q 22.171875 18.0625 25 18.0625 
Q 27.828125 18.0625 29.828125 16.0625 
Q 31.84375 14.0625 31.84375 11.234375 
Q 31.84375 8.40625 29.828125 6.390625 
Q 27.828125 4.390625 25 4.390625 
Q 22.171875 4.390625 18.171875 8.40625 
z
" id="UKaiTW-2e"/>
       <path d="M 42 67.78125 
L 39.84375 62.890625 
L 13.28125 62.890625 
L 13.28125 40.4375 
Q 19.34375 43.953125 26.765625 43.953125 
Q 33.796875 43.953125 38.671875 39.75 
Q 45.3125 34.1875 45.3125 24.125 
Q 45.3125 15.71875 39.0625 10.84375 
Q 33.40625 6.453125 25.203125 6.453125 
Q 17 6.453125 9.96875 11.140625 
Q 4.6875 14.546875 4.6875 18.265625 
Q 4.6875 20.609375 6.25 22.078125 
Q 7.421875 23.34375 9.578125 23.34375 
Q 11.625 23.34375 13.09375 21.6875 
Q 14.65625 20.125 14.65625 18.265625 
Q 14.65625 17.484375 13.875 16.890625 
Q 13.09375 16.21875 13.28125 15.53125 
Q 13.765625 13.96875 16.40625 12.3125 
Q 21.484375 9.1875 25.203125 9.1875 
Q 29.5 9.1875 33.40625 12.703125 
Q 37.890625 16.796875 37.890625 24.125 
Q 37.890625 32.8125 32.8125 37.703125 
Q 29.296875 41.21875 24.21875 41.21875 
Q 18.171875 41.21875 11.140625 36.625 
L 10.15625 37.890625 
L 10.15625 67.78125 
z
" id="UKaiTW-35"/>
      </defs>
      <g transform="translate(92.077538 324.209)scale(0.14 -0.14)">
       <use xlink:href="#UKaiTW-34"/>
       <use x="50" xlink:href="#UKaiTW-2e"/>
       <use x="100" xlink:href="#UKaiTW-35"/>
      </g>
     </g>
    </g>
    <g id="xtick_2">
     <g id="line2d_2">
      <g>
       <use style="stroke:#000000;stroke-width:0.8;" x="158.549436" xlink:href="#m078b998b97" y="307.584"/>
      </g>
     </g>
     <g id="text_2">
      <!-- 5.0 -->
      <defs>
       <path d="M 45.125 23.640625 
Q 33.5 6.453125 25 6.453125 
Q 16.5 6.453125 10.6875 15.046875 
Q 4.890625 23.640625 4.890625 36.421875 
Q 4.890625 48.828125 9.859375 58.015625 
Q 15.625 68.65625 25 68.65625 
Q 34.375 68.65625 40.140625 58.015625 
Q 45.125 48.828125 45.125 36.421875 
Q 45.125 23.640625 33.5 6.453125 
z
M 12.3125 20.90625 
Q 19.734375 9.1875 25 9.1875 
Q 30.28125 9.1875 33.984375 15.046875 
Q 37.703125 20.90625 37.703125 36.421875 
Q 37.703125 50.59375 33.40625 59.578125 
Q 30.375 65.921875 25 65.921875 
Q 19.625 65.921875 16.609375 59.578125 
Q 12.3125 50.59375 12.3125 36.421875 
Q 12.3125 20.90625 19.734375 9.1875 
z
" id="UKaiTW-30"/>
      </defs>
      <g transform="translate(148.049436 324.209)scale(0.14 -0.14)">
       <use xlink:href="#UKaiTW-35"/>
       <use x="50" xlink:href="#UKaiTW-2e"/>
       <use x="100" xlink:href="#UKaiTW-30"/>
      </g>
     </g>
    </g>
    <g id="xtick_3">
     <g id="line2d_3">
      <g>
       <use style="stroke:#000000;stroke-width:0.8;" x="214.521335" xlink:href="#m078b998b97" y="307.584"/>
      </g>
     </g>
     <g id="text_3">
      <!-- 5.5 -->
      <g transform="translate(204.021335 324.209)scale(0.14 -0.14)">
       <use xlink:href="#UKaiTW-35"/>
       <use x="50" xlink:href="#UKaiTW-2e"/>
       <use x="100" xlink:href="#UKaiTW-35"/>
      </g>
     </g>
    </g>
    <g id="xtick_4">
     <g id="line2d_4">
      <g>
       <use style="stroke:#000000;stroke-width:0.8;" x="270.493234" xlink:href="#m078b998b97" y="307.584"/>
      </g>
     </g>
     <g id="text_4">
      <!-- 6.0 -->
      <defs>
       <path d="M 12.015625 58.890625 
Q 18.453125 68.65625 28.21875 68.65625 
Q 34.078125 68.65625 38.1875 65.53125 
Q 42.96875 61.921875 42.96875 57.90625 
Q 42.96875 55.859375 41.3125 54.390625 
Q 39.546875 53.328125 38.28125 53.328125 
Q 36.625 53.328125 35.25 54.59375 
Q 33.6875 56.0625 33.6875 57.90625 
Q 33.6875 59.578125 34.578125 60.546875 
Q 35.15625 61.234375 33.296875 63.484375 
Q 31.25 65.921875 28.328125 65.921875 
Q 22.171875 65.921875 17.671875 58.59375 
Q 12.890625 50.875 12.3125 38.578125 
Q 20.40625 45.3125 27.828125 45.3125 
Q 34.671875 45.3125 39.453125 41.015625 
Q 45.125 35.9375 45.125 25.484375 
Q 45.125 17 39.0625 11.53125 
Q 33.40625 6.453125 24.90625 6.453125 
Q 16.5 6.453125 10.546875 13.765625 
Q 4.78125 20.90625 4.78125 32.625 
Q 4.78125 47.953125 12.015625 58.890625 
z
M 12.203125 32.625 
Q 12.203125 20.015625 15.828125 14.65625 
Q 19.53125 9.1875 24.90625 9.1875 
Q 31.0625 9.1875 34.1875 12.984375 
Q 37.703125 17.28125 37.703125 25.484375 
Q 37.703125 34.46875 34.578125 37.890625 
Q 31.25 41.5 25.984375 41.5 
Q 21 41.5 12.203125 35.15625 
z
" id="UKaiTW-36"/>
      </defs>
      <g transform="translate(259.999796 324.209)scale(0.14 -0.14)">
       <use xlink:href="#UKaiTW-36"/>
       <use x="49.902344" xlink:href="#UKaiTW-2e"/>
       <use x="99.902344" xlink:href="#UKaiTW-30"/>
      </g>
     </g>
    </g>
    <g id="xtick_5">
     <g id="line2d_5">
      <g>
       <use style="stroke:#000000;stroke-width:0.8;" x="326.465132" xlink:href="#m078b998b97" y="307.584"/>
      </g>
     </g>
     <g id="text_5">
      <!-- 6.5 -->
      <g transform="translate(315.971695 324.209)scale(0.14 -0.14)">
       <use xlink:href="#UKaiTW-36"/>
       <use x="49.902344" xlink:href="#UKaiTW-2e"/>
       <use x="99.902344" xlink:href="#UKaiTW-35"/>
      </g>
     </g>
    </g>
    <g id="xtick_6">
     <g id="line2d_6">
      <g>
       <use style="stroke:#000000;stroke-width:0.8;" x="382.437031" xlink:href="#m078b998b97" y="307.584"/>
      </g>
     </g>
     <g id="text_6">
      <!-- 7.0 -->
      <defs>
       <path d="M 24.515625 10.15625 
Q 24.515625 8.59375 23.4375 7.515625 
Q 22.359375 6.453125 20.796875 6.453125 
Q 19.234375 6.453125 18.15625 7.515625 
Q 17.09375 8.59375 17.09375 10.15625 
Q 17.09375 23.34375 21.578125 34.578125 
Q 25.6875 44.4375 40.234375 62.890625 
L 29.984375 62.890625 
Q 20.703125 62.890625 16.109375 60.359375 
Q 12.5 58.296875 7.125 47.171875 
L 4.890625 48.828125 
L 10.359375 67.78125 
L 45.125 67.78125 
L 45.125 65.046875 
Q 33.203125 49.703125 29.109375 39.359375 
Q 24.515625 27.828125 24.515625 10.15625 
z
" id="UKaiTW-37"/>
      </defs>
      <g transform="translate(371.937031 324.209)scale(0.14 -0.14)">
       <use xlink:href="#UKaiTW-37"/>
       <use x="50" xlink:href="#UKaiTW-2e"/>
       <use x="100" xlink:href="#UKaiTW-30"/>
      </g>
     </g>
    </g>
    <g id="text_7">
     <!-- log(orbit_major,10) -->
     <defs>
      <path d="M 28.515625 15.234375 
Q 28.515625 10.15625 34.96875 10.15625 
L 39.84375 10.15625 
L 39.84375 7.421875 
L 10.25 7.421875 
L 10.25 10.15625 
L 15.140625 10.15625 
Q 21.578125 10.15625 21.578125 15.234375 
L 21.578125 58.40625 
Q 21.578125 60.359375 10.25 60.359375 
L 10.25 63.09375 
Q 20.515625 63.09375 25.78125 68.75 
L 28.515625 68.75 
z
" id="UKaiTW-6c"/>
      <path d="M 19.53125 45.515625 
Q 11.8125 34.859375 11.8125 27.34375 
Q 11.8125 19.828125 15.671875 14.5 
Q 19.53125 9.1875 25 9.1875 
Q 30.46875 9.1875 34.328125 14.5 
Q 38.1875 19.828125 38.1875 27.34375 
Q 38.1875 34.859375 34.328125 40.1875 
Q 30.46875 45.515625 25 45.515625 
Q 19.53125 45.515625 11.8125 34.859375 
z
M 16.703125 6.453125 
Q 4.890625 18.65625 4.890625 27.34375 
Q 4.890625 36.03125 10.796875 42.140625 
Q 16.703125 48.25 25 48.25 
Q 33.296875 48.25 39.203125 42.140625 
Q 45.125 36.03125 45.125 27.34375 
Q 45.125 18.65625 39.203125 12.546875 
Q 33.296875 6.453125 25 6.453125 
Q 16.703125 6.453125 4.890625 18.65625 
z
" id="UKaiTW-6f"/>
      <path d="M 22.859375 -4.203125 
Q 15.234375 -4.203125 10.640625 -2.734375 
Q 5.078125 -0.984375 5.078125 3.03125 
Q 5.078125 6.9375 9.46875 10.75 
Q 10.640625 11.71875 12.796875 12.890625 
Q 10.84375 13.484375 10.359375 13.765625 
Q 7.03125 15.625 7.03125 17.78125 
Q 7.03125 20.125 10.75 22.265625 
Q 13.1875 23.734375 15.234375 24.21875 
Q 12.890625 25.09375 11.140625 26.375 
Q 6.25 29.78125 6.25 35.75 
Q 6.25 41.109375 10.84375 44.921875 
Q 14.9375 48.34375 20.3125 48.34375 
Q 24.515625 48.34375 30.859375 45.796875 
Q 33.40625 46.875 34.859375 47.265625 
Q 37.703125 48.53125 39.453125 48.53125 
Q 41.40625 48.53125 42.671875 47.46875 
Q 45.015625 45.515625 45.015625 43.75 
Q 45.015625 42 44.234375 41.015625 
Q 43.453125 40.046875 42.671875 40.046875 
Q 40.828125 40.046875 39.265625 41.890625 
Q 37.703125 43.75 35.25 43.75 
Q 34.671875 43.75 33.984375 43.5625 
Q 38.09375 39.9375 38.09375 34.859375 
Q 38.09375 29.78125 32.90625 26.40625 
Q 27.734375 23.046875 21.6875 23.046875 
Q 20.21875 23.046875 19.234375 23.25 
Q 15.046875 21.296875 15.046875 19.734375 
Q 15.046875 18.265625 25.296875 19.4375 
Q 31.453125 20.125 37.984375 16.5 
Q 43.953125 12.890625 43.953125 6.734375 
Q 43.953125 1.953125 38.96875 -1.171875 
Q 34.078125 -4.203125 22.859375 -4.203125 
z
M 35.453125 10.0625 
Q 32.421875 12.015625 25.296875 12.015625 
Q 20.3125 12.015625 17 12.3125 
Q 15.921875 11.921875 15.328125 11.328125 
Q 12.5 8.796875 12.5 5.765625 
Q 12.5 2.9375 15.921875 1.265625 
Q 19.34375 -0.390625 26.765625 -0.390625 
Q 31.9375 -0.390625 34.96875 1.46875 
Q 38.28125 3.515625 38.28125 5.859375 
Q 38.28125 8.203125 35.453125 10.0625 
z
M 13.671875 39.359375 
Q 13.671875 33.296875 16.5 29.296875 
Q 18.953125 25.875 23.046875 25.875 
Q 25.6875 25.875 27.828125 27.4375 
Q 30.671875 29.5 30.671875 31.84375 
Q 30.671875 37.890625 26.171875 42.28125 
Q 23.140625 45.21875 19.34375 45.21875 
Q 17.484375 45.21875 15.828125 43.65625 
Q 13.671875 41.703125 13.671875 39.359375 
z
" id="UKaiTW-67"/>
      <path d="M 37.890625 82.421875 
L 37.890625 80.28125 
Q 27.9375 71.09375 24.421875 62.59375 
Q 19.53125 51.46875 19.53125 37.890625 
Q 19.53125 25.09375 23.4375 15.625 
Q 27.546875 5.375 37.890625 -4.390625 
L 37.890625 -6.640625 
Q 24.421875 2.734375 17.96875 14.15625 
Q 12.109375 24.21875 12.109375 37.890625 
Q 12.109375 51.5625 18.5625 63.578125 
Q 24.21875 74.03125 37.890625 82.421875 
z
" id="UKaiTW-28"/>
      <path d="M 43.84375 44.34375 
Q 45.125 43.0625 45.125 41.203125 
Q 45.125 39.359375 43.84375 38.078125 
Q 42.578125 36.8125 40.71875 36.8125 
Q 38.375 36.8125 37.59375 38.09375 
Q 35.0625 42.28125 32.125 42.28125 
Q 29.203125 42.28125 25.390625 40.140625 
Q 22.171875 38.28125 18.5625 34.1875 
L 18.5625 15.234375 
Q 18.5625 10.15625 25 10.15625 
L 25 7.421875 
L 5.171875 7.421875 
L 5.171875 10.15625 
Q 11.625 10.15625 11.625 15.234375 
L 11.625 35.0625 
Q 11.625 40.046875 5.28125 40.046875 
L 5.28125 42.1875 
L 16.40625 47.359375 
L 18.5625 47.359375 
L 18.5625 37.5 
Q 21.875 42 25.59375 44.53125 
Q 31.0625 48.34375 34.671875 48.34375 
Q 40.53125 48.34375 43.84375 44.34375 
z
" id="UKaiTW-72"/>
      <path d="M 9.765625 10.75 
L 9.765625 56.453125 
Q 9.765625 61.421875 3.421875 61.421875 
L 3.421875 63.578125 
L 14.546875 68.75 
L 16.703125 68.75 
L 16.703125 43.265625 
Q 22.359375 48.25 27.9375 48.25 
Q 34.765625 48.25 40.671875 42.140625 
Q 46.578125 36.03125 46.578125 27.34375 
Q 46.578125 18.65625 40.671875 12.546875 
Q 34.765625 6.453125 26.46875 6.453125 
Q 14.65625 6.453125 9.765625 10.75 
z
M 16.703125 40.046875 
L 16.703125 12.59375 
Q 20.609375 9.1875 26.265625 9.1875 
Q 31.9375 9.1875 35.796875 14.5 
Q 39.65625 19.828125 39.65625 27.34375 
Q 39.65625 34.859375 35.796875 40.1875 
Q 31.9375 45.515625 26.46875 45.515625 
Q 22.859375 45.40625 16.703125 40.046875 
z
" id="UKaiTW-62"/>
      <path d="M 22.5625 56.015625 
Q 19.140625 59.4375 19.140625 61.875 
Q 19.140625 64.3125 20.84375 66.015625 
Q 22.5625 67.734375 25 67.734375 
Q 27.4375 67.734375 29.140625 66.015625 
Q 30.859375 64.3125 30.859375 61.875 
Q 30.859375 59.4375 29.140625 57.71875 
Q 27.4375 56.015625 25 56.015625 
Q 22.5625 56.015625 19.140625 59.4375 
z
M 28.515625 15.234375 
Q 28.515625 10.15625 34.96875 10.15625 
L 39.84375 10.15625 
L 39.84375 7.421875 
L 10.25 7.421875 
L 10.25 10.15625 
L 15.140625 10.15625 
Q 21.578125 10.15625 21.578125 15.234375 
L 21.578125 37.984375 
Q 21.578125 39.9375 10.25 39.9375 
L 10.25 42.671875 
Q 20.515625 42.671875 25.78125 48.34375 
L 28.515625 48.34375 
z
" id="UKaiTW-69"/>
      <path d="M 18.171875 44.625 
L 4.59375 44.625 
L 4.59375 47.359375 
Q 14.9375 47.359375 18.453125 51.265625 
Q 22.5625 55.859375 22.5625 61.8125 
L 25.09375 61.8125 
L 25.09375 47.359375 
L 42.671875 47.359375 
L 41.609375 44.625 
L 25.09375 44.625 
L 25.09375 17.390625 
Q 25.09375 14.75 26.765625 12.59375 
Q 28.125 10.84375 31.734375 10.84375 
Q 35.0625 10.84375 37.703125 13.375 
Q 41.3125 16.890625 42.671875 20.40625 
L 45.515625 19.234375 
Q 42.484375 11.921875 38.875 9.375 
Q 34.765625 6.453125 29.390625 6.453125 
Q 24.515625 6.453125 21.390625 9.28125 
Q 18.171875 12.203125 18.171875 17.390625 
z
" id="UKaiTW-74"/>
      <path d="M 0 -6.25 
L 50 -6.25 
L 50 -10.546875 
L 0 -10.546875 
z
" id="UKaiTW-5f"/>
      <path d="M 11.234375 42.671875 
Q 14.84375 48.34375 21 48.34375 
Q 23.828125 48.34375 26.265625 46.09375 
Q 27.640625 44.734375 28.21875 42.671875 
Q 32.03125 48.34375 38.28125 48.34375 
Q 41.109375 48.34375 43.5625 46.09375 
Q 45.796875 43.953125 45.796875 39.75 
L 45.796875 13.28125 
Q 45.796875 10.15625 48.34375 10.15625 
L 48.34375 7.421875 
L 36.328125 7.421875 
L 36.328125 10.15625 
Q 38.875 10.15625 38.875 13.28125 
L 38.875 39.75 
Q 38.875 44.4375 36.140625 44.4375 
Q 31.453125 44.4375 28.515625 39.15625 
L 28.515625 13.28125 
Q 28.515625 10.15625 31.0625 10.15625 
L 31.0625 7.421875 
L 19.046875 7.421875 
L 19.046875 10.15625 
Q 21.578125 10.15625 21.578125 13.28125 
L 21.578125 39.75 
Q 21.578125 44.4375 18.84375 44.4375 
Q 14.15625 44.4375 11.234375 38.375 
L 11.234375 13.28125 
Q 11.234375 10.15625 13.765625 10.15625 
L 13.765625 7.421875 
L 1.765625 7.421875 
L 1.765625 10.15625 
Q 4.296875 10.15625 4.296875 13.28125 
L 4.296875 37.015625 
Q 4.296875 40.046875 1.765625 40.046875 
L 1.765625 42.1875 
L 9.078125 47.359375 
L 11.234375 47.359375 
z
" id="UKaiTW-6d"/>
      <path d="M 39.9375 12.59375 
Q 39.9375 10.84375 41.703125 10.84375 
Q 43.265625 10.84375 45.125 12.703125 
L 46.78125 10.546875 
Q 42.671875 6.453125 38.1875 6.453125 
Q 35.75 6.453125 34.578125 7.625 
Q 33.015625 9.1875 33.015625 11.234375 
L 33.015625 11.8125 
Q 30.859375 10.15625 29.296875 9.375 
Q 23.140625 6.453125 16.015625 6.453125 
Q 11.328125 6.453125 7.515625 9.28125 
Q 3.328125 12.40625 3.328125 17.875 
Q 3.328125 24.03125 9.765625 27.640625 
Q 15.71875 30.953125 25.484375 30.953125 
Q 29.203125 30.953125 33.015625 29.6875 
L 33.015625 37.703125 
Q 33.015625 41.40625 30.171875 43.65625 
Q 27.734375 45.609375 24.421875 45.609375 
Q 22.46875 45.609375 20.171875 44.328125 
Q 17.875 43.0625 17.875 39.75 
Q 17.875 37.3125 16.109375 36.421875 
Q 14.15625 35.453125 12.890625 35.453125 
Q 10.84375 35.453125 9.859375 36.625 
Q 8.40625 38.28125 8.40625 39.75 
Q 8.40625 43.453125 12.703125 45.796875 
Q 17.390625 48.34375 23.734375 48.34375 
Q 30.5625 48.34375 35.25 44.625 
Q 39.9375 40.921875 39.9375 35.0625 
z
M 30.765625 27.9375 
Q 21 27.9375 15.4375 24.90625 
Q 10.25 22.078125 10.25 17.875 
Q 10.25 15.4375 12.203125 12.703125 
Q 13.96875 10.25 19.625 10.25 
Q 24.3125 10.25 28.21875 12.5 
Q 30.671875 13.96875 33.015625 16.015625 
L 33.015625 27.640625 
z
" id="UKaiTW-61"/>
      <path d="M 36.1875 56.015625 
Q 32.765625 59.4375 32.765625 61.875 
Q 32.765625 64.3125 34.46875 66.015625 
Q 36.1875 67.734375 38.625 67.734375 
Q 41.0625 67.734375 42.765625 66.015625 
Q 44.484375 64.3125 44.484375 61.875 
Q 44.484375 59.4375 42.765625 57.71875 
Q 41.0625 56.015625 38.625 56.015625 
Q 36.1875 56.015625 32.765625 59.4375 
z
M 42.09375 48.34375 
L 42.09375 10.75 
Q 42.09375 3.21875 37.3125 -1.171875 
Q 32.421875 -5.671875 22.65625 -5.671875 
Q 15.71875 -5.671875 9.859375 -1.171875 
Q 3.90625 3.421875 3.90625 10.9375 
Q 3.90625 15.328125 5.765625 17.46875 
Q 7.625 19.625 11.140625 19.625 
Q 12.890625 19.625 14.15625 18.0625 
Q 15.234375 16.703125 15.234375 15.140625 
Q 15.234375 13.09375 13.28125 10.9375 
Q 11.421875 8.890625 11.421875 6.734375 
Q 11.421875 2.828125 14.5 -0.046875 
Q 17.578125 -2.9375 22.65625 -2.9375 
Q 29.203125 -2.9375 32.234375 1.171875 
Q 35.15625 5.375 35.15625 11.921875 
L 35.15625 37.984375 
Q 35.15625 39.9375 23.828125 39.9375 
L 23.828125 42.671875 
Q 34.078125 42.671875 39.359375 48.34375 
z
" id="UKaiTW-6a"/>
      <path d="M 31.84375 11.234375 
Q 31.84375 5.765625 27.9375 1.953125 
Q 24.03125 -1.859375 17.09375 -4 
L 15.828125 -1.46875 
Q 19.734375 -0.203125 22.46875 1.5625 
Q 25 3.125 25 4.390625 
Q 22.171875 4.390625 20.171875 6.390625 
Q 18.171875 8.40625 18.171875 11.234375 
Q 18.171875 14.0625 20.171875 16.0625 
Q 22.171875 18.0625 25 18.0625 
Q 27.828125 18.0625 29.828125 16.0625 
Q 31.84375 14.0625 31.84375 11.234375 
z
" id="UKaiTW-2c"/>
      <path d="M 28.515625 67.78125 
L 28.515625 15.53125 
Q 28.515625 10.15625 39.265625 10.15625 
L 39.265625 7.421875 
L 10.75 7.421875 
L 10.75 10.15625 
Q 21.484375 10.15625 21.484375 15.53125 
L 21.484375 56.734375 
Q 21.484375 61.421875 10.9375 61.421875 
L 10.9375 63.578125 
L 27.4375 67.78125 
z
" id="UKaiTW-31"/>
      <path d="M 12.109375 82.421875 
Q 25.78125 74.03125 31.453125 63.578125 
Q 37.890625 51.5625 37.890625 37.890625 
Q 37.890625 24.21875 32.03125 14.15625 
Q 25.59375 2.734375 12.109375 -6.640625 
L 12.109375 -4.390625 
Q 22.46875 5.375 26.5625 15.625 
Q 30.46875 25.09375 30.46875 37.890625 
Q 30.46875 51.46875 25.59375 62.59375 
Q 22.078125 71.09375 12.109375 80.28125 
z
" id="UKaiTW-29"/>
     </defs>
     <g transform="translate(169.66 340.542125)scale(0.14 -0.14)">
      <use xlink:href="#UKaiTW-6c"/>
      <use x="50" xlink:href="#UKaiTW-6f"/>
      <use x="100" xlink:href="#UKaiTW-67"/>
      <use x="150" xlink:href="#UKaiTW-28"/>
      <use x="200" xlink:href="#UKaiTW-6f"/>
      <use x="250" xlink:href="#UKaiTW-72"/>
      <use x="300" xlink:href="#UKaiTW-62"/>
      <use x="350" xlink:href="#UKaiTW-69"/>
      <use x="400" xlink:href="#UKaiTW-74"/>
      <use x="450" xlink:href="#UKaiTW-5f"/>
      <use x="500" xlink:href="#UKaiTW-6d"/>
      <use x="550" xlink:href="#UKaiTW-61"/>
      <use x="600" xlink:href="#UKaiTW-6a"/>
      <use x="650" xlink:href="#UKaiTW-6f"/>
      <use x="700" xlink:href="#UKaiTW-72"/>
      <use x="750" xlink:href="#UKaiTW-2c"/>
      <use x="800" xlink:href="#UKaiTW-31"/>
      <use x="850" xlink:href="#UKaiTW-30"/>
      <use x="900" xlink:href="#UKaiTW-29"/>
     </g>
    </g>
   </g>
   <g id="matplotlib.axis_2">
    <g id="ytick_1">
     <g id="line2d_7">
      <defs>
       <path d="M 0 0 
L -3.5 0 
" id="mc182d83489" style="stroke:#000000;stroke-width:0.8;"/>
      </defs>
      <g>
       <use style="stroke:#000000;stroke-width:0.8;" x="57.6" xlink:href="#mc182d83489" y="292.098391"/>
      </g>
     </g>
     <g id="text_8">
      <!-- âˆ’0.5 -->
      <defs>
       <path d="M 8.6875 0 
L 8.6875 65.234375 
L 41.3125 65.234375 
L 41.3125 0 
z
M 11.921875 3.21875 
L 38.09375 3.21875 
L 38.09375 62.015625 
L 11.921875 62.015625 
z
" id="UKaiTW-2212"/>
      </defs>
      <g transform="translate(22.6 296.910891)scale(0.14 -0.14)">
       <use xlink:href="#UKaiTW-2212"/>
       <use x="50" xlink:href="#UKaiTW-30"/>
       <use x="100" xlink:href="#UKaiTW-2e"/>
       <use x="150" xlink:href="#UKaiTW-35"/>
      </g>
     </g>
    </g>
    <g id="ytick_2">
     <g id="line2d_8">
      <g>
       <use style="stroke:#000000;stroke-width:0.8;" x="57.6" xlink:href="#mc182d83489" y="259.681955"/>
      </g>
     </g>
     <g id="text_9">
      <!-- 0.0 -->
      <g transform="translate(29.6 264.494455)scale(0.14 -0.14)">
       <use xlink:href="#UKaiTW-30"/>
       <use x="50" xlink:href="#UKaiTW-2e"/>
       <use x="100" xlink:href="#UKaiTW-30"/>
      </g>
     </g>
    </g>
    <g id="ytick_3">
     <g id="line2d_9">
      <g>
       <use style="stroke:#000000;stroke-width:0.8;" x="57.6" xlink:href="#mc182d83489" y="227.265519"/>
      </g>
     </g>
     <g id="text_10">
      <!-- 0.5 -->
      <g transform="translate(29.6 232.078019)scale(0.14 -0.14)">
       <use xlink:href="#UKaiTW-30"/>
       <use x="50" xlink:href="#UKaiTW-2e"/>
       <use x="100" xlink:href="#UKaiTW-35"/>
      </g>
     </g>
    </g>
    <g id="ytick_4">
     <g id="line2d_10">
      <g>
       <use style="stroke:#000000;stroke-width:0.8;" x="57.6" xlink:href="#mc182d83489" y="194.849084"/>
      </g>
     </g>
     <g id="text_11">
      <!-- 1.0 -->
      <g transform="translate(29.6 199.661584)scale(0.14 -0.14)">
       <use xlink:href="#UKaiTW-31"/>
       <use x="50" xlink:href="#UKaiTW-2e"/>
       <use x="100" xlink:href="#UKaiTW-30"/>
      </g>
     </g>
    </g>
    <g id="ytick_5">
     <g id="line2d_11">
      <g>
       <use style="stroke:#000000;stroke-width:0.8;" x="57.6" xlink:href="#mc182d83489" y="162.432648"/>
      </g>
     </g>
     <g id="text_12">
      <!-- 1.5 -->
      <g transform="translate(29.6 167.245148)scale(0.14 -0.14)">
       <use xlink:href="#UKaiTW-31"/>
       <use x="50" xlink:href="#UKaiTW-2e"/>
       <use x="100" xlink:href="#UKaiTW-35"/>
      </g>
     </g>
    </g>
    <g id="ytick_6">
     <g id="line2d_12">
      <g>
       <use style="stroke:#000000;stroke-width:0.8;" x="57.6" xlink:href="#mc182d83489" y="130.016212"/>
      </g>
     </g>
     <g id="text_13">
      <!-- 2.0 -->
      <defs>
       <path d="M 29 33.015625 
Q 18.5625 26.375 13.875 20.21875 
Q 10.75 16.796875 9.859375 11.8125 
L 27.734375 11.8125 
Q 37.3125 11.8125 43.0625 19.734375 
L 44.734375 18.953125 
L 40.53125 7.421875 
L 4.6875 7.421875 
Q 4.6875 15.234375 8.890625 20.3125 
Q 13.578125 27.25 25.484375 35.640625 
Q 37.890625 44.4375 37.890625 51.859375 
Q 37.890625 58.203125 33.296875 62.59375 
Q 29.78125 65.921875 25.09375 65.921875 
Q 20.515625 65.921875 16.890625 63.234375 
Q 13.28125 60.546875 13.28125 58.6875 
Q 13.28125 56.9375 14.0625 55.859375 
Q 15.4375 54 15.4375 51.765625 
Q 15.4375 50.59375 14.0625 49.125 
Q 12.703125 47.65625 10.640625 47.65625 
Q 8.203125 47.65625 6.640625 49.125 
Q 4.890625 50.78125 4.890625 53.21875 
Q 4.890625 59.1875 11.140625 64.15625 
Q 16.609375 68.65625 25.203125 68.65625 
Q 33.796875 68.65625 39.65625 63.875 
Q 45.3125 59.28125 45.3125 51.859375 
Q 45.3125 43.359375 29 33.015625 
z
" id="UKaiTW-32"/>
      </defs>
      <g transform="translate(29.6 134.828712)scale(0.14 -0.14)">
       <use xlink:href="#UKaiTW-32"/>
       <use x="50" xlink:href="#UKaiTW-2e"/>
       <use x="100" xlink:href="#UKaiTW-30"/>
      </g>
     </g>
    </g>
    <g id="ytick_7">
     <g id="line2d_13">
      <g>
       <use style="stroke:#000000;stroke-width:0.8;" x="57.6" xlink:href="#mc182d83489" y="97.599777"/>
      </g>
     </g>
     <g id="text_14">
      <!-- 2.5 -->
      <g transform="translate(29.6 102.412277)scale(0.14 -0.14)">
       <use xlink:href="#UKaiTW-32"/>
       <use x="50" xlink:href="#UKaiTW-2e"/>
       <use x="100" xlink:href="#UKaiTW-35"/>
      </g>
     </g>
    </g>
    <g id="ytick_8">
     <g id="line2d_14">
      <g>
       <use style="stroke:#000000;stroke-width:0.8;" x="57.6" xlink:href="#mc182d83489" y="65.183341"/>
      </g>
     </g>
     <g id="text_15">
      <!-- 3.0 -->
      <defs>
       <path d="M 44.921875 22.859375 
Q 44.921875 14.9375 38.96875 10.546875 
Q 33.40625 6.453125 25.6875 6.453125 
Q 16.21875 6.453125 10.359375 11.234375 
Q 5.078125 15.53125 5.078125 21 
Q 5.078125 23.34375 6.640625 24.90625 
Q 8.203125 26.375 10.359375 26.375 
Q 12.015625 26.375 13.484375 24.90625 
Q 14.9375 23.4375 14.9375 21 
Q 14.9375 19.828125 14.0625 18.953125 
Q 13.484375 18.359375 13.1875 16.703125 
Q 12.984375 15.71875 16.796875 12.3125 
Q 20.3125 9.1875 25.6875 9.1875 
Q 29.78125 9.1875 33.984375 12.59375 
Q 37.5 15.4375 37.5 22.859375 
Q 37.5 29.984375 33.890625 33.296875 
Q 31.25 35.75 25.875 35.75 
L 21 35.75 
L 21 39.65625 
L 25.875 39.65625 
Q 28.8125 39.65625 31.546875 42.578125 
Q 35.546875 46.875 35.546875 53.328125 
Q 35.546875 59.765625 32.125 62.984375 
Q 29 65.921875 25.09375 65.921875 
Q 19.921875 65.921875 17 62.109375 
Q 14.359375 58.6875 15.53125 57.421875 
Q 17.09375 55.765625 17.09375 53.90625 
Q 17.09375 51.46875 15.71875 49.90625 
Q 14.359375 48.34375 12.203125 48.34375 
Q 10.25 48.34375 8.796875 49.90625 
Q 7.234375 51.5625 7.234375 53.90625 
Q 7.234375 59.28125 12.984375 64.453125 
Q 17.671875 68.65625 25.09375 68.65625 
Q 32.515625 68.65625 37.734375 64.640625 
Q 42.96875 60.640625 42.96875 53.328125 
Q 42.96875 44.234375 33.984375 39.75 
Q 32.421875 38.96875 31.25 38.28125 
Q 33.109375 37.796875 35.15625 37.109375 
Q 44.921875 33.6875 44.921875 22.859375 
z
" id="UKaiTW-33"/>
      </defs>
      <g transform="translate(29.6 69.995841)scale(0.14 -0.14)">
       <use xlink:href="#UKaiTW-33"/>
       <use x="50" xlink:href="#UKaiTW-2e"/>
       <use x="100" xlink:href="#UKaiTW-30"/>
      </g>
     </g>
    </g>
    <g id="text_16">
     <!-- log(rev_cycle,10) -->
     <defs>
      <path d="M 12.109375 31.34375 
L 37.890625 31.34375 
Q 37.109375 36.328125 34.375 40.234375 
Q 30.46875 45.515625 25 45.515625 
Q 19.53125 45.515625 15.625 40.234375 
Q 12.890625 36.328125 12.109375 31.34375 
z
M 42.390625 20.21875 
L 44.828125 19.4375 
Q 43.265625 15.625 40.140625 12.5 
Q 34.078125 6.453125 25.203125 6.453125 
Q 16.703125 6.453125 10.75 12.5 
Q 4.890625 18.453125 4.890625 27.34375 
Q 4.890625 36.03125 10.75 42.1875 
Q 16.5 48.25 25 48.25 
Q 33.296875 48.25 39.265625 42.1875 
Q 44.53125 36.71875 45.125 28.609375 
L 11.8125 28.609375 
Q 11.8125 28.03125 11.8125 23.921875 
Q 11.8125 19.828125 15.625 14.453125 
Q 19.34375 9.1875 25.203125 9.1875 
Q 32.90625 9.1875 38.375 14.453125 
Q 41.015625 17 42.390625 20.21875 
z
" id="UKaiTW-65"/>
      <path d="M 27.25 7.421875 
L 24.03125 7.421875 
L 11.03125 39.546875 
Q 8.984375 44.625 4.59375 44.625 
L 4.59375 47.359375 
L 25 47.359375 
L 25 44.625 
Q 16.5 44.625 18.5625 39.546875 
L 27.734375 16.609375 
L 36.140625 39.546875 
Q 37.984375 44.625 29.6875 44.625 
L 29.6875 47.359375 
L 45.3125 47.359375 
L 45.3125 44.625 
Q 40.71875 44.625 38.875 39.546875 
z
" id="UKaiTW-76"/>
      <path d="M 27.046875 48.25 
Q 34.46875 48.25 38.671875 45.21875 
Q 41.109375 43.453125 41.109375 40.921875 
Q 41.109375 36.71875 37.109375 36.71875 
Q 33.5 36.71875 32.328125 40.921875 
Q 31.0625 45.515625 25.09375 45.515625 
Q 20.609375 45.515625 17.09375 40.53125 
Q 12.703125 34.578125 12.703125 26.953125 
Q 12.703125 18.453125 17.578125 13.765625 
Q 22.359375 9.1875 27.828125 9.1875 
Q 34.46875 9.1875 41.703125 17.484375 
L 44.234375 15.234375 
Q 36.71875 6.453125 27.828125 6.453125 
Q 18.5625 6.453125 12.5 11.421875 
Q 5.765625 17 5.765625 26.953125 
Q 5.765625 35.546875 10.546875 41.21875 
Q 16.703125 48.25 27.046875 48.25 
z
" id="UKaiTW-63"/>
      <path d="M 19.734375 0.390625 
L 23.53125 9.859375 
L 11.53125 39.546875 
Q 9.46875 44.625 3.125 44.625 
L 3.125 47.359375 
L 23.53125 47.359375 
L 23.53125 44.625 
Q 17 44.625 19.046875 39.546875 
L 27.25 18.953125 
L 35.546875 39.546875 
Q 37.59375 44.625 31.0625 44.625 
L 31.0625 47.359375 
L 46.875 47.359375 
L 46.875 44.625 
Q 40.53125 44.625 38.484375 39.546875 
L 22.5625 0 
Q 20.703125 -4.5 14.84375 -4.5 
Q 12.796875 -4.5 11.375 -3.078125 
Q 9.96875 -1.65625 9.96875 0.390625 
Q 9.96875 2.4375 11.375 3.859375 
Q 12.796875 5.28125 14.84375 5.28125 
Q 16.890625 5.28125 18.3125 3.859375 
Q 19.734375 2.4375 19.734375 0.390625 
z
" id="UKaiTW-79"/>
     </defs>
     <g transform="translate(17.123437 234.021437)rotate(-90)scale(0.14 -0.14)">
      <use xlink:href="#UKaiTW-6c"/>
      <use x="50" xlink:href="#UKaiTW-6f"/>
      <use x="100" xlink:href="#UKaiTW-67"/>
      <use x="150" xlink:href="#UKaiTW-28"/>
      <use x="200" xlink:href="#UKaiTW-72"/>
      <use x="250" xlink:href="#UKaiTW-65"/>
      <use x="300" xlink:href="#UKaiTW-76"/>
      <use x="349.902344" xlink:href="#UKaiTW-5f"/>
      <use x="399.902344" xlink:href="#UKaiTW-63"/>
      <use x="449.902344" xlink:href="#UKaiTW-79"/>
      <use x="499.902344" xlink:href="#UKaiTW-63"/>
      <use x="549.902344" xlink:href="#UKaiTW-6c"/>
      <use x="599.902344" xlink:href="#UKaiTW-65"/>
      <use x="649.902344" xlink:href="#UKaiTW-2c"/>
      <use x="699.902344" xlink:href="#UKaiTW-31"/>
      <use x="749.902344" xlink:href="#UKaiTW-30"/>
      <use x="799.902344" xlink:href="#UKaiTW-29"/>
     </g>
    </g>
   </g>
   <g id="line2d_15"/>
   <g id="patch_3">
    <path d="M 57.6 307.584 
L 57.6 41.472 
" style="fill:none;stroke:#000000;stroke-linecap:square;stroke-linejoin:miter;stroke-width:0.8;"/>
   </g>
   <g id="patch_4">
    <path d="M 414.72 307.584 
L 414.72 41.472 
" style="fill:none;stroke:#000000;stroke-linecap:square;stroke-linejoin:miter;stroke-width:0.8;"/>
   </g>
   <g id="patch_5">
    <path d="M 57.6 307.584 
L 414.72 307.584 
" style="fill:none;stroke:#000000;stroke-linecap:square;stroke-linejoin:miter;stroke-width:0.8;"/>
   </g>
   <g id="patch_6">
    <path d="M 57.6 41.472 
L 414.72 41.472 
" style="fill:none;stroke:#000000;stroke-linecap:square;stroke-linejoin:miter;stroke-width:0.8;"/>
   </g>
   <g id="text_17">
    <!-- æœˆçƒ -->
    <defs>
     <path d="M 39.15625 35.15625 
Q 42.09375 34.578125 49.90625 35.546875 
Q 57.515625 36.8125 58.015625 37.203125 
Q 58.890625 37.890625 58.5 38.671875 
Q 57.8125 39.84375 55.078125 40.625 
Q 52.34375 41.21875 49.421875 40.140625 
Q 46.96875 39.453125 44.34375 38.875 
Q 42.1875 38.578125 39.65625 38.28125 
Q 39.65625 38.96875 39.84375 39.453125 
Q 40.71875 45.125 41.21875 51.953125 
Q 41.3125 52.046875 41.5 51.953125 
Q 44.53125 51.5625 57.625 54 
Q 57.71875 54.109375 58.015625 54.109375 
Q 58.890625 54.78125 58.5 55.5625 
Q 57.8125 56.546875 55.28125 57.328125 
Q 52.546875 58.015625 49.90625 56.9375 
Q 47.5625 56.25 45.125 55.859375 
Q 43.359375 55.5625 41.40625 55.375 
Q 42 68.84375 42.390625 71.6875 
Q 44.4375 71.96875 59.578125 75.296875 
Q 61.625 75.6875 62.59375 74.609375 
Q 63.875 73.34375 63.875 69.046875 
Q 64.84375 34.96875 63.484375 14.359375 
Q 63.375 11.140625 62.3125 9.765625 
Q 61.71875 9.078125 59.46875 9.671875 
Q 56.546875 10.0625 53.71875 10.75 
Q 51.375 11.421875 51.5625 10.359375 
Q 57.8125 4.6875 61.328125 0.6875 
Q 62.890625 -1.46875 64.75 -2.046875 
Q 65.71875 -2.4375 66.796875 -1.375 
Q 71.484375 5.078125 71.390625 10.75 
Q 70.21875 30.765625 70.125 63.375 
Q 70.015625 70.21875 71.578125 73.25 
Q 73.046875 75.59375 71.578125 76.765625 
Q 69.140625 78.90625 64.75 80.671875 
Q 62.59375 81.640625 60.9375 80.859375 
Q 53.03125 76.46875 41.21875 75.203125 
Q 41.109375 75.296875 40.828125 75.390625 
Q 35.453125 78.125 33.6875 77.734375 
Q 31.546875 77.34375 33.296875 74.90625 
Q 37.109375 68.359375 35.0625 43.75 
Q 34.375 33.6875 29.203125 21.875 
Q 25.390625 12.703125 13.671875 1.5625 
Q 12.109375 0.09375 11.71875 -0.59375 
Q 11.625 -1.46875 12.890625 -1.375 
Q 17.96875 -0.984375 26.859375 8.796875 
Q 32.421875 15.046875 35.546875 22.078125 
Q 37.703125 27.734375 39.15625 35.15625 
z
" id="UKaiTW-6708"/>
     <path d="M 23.34375 23.046875 
Q 17.671875 20.90625 11.53125 18.5625 
Q 9.765625 17.875 6.84375 17.671875 
Q 5.5625 17.390625 5.375 16.40625 
Q 5.28125 14.9375 6.34375 14.265625 
Q 8.796875 12.984375 12.203125 11.234375 
Q 13.375 11.140625 14.453125 12.015625 
Q 17.78125 15.046875 21.578125 17.1875 
Q 27.25 20.40625 33.109375 23.734375 
Q 35.25 25 36.8125 26.375 
Q 38.09375 27.34375 38.09375 28.21875 
Q 37.109375 28.8125 27.734375 24.8125 
Q 27.828125 32.71875 28.328125 39.65625 
Q 30.765625 40.625 33.40625 41.5 
Q 35.84375 42.390625 36.234375 42.78125 
Q 36.921875 43.65625 36.328125 44.34375 
Q 35.640625 45.3125 32.90625 45.515625 
Q 30.765625 45.609375 28.515625 44.734375 
Q 28.8125 57.90625 28.90625 57.90625 
Q 27.9375 58.890625 26.953125 59.671875 
Q 37.203125 62.890625 37.703125 63.1875 
Q 38.375 64.0625 37.890625 64.84375 
Q 37.203125 66.015625 34.1875 66.40625 
Q 32.125 66.703125 24.421875 63.671875 
Q 17.390625 61.8125 15.046875 61.234375 
Q 11.421875 60.25 14.265625 58.890625 
Q 17.78125 57.421875 22.46875 58.203125 
Q 23.640625 55.765625 23.53125 42.390625 
Q 17.390625 40.328125 14.75 39.75 
Q 11.71875 38.765625 14.15625 37.59375 
Q 17.671875 36.328125 23.53125 38.09375 
Q 23.4375 31.9375 23.34375 23.046875 
z
M 42.671875 40.4375 
Q 46.875 36.03125 49.21875 35.15625 
Q 50.484375 34.859375 51.171875 36.03125 
Q 51.5625 37.015625 51.375 38.375 
Q 50.390625 41.703125 45.40625 43.0625 
Q 42.1875 43.953125 41.5 43.65625 
Q 41.109375 43.5625 41.21875 42.484375 
Q 41.3125 41.609375 42.671875 40.4375 
z
M 33.296875 19.4375 
Q 32.03125 19.140625 32.125 17.671875 
Q 32.515625 15.828125 35.15625 14.546875 
Q 37.890625 12.984375 39.265625 12.984375 
Q 40.234375 13.09375 41.015625 15.234375 
Q 44.53125 19.734375 52.9375 28.90625 
Q 53.609375 29.59375 53.21875 30.28125 
Q 52.9375 30.671875 52.15625 30.171875 
Q 38.09375 20.21875 33.296875 19.4375 
z
M 63.484375 35.75 
Q 62.015625 37.203125 61.03125 37.984375 
Q 60.9375 46.1875 61.234375 54.109375 
Q 62.203125 54.390625 73.4375 56.546875 
Q 74.421875 56.453125 75.203125 57.71875 
Q 75.296875 58.6875 73.140625 59.671875 
Q 68.65625 61.421875 61.71875 58.40625 
Q 61.421875 58.40625 61.328125 58.296875 
Q 62.3125 72.75 63.28125 75.6875 
Q 65.046875 78.71875 59.375 81.0625 
Q 56.0625 82.90625 54 82.125 
Q 52.25 81.453125 53.8125 79.203125 
Q 55.953125 76.46875 56.15625 72.953125 
Q 56.25 71.1875 56.25 56.9375 
Q 52.640625 56.0625 49.3125 55.46875 
Q 46 54.890625 42.484375 54.203125 
Q 39.75 53.8125 41.890625 52.25 
Q 45.125 50.390625 48.828125 51.171875 
Q 52.046875 52.046875 56.25 52.9375 
Q 56.15625 37.59375 55.859375 10.546875 
Q 55.765625 8.109375 54.5 7.125 
Q 53.8125 6.734375 47.859375 7.90625 
Q 44.53125 9.375 44.828125 8.203125 
Q 44.921875 7.515625 46.875 5.953125 
Q 52.734375 0.6875 54.109375 -2.15625 
Q 55.671875 -5.46875 57.328125 -5.671875 
Q 58.796875 -5.765625 60.25 -2.25 
Q 62.109375 2.4375 62.109375 9.859375 
Q 61.421875 21.96875 61.140625 33.984375 
Q 74.90625 16.890625 78.71875 15.53125 
Q 83.796875 14.0625 94.53125 15.625 
Q 96.390625 15.71875 96.484375 16.21875 
Q 96.78125 16.796875 95.3125 17.390625 
Q 77.640625 25 77.546875 25.09375 
Q 71.390625 28.609375 64.9375 34.28125 
Q 75.203125 42.484375 80.28125 45.515625 
Q 82.125 46.09375 81.640625 47.171875 
Q 80.953125 48.734375 79.109375 50.59375 
Q 77.25 52.4375 74.90625 52.546875 
Q 73.34375 52.4375 73.53125 50.484375 
Q 73.640625 49.21875 72.859375 47.5625 
Q 69.625 42.875 63.484375 35.75 
z
M 73.640625 69.53125 
Q 76.375 67.390625 79.296875 64.84375 
Q 80.5625 63.671875 82.234375 63.875 
Q 83.203125 63.96875 83.6875 65.234375 
Q 84.078125 66.796875 83.015625 69.625 
Q 82.328125 71.484375 79.296875 72.65625 
Q 72.46875 75 70.703125 74.125 
Q 70.3125 73.734375 70.40625 72.46875 
Q 70.796875 71.484375 73.640625 69.53125 
z
" id="UKaiTW-7403"/>
    </defs>
    <g transform="translate(216.012182 169.634782)scale(0.08 -0.08)">
     <use xlink:href="#UKaiTW-6708"/>
     <use x="100" xlink:href="#UKaiTW-7403"/>
    </g>
   </g>
   <g id="text_18">
    <!-- Io -->
    <defs>
     <path d="M 28.71875 15.234375 
Q 28.71875 10.15625 35.15625 10.15625 
L 40.046875 10.15625 
L 40.046875 7.421875 
L 9.96875 7.421875 
L 9.96875 10.15625 
L 14.84375 10.15625 
Q 21.296875 10.15625 21.296875 15.234375 
L 21.296875 59.96875 
Q 21.296875 65.046875 14.84375 65.046875 
L 9.96875 65.046875 
L 9.96875 67.78125 
L 40.046875 67.78125 
L 40.046875 65.046875 
L 35.15625 65.046875 
Q 28.71875 65.046875 28.71875 59.96875 
z
" id="UKaiTW-49"/>
    </defs>
    <g transform="translate(224.52624 246.144173)scale(0.08 -0.08)">
     <use xlink:href="#UKaiTW-49"/>
     <use x="50" xlink:href="#UKaiTW-6f"/>
    </g>
   </g>
   <g id="text_19">
    <!-- Eur -->
    <defs>
     <path d="M 46.875 67.78125 
L 46.875 52.640625 
L 44.4375 52.640625 
Q 44.4375 60.15625 39.9375 62.796875 
Q 36.140625 65.046875 30.46875 65.046875 
L 22.265625 65.046875 
Q 17 65.046875 17 59.96875 
L 17 39.546875 
L 27.640625 39.546875 
Q 35.0625 39.546875 35.0625 47.359375 
L 37.5 47.359375 
L 37.5 28.515625 
L 35.0625 28.515625 
Q 35.0625 36.8125 27.640625 36.8125 
L 17 36.8125 
L 17 15.234375 
Q 17 10.15625 22.265625 10.15625 
L 25 10.15625 
Q 32.03125 10.15625 37.203125 12.59375 
Q 41.40625 14.546875 45.015625 22.75 
L 46.78125 22.171875 
L 43.0625 7.421875 
L 3.125 7.421875 
L 3.125 10.15625 
Q 9.578125 10.15625 9.578125 15.234375 
L 9.578125 59.96875 
Q 9.578125 65.046875 3.125 65.046875 
L 3.125 67.78125 
z
" id="UKaiTW-45"/>
     <path d="M 15.625 18.5625 
Q 15.625 14.75 17.671875 12.796875 
Q 19.734375 10.84375 23.828125 10.84375 
Q 26.859375 10.84375 30.765625 12.890625 
Q 31.453125 13.28125 35.15625 15.625 
L 35.15625 42.484375 
Q 35.15625 45.609375 31.15625 45.609375 
L 31.15625 48.34375 
L 42.09375 48.34375 
L 42.09375 13.671875 
Q 42.78125 11.53125 45.515625 12.203125 
L 45.515625 9.46875 
Q 40.828125 8.984375 35.15625 7.515625 
L 35.15625 12.015625 
Q 27.15625 6.453125 21.484375 6.453125 
Q 16.3125 6.453125 12.5 9.1875 
Q 8.6875 11.921875 8.6875 18.5625 
L 8.6875 42.390625 
Q 8.6875 45.609375 4.59375 45.609375 
L 4.59375 48.34375 
L 15.625 48.34375 
z
" id="UKaiTW-75"/>
    </defs>
    <g transform="translate(245.103139 226.524266)scale(0.08 -0.08)">
     <use xlink:href="#UKaiTW-45"/>
     <use x="50" xlink:href="#UKaiTW-75"/>
     <use x="100" xlink:href="#UKaiTW-72"/>
    </g>
   </g>
   <g id="text_20">
    <!-- Gan -->
    <defs>
     <path d="M 28.421875 6.453125 
Q 15.828125 6.453125 8.40625 15.140625 
Q 0.984375 23.828125 0.984375 37.40625 
Q 0.984375 50.203125 8.40625 59.1875 
Q 16.3125 68.75 29.78125 68.75 
Q 37.59375 68.75 44.921875 63.765625 
L 44.921875 53.71875 
L 42.1875 53.71875 
Q 40.828125 59.28125 37.890625 62.203125 
Q 34.078125 66.015625 29.78125 66.015625 
Q 21.390625 66.015625 15.046875 58.296875 
Q 8.40625 50.296875 8.40625 37.40625 
Q 8.40625 24.21875 15.140625 15.828125 
Q 20.515625 9.1875 28.421875 9.1875 
Q 31.734375 9.1875 35.359375 10.9375 
Q 36.625 11.53125 37.984375 12.703125 
L 37.984375 28.21875 
Q 37.984375 33.296875 31.546875 33.296875 
L 31.546875 36.03125 
L 49.8125 36.03125 
L 49.8125 33.296875 
Q 45.40625 33.296875 45.40625 28.21875 
L 45.40625 15.625 
Q 38.671875 6.453125 28.421875 6.453125 
z
" id="UKaiTW-47"/>
     <path d="M 14.84375 36.8125 
L 14.84375 15.234375 
Q 14.84375 10.15625 21.296875 10.15625 
L 21.296875 7.421875 
L 1.46875 7.421875 
L 1.46875 10.15625 
Q 7.90625 10.15625 7.90625 15.234375 
L 7.90625 35.0625 
Q 7.90625 40.046875 1.5625 40.046875 
L 1.5625 42.1875 
L 12.703125 47.359375 
L 14.84375 47.359375 
L 14.84375 40.140625 
Q 23.53125 48.4375 31.84375 48.4375 
Q 42.09375 48.4375 42.09375 37.890625 
L 42.09375 15.234375 
Q 42.09375 10.15625 48.53125 10.15625 
L 48.53125 7.421875 
L 28.71875 7.421875 
L 28.71875 10.15625 
Q 35.15625 10.15625 35.15625 15.234375 
L 35.15625 37.890625 
Q 35.15625 44.046875 28.421875 44.046875 
Q 23.4375 44.046875 14.84375 36.8125 
z
" id="UKaiTW-6e"/>
    </defs>
    <g transform="translate(267.800736 206.798283)scale(0.08 -0.08)">
     <use xlink:href="#UKaiTW-47"/>
     <use x="50" xlink:href="#UKaiTW-61"/>
     <use x="100" xlink:href="#UKaiTW-6e"/>
    </g>
   </g>
   <g id="text_21">
    <!-- Cal -->
    <defs>
     <path d="M 30.171875 6.453125 
Q 17.578125 6.453125 10.15625 15.140625 
Q 2.734375 23.828125 2.734375 37.40625 
Q 2.734375 50.203125 10.15625 59.1875 
Q 18.0625 68.75 31.546875 68.75 
Q 39.359375 68.75 46.6875 63.765625 
L 46.6875 53.71875 
L 43.953125 53.71875 
Q 42.578125 59.28125 39.65625 62.203125 
Q 35.84375 66.015625 31.546875 66.015625 
Q 23.140625 66.015625 16.796875 58.296875 
Q 10.15625 50.296875 10.15625 37.40625 
Q 10.15625 24.21875 16.890625 15.828125 
Q 22.265625 9.1875 30.171875 9.1875 
Q 33.296875 9.1875 37.984375 12.59375 
Q 40.625 14.546875 45.015625 21.96875 
L 47.265625 20.90625 
Q 40.71875 6.453125 30.171875 6.453125 
z
" id="UKaiTW-43"/>
    </defs>
    <g transform="translate(295.253276 182.949726)scale(0.08 -0.08)">
     <use xlink:href="#UKaiTW-43"/>
     <use x="50" xlink:href="#UKaiTW-61"/>
     <use x="100" xlink:href="#UKaiTW-6c"/>
    </g>
   </g>
   <g id="text_22">
    <!-- Ama -->
    <defs>
     <path d="M 43.359375 13.875 
Q 44.53125 10.15625 49.03125 10.15625 
L 49.03125 7.421875 
L 33.59375 7.421875 
L 33.59375 10.15625 
Q 35.25 10.15625 35.9375 10.9375 
Q 36.625 11.71875 35.9375 13.875 
L 31.9375 26.953125 
L 13.875 26.953125 
L 9.765625 12.203125 
Q 9.578125 11.421875 10.25 10.546875 
Q 10.546875 10.15625 11.921875 10.15625 
L 11.921875 7.421875 
L 1.078125 7.421875 
L 1.078125 10.15625 
Q 5.46875 10.15625 6.0625 12.203125 
L 20.515625 65.046875 
L 26.953125 67.78125 
z
M 22.359375 58.015625 
L 15.046875 31.25 
L 30.5625 31.25 
z
" id="UKaiTW-41"/>
    </defs>
    <g transform="translate(181.502276 281.834571)scale(0.08 -0.08)">
     <use xlink:href="#UKaiTW-41"/>
     <use x="50" xlink:href="#UKaiTW-6d"/>
     <use x="100" xlink:href="#UKaiTW-61"/>
    </g>
   </g>
   <g id="text_23">
    <!-- Him -->
    <defs>
     <path d="M 48.4375 7.421875 
L 28.125 7.421875 
L 28.125 10.15625 
Q 34.578125 10.15625 34.578125 15.234375 
L 34.578125 36.71875 
L 15.4375 36.71875 
L 15.4375 15.234375 
Q 15.4375 10.15625 21.875 10.15625 
L 21.875 7.421875 
L 1.5625 7.421875 
L 1.5625 10.15625 
Q 8.015625 10.15625 8.015625 15.234375 
L 8.015625 59.96875 
Q 8.015625 65.046875 1.5625 65.046875 
L 1.5625 67.78125 
L 21.875 67.78125 
L 21.875 65.046875 
Q 15.4375 65.046875 15.4375 59.96875 
L 15.4375 39.453125 
L 34.578125 39.453125 
L 34.578125 59.96875 
Q 34.578125 65.046875 28.125 65.046875 
L 28.125 67.78125 
L 48.4375 67.78125 
L 48.4375 65.046875 
Q 42 65.046875 42 59.96875 
L 42 15.234375 
Q 42 10.15625 48.4375 10.15625 
z
" id="UKaiTW-48"/>
    </defs>
    <g transform="translate(383.066624 106.676744)scale(0.08 -0.08)">
     <use xlink:href="#UKaiTW-48"/>
     <use x="50" xlink:href="#UKaiTW-69"/>
     <use x="100" xlink:href="#UKaiTW-6d"/>
    </g>
   </g>
   <g id="text_24">
    <!-- Mim -->
    <defs>
     <path d="M 37.109375 15.234375 
L 37.109375 58.6875 
L 24.21875 13.578125 
L 20.90625 13.578125 
L 8.796875 52.4375 
L 8.796875 15.234375 
Q 8.796875 10.15625 13.09375 10.15625 
L 13.09375 7.421875 
L 1.171875 7.421875 
L 1.171875 10.15625 
Q 5.46875 10.15625 5.46875 15.234375 
L 5.46875 59.96875 
Q 5.46875 65.046875 1.171875 65.046875 
L 1.171875 67.78125 
L 11.53125 67.78125 
L 23.921875 24.515625 
L 36.421875 67.78125 
L 48.828125 67.78125 
L 48.828125 65.046875 
Q 44.53125 65.046875 44.53125 59.96875 
L 44.53125 15.234375 
Q 44.53125 10.15625 48.828125 10.15625 
L 48.828125 7.421875 
L 32.8125 7.421875 
L 32.8125 10.15625 
Q 37.109375 10.15625 37.109375 15.234375 
z
" id="UKaiTW-4d"/>
    </defs>
    <g transform="translate(182.599355 263.887434)scale(0.08 -0.08)">
     <use xlink:href="#UKaiTW-4d"/>
     <use x="50" xlink:href="#UKaiTW-69"/>
     <use x="100" xlink:href="#UKaiTW-6d"/>
    </g>
   </g>
   <g id="text_25">
    <!-- Enc -->
    <g transform="translate(194.713061 253.341093)scale(0.08 -0.08)">
     <use xlink:href="#UKaiTW-45"/>
     <use x="50" xlink:href="#UKaiTW-6e"/>
     <use x="100" xlink:href="#UKaiTW-63"/>
    </g>
   </g>
   <g id="text_26">
    <!-- Tet -->
    <defs>
     <path d="M 28.71875 15.234375 
Q 28.71875 10.15625 35.15625 10.15625 
L 40.046875 10.15625 
L 40.046875 7.421875 
L 9.96875 7.421875 
L 9.96875 10.15625 
L 14.84375 10.15625 
Q 21.296875 10.15625 21.296875 15.234375 
L 21.296875 65.046875 
L 16.21875 65.046875 
Q 10.75 65.046875 5.28125 54.296875 
L 2.640625 55.375 
L 6.734375 67.78125 
L 43.265625 67.78125 
L 47.359375 55.375 
L 44.734375 54.296875 
Q 39.265625 65.046875 33.796875 65.046875 
L 28.71875 65.046875 
z
" id="UKaiTW-54"/>
    </defs>
    <g transform="translate(205.088682 244.311078)scale(0.08 -0.08)">
     <use xlink:href="#UKaiTW-54"/>
     <use x="50" xlink:href="#UKaiTW-65"/>
     <use x="100" xlink:href="#UKaiTW-74"/>
    </g>
   </g>
   <g id="text_27">
    <!-- Dio -->
    <defs>
     <path d="M 8.796875 59.96875 
Q 8.796875 65.046875 2.34375 65.046875 
L 2.34375 67.78125 
L 21.484375 67.78125 
Q 33.6875 67.78125 39.265625 61.03125 
Q 47.65625 50.59375 47.65625 37.3125 
Q 47.65625 21.875 40.328125 14.15625 
Q 33.796875 7.421875 21.484375 7.421875 
L 2.34375 7.421875 
L 2.34375 10.15625 
Q 8.796875 10.15625 8.796875 15.234375 
z
M 16.21875 59.96875 
L 16.21875 15.234375 
Q 16.21875 10.15625 21.484375 10.15625 
Q 28.328125 10.15625 34.46875 16.796875 
Q 40.234375 22.953125 40.234375 37.3125 
Q 40.234375 51.953125 34.375 58.890625 
Q 29.203125 65.046875 21.484375 65.046875 
Q 16.21875 65.046875 16.21875 59.96875 
z
" id="UKaiTW-44"/>
    </defs>
    <g transform="translate(217.121407 233.855299)scale(0.08 -0.08)">
     <use xlink:href="#UKaiTW-44"/>
     <use x="50" xlink:href="#UKaiTW-69"/>
     <use x="100" xlink:href="#UKaiTW-6f"/>
    </g>
   </g>
   <g id="text_28">
    <!-- Rhe -->
    <defs>
     <path d="M 21.96875 10.15625 
L 21.96875 7.421875 
L 1.65625 7.421875 
L 1.65625 10.15625 
Q 8.109375 10.15625 8.109375 15.234375 
L 8.109375 59.96875 
Q 8.109375 65.046875 1.65625 65.046875 
L 1.65625 67.78125 
L 23.25 67.78125 
L 27.546875 67.78125 
Q 35.453125 67.78125 40.53125 63.96875 
Q 46.1875 59.765625 46.1875 54 
Q 46.1875 46 40.4375 42 
Q 35.75 38.765625 28.515625 37.703125 
L 41.890625 13.875 
Q 44.046875 10.15625 48.34375 10.15625 
L 48.34375 7.421875 
L 37.59375 7.421875 
L 20.90625 37.203125 
L 15.53125 37.203125 
L 15.53125 15.234375 
Q 15.53125 10.15625 21.96875 10.15625 
z
M 21.296875 65.046875 
Q 15.53125 65.046875 15.53125 59.96875 
L 15.53125 39.9375 
L 20.90625 39.9375 
Q 28.421875 39.9375 33.40625 43.453125 
Q 38.765625 47.171875 38.765625 54 
Q 38.765625 58.796875 34.28125 61.8125 
Q 29.5 65.046875 21.296875 65.046875 
z
" id="UKaiTW-52"/>
     <path d="M 41.5 15.234375 
Q 41.5 10.15625 47.953125 10.15625 
L 47.953125 7.421875 
L 28.125 7.421875 
L 28.125 10.15625 
Q 34.578125 10.15625 34.578125 15.234375 
L 34.578125 38.875 
Q 34.578125 43.953125 29.109375 43.953125 
Q 23.828125 43.953125 15.53125 37.40625 
L 15.53125 15.234375 
Q 15.53125 10.15625 21.96875 10.15625 
L 21.96875 7.421875 
L 2.15625 7.421875 
L 2.15625 10.15625 
Q 8.59375 10.15625 8.59375 15.234375 
L 8.59375 56.0625 
Q 8.59375 61.03125 2.25 61.03125 
L 2.25 63.1875 
L 13.375 68.359375 
L 15.53125 68.359375 
L 15.53125 40.234375 
Q 24.3125 48.34375 29.109375 48.34375 
Q 41.5 48.34375 41.5 38.875 
z
" id="UKaiTW-68"/>
    </defs>
    <g transform="translate(233.358115 219.743036)scale(0.08 -0.08)">
     <use xlink:href="#UKaiTW-52"/>
     <use x="50" xlink:href="#UKaiTW-68"/>
     <use x="100" xlink:href="#UKaiTW-65"/>
    </g>
   </g>
   <g id="text_29">
    <!-- Tit -->
    <g transform="translate(274.235143 184.226651)scale(0.08 -0.08)">
     <use xlink:href="#UKaiTW-54"/>
     <use x="50" xlink:href="#UKaiTW-69"/>
     <use x="100" xlink:href="#UKaiTW-74"/>
    </g>
   </g>
   <g id="text_30">
    <!-- Hyp -->
    <defs>
     <path d="M 16.5 9.28125 
L 16.5 2.15625 
Q 16.5 -2.9375 22.953125 -2.9375 
L 22.953125 -5.671875 
L 3.125 -5.671875 
L 3.125 -2.9375 
Q 9.578125 -2.9375 9.578125 2.15625 
L 9.578125 35.0625 
Q 9.578125 40.046875 3.21875 40.046875 
L 3.21875 42.1875 
L 14.359375 47.359375 
L 16.5 47.359375 
L 16.5 42.1875 
Q 23.25 48.34375 29.390625 48.34375 
Q 36.8125 48.34375 42 42.28125 
Q 46.875 36.625 46.875 26.5625 
Q 46.875 18.171875 42 12.703125 
Q 36.421875 6.453125 29 6.453125 
Q 23.25 6.453125 16.5 9.28125 
z
M 16.5 39.15625 
L 16.5 12.984375 
Q 22.171875 9.1875 26.65625 9.1875 
Q 31.84375 9.1875 35.9375 14.15625 
Q 39.9375 19.046875 39.9375 26.5625 
Q 39.9375 35.25 36.140625 39.65625 
Q 32.421875 43.953125 26.859375 43.953125 
Q 22.171875 43.953125 16.5 39.15625 
z
" id="UKaiTW-70"/>
    </defs>
    <g transform="translate(284.234071 176.108867)scale(0.08 -0.08)">
     <use xlink:href="#UKaiTW-48"/>
     <use x="50" xlink:href="#UKaiTW-79"/>
     <use x="100" xlink:href="#UKaiTW-70"/>
    </g>
   </g>
   <g id="text_31">
    <!-- Iap -->
    <g transform="translate(326.236111 139.059096)scale(0.08 -0.08)">
     <use xlink:href="#UKaiTW-49"/>
     <use x="50" xlink:href="#UKaiTW-61"/>
     <use x="100" xlink:href="#UKaiTW-70"/>
    </g>
   </g>
   <g id="text_32">
    <!-- Pho -->
    <defs>
     <path d="M 23.4375 10.15625 
L 23.4375 7.421875 
L 3.125 7.421875 
L 3.125 10.15625 
Q 9.578125 10.15625 9.578125 15.234375 
L 9.578125 59.96875 
Q 9.578125 65.046875 3.125 65.046875 
L 3.125 67.78125 
L 24.703125 67.78125 
L 29 67.78125 
Q 36.921875 67.78125 42 63.96875 
Q 47.65625 59.765625 47.65625 54 
Q 47.65625 46.09375 41.890625 42 
Q 35.15625 37.203125 22.359375 37.203125 
L 17 37.203125 
L 17 15.234375 
Q 17 10.15625 23.4375 10.15625 
z
M 22.75 65.046875 
Q 17 65.046875 17 59.96875 
L 17 39.9375 
L 22.359375 39.9375 
Q 29.890625 39.9375 34.859375 43.453125 
Q 40.234375 47.171875 40.234375 54 
Q 40.234375 58.796875 35.75 61.8125 
Q 30.953125 65.046875 22.75 65.046875 
z
" id="UKaiTW-50"/>
    </defs>
    <g transform="translate(388.96535 84.523633)scale(0.08 -0.08)">
     <use xlink:href="#UKaiTW-50"/>
     <use x="50.78125" xlink:href="#UKaiTW-68"/>
     <use x="100.78125" xlink:href="#UKaiTW-6f"/>
    </g>
   </g>
   <g id="text_33">
    <!-- Jan -->
    <defs>
     <path d="M 11.421875 15.234375 
Q 11.421875 12.984375 13.765625 11.03125 
Q 16.015625 9.1875 19.53125 9.1875 
Q 23.34375 9.1875 26.078125 11.8125 
Q 29 14.65625 29 22.171875 
L 29 59.96875 
Q 29 65.046875 22.5625 65.046875 
L 17.671875 65.046875 
L 17.671875 67.78125 
L 47.75 67.78125 
L 47.75 65.046875 
L 42.875 65.046875 
Q 36.421875 65.046875 36.421875 59.96875 
L 36.421875 22.171875 
Q 36.421875 14.546875 31.640625 10.359375 
Q 27.15625 6.453125 19.53125 6.453125 
Q 12.109375 6.453125 6.84375 10.84375 
Q 2.25 14.65625 2.25 19.046875 
Q 2.25 21.296875 3.8125 22.859375 
Q 5.375 24.421875 7.609375 24.421875 
Q 9.859375 24.421875 11.421875 22.859375 
Q 12.984375 21.296875 12.984375 19.046875 
Q 12.984375 16.796875 11.421875 15.234375 
z
" id="UKaiTW-4a"/>
    </defs>
    <g transform="translate(172.732674 272.449659)scale(0.08 -0.08)">
     <use xlink:href="#UKaiTW-4a"/>
     <use x="50" xlink:href="#UKaiTW-61"/>
     <use x="100" xlink:href="#UKaiTW-6e"/>
    </g>
   </g>
   <g id="text_34">
    <!-- Epi -->
    <g transform="translate(172.716622 272.490201)scale(0.08 -0.08)">
     <use xlink:href="#UKaiTW-45"/>
     <use x="50" xlink:href="#UKaiTW-70"/>
     <use x="100" xlink:href="#UKaiTW-69"/>
    </g>
   </g>
   <g id="text_35">
    <!-- Ari -->
    <g transform="translate(183.983918 236.18113)scale(0.08 -0.08)">
     <use xlink:href="#UKaiTW-41"/>
     <use x="50" xlink:href="#UKaiTW-72"/>
     <use x="100" xlink:href="#UKaiTW-69"/>
    </g>
   </g>
   <g id="text_36">
    <!-- Umb -->
    <defs>
     <path d="M 16.40625 22.65625 
Q 16.40625 16.109375 18.953125 12.5 
Q 21.296875 9.1875 26.265625 9.1875 
Q 31.453125 9.1875 34.28125 12.890625 
Q 37.703125 17.390625 37.703125 23.734375 
L 37.703125 59.96875 
Q 37.703125 65.046875 31.25 65.046875 
L 31.25 67.78125 
L 47.46875 67.78125 
L 47.46875 65.046875 
Q 41.015625 65.046875 41.015625 59.96875 
L 41.015625 23.734375 
Q 41.015625 16.015625 36.71875 11.03125 
Q 32.71875 6.453125 26.265625 6.453125 
Q 17.484375 6.453125 13.578125 10.546875 
Q 8.984375 15.328125 8.984375 22.65625 
L 8.984375 59.96875 
Q 8.984375 65.046875 2.546875 65.046875 
L 2.546875 67.78125 
L 22.859375 67.78125 
L 22.859375 65.046875 
Q 16.40625 65.046875 16.40625 59.96875 
z
" id="UKaiTW-55"/>
    </defs>
    <g transform="translate(200.1123 222.175985)scale(0.08 -0.08)">
     <use xlink:href="#UKaiTW-55"/>
     <use x="50" xlink:href="#UKaiTW-6d"/>
     <use x="100" xlink:href="#UKaiTW-62"/>
    </g>
   </g>
   <g id="text_37">
    <!-- Tit -->
    <g transform="translate(224.169423 201.273938)scale(0.08 -0.08)">
     <use xlink:href="#UKaiTW-54"/>
     <use x="50" xlink:href="#UKaiTW-69"/>
     <use x="100" xlink:href="#UKaiTW-74"/>
    </g>
   </g>
   <g id="text_38">
    <!-- Obe -->
    <defs>
     <path d="M 10.15625 59.671875 
Q 17 68.75 25 68.75 
Q 33.015625 68.75 39.84375 59.671875 
Q 46.96875 50.203125 46.96875 37.59375 
Q 46.96875 25 39.84375 15.53125 
Q 33.015625 6.453125 25 6.453125 
Q 17 6.453125 10.15625 15.53125 
Q 3.03125 25 3.03125 37.59375 
Q 3.03125 50.203125 10.15625 59.671875 
z
M 34.28125 57.328125 
Q 29.78125 66.015625 25 66.015625 
Q 20.21875 66.015625 15.71875 57.328125 
Q 10.453125 46.96875 10.453125 37.59375 
Q 10.453125 28.21875 15.71875 17.875 
Q 20.21875 9.1875 25 9.1875 
Q 29.78125 9.1875 34.28125 17.875 
Q 39.546875 28.21875 39.546875 37.59375 
Q 39.546875 46.96875 34.28125 57.328125 
z
" id="UKaiTW-4f"/>
    </defs>
    <g transform="translate(238.302959 189.005847)scale(0.08 -0.08)">
     <use xlink:href="#UKaiTW-4f"/>
     <use x="50" xlink:href="#UKaiTW-62"/>
     <use x="100" xlink:href="#UKaiTW-65"/>
    </g>
   </g>
   <g id="text_39">
    <!-- Mir -->
    <g transform="translate(165.267276 252.470932)scale(0.08 -0.08)">
     <use xlink:href="#UKaiTW-4d"/>
     <use x="50" xlink:href="#UKaiTW-69"/>
     <use x="100" xlink:href="#UKaiTW-72"/>
    </g>
   </g>
   <g id="text_40">
    <!-- Por -->
    <g transform="translate(132.390855 280.999003)scale(0.08 -0.08)">
     <use xlink:href="#UKaiTW-50"/>
     <use x="50.78125" xlink:href="#UKaiTW-6f"/>
     <use x="100.78125" xlink:href="#UKaiTW-72"/>
    </g>
   </g>
   <g id="text_41">
    <!-- Puc -->
    <g transform="translate(145.185694 269.858278)scale(0.08 -0.08)">
     <use xlink:href="#UKaiTW-50"/>
     <use x="50.78125" xlink:href="#UKaiTW-75"/>
     <use x="100.78125" xlink:href="#UKaiTW-63"/>
    </g>
   </g>
   <g id="text_42">
    <!-- Syc -->
    <defs>
     <path d="M 4.984375 53.21875 
Q 4.984375 59.28125 10.15625 63.671875 
Q 16.21875 68.84375 25 68.84375 
Q 34.078125 68.84375 43.65625 61.625 
L 42.875 51.5625 
L 40.4375 51.5625 
Q 38.484375 58.203125 34.375 61.921875 
Q 29.6875 66.109375 25 66.109375 
Q 19.4375 66.109375 15.71875 62.109375 
Q 12.40625 58.5 12.40625 54.109375 
Q 12.40625 45.125 26.953125 41.5 
Q 45.609375 36.8125 45.609375 24.03125 
Q 45.609375 16.796875 39.75 11.71875 
Q 33.6875 6.453125 25 6.453125 
Q 12.40625 6.453125 5.46875 15.234375 
L 2.828125 26.65625 
L 5.171875 27.25 
Q 10.0625 16.890625 14.265625 13.09375 
Q 18.5625 9.1875 25 9.1875 
Q 30.46875 9.1875 34.46875 13.484375 
Q 38.1875 17.390625 38.1875 23.140625 
Q 38.1875 32.71875 22.65625 36.625 
Q 4.984375 41.109375 4.984375 53.21875 
z
" id="UKaiTW-53"/>
    </defs>
    <g transform="translate(386.022319 60.571999)scale(0.08 -0.08)">
     <use xlink:href="#UKaiTW-53"/>
     <use x="50" xlink:href="#UKaiTW-79"/>
     <use x="100" xlink:href="#UKaiTW-63"/>
    </g>
   </g>
   <g id="text_43">
    <!-- Tri -->
    <g transform="translate(214.11669 212.338508)scale(0.08 -0.08)">
     <use xlink:href="#UKaiTW-54"/>
     <use x="50" xlink:href="#UKaiTW-72"/>
     <use x="100" xlink:href="#UKaiTW-69"/>
    </g>
   </g>
   <g id="text_44">
    <!-- Ner -->
    <defs>
     <path d="M 38.578125 23.34375 
L 38.578125 59.96875 
Q 38.578125 65.046875 32.125 65.046875 
L 32.125 67.78125 
L 48.34375 67.78125 
L 48.34375 65.046875 
Q 41.890625 65.046875 41.890625 59.96875 
L 41.890625 7.421875 
L 38.578125 7.421875 
L 11.421875 59.078125 
L 11.421875 15.234375 
Q 11.421875 10.15625 17.875 10.15625 
L 17.875 7.421875 
L 1.65625 7.421875 
L 1.65625 10.15625 
Q 8.109375 10.15625 8.109375 15.234375 
L 8.109375 59.96875 
Q 8.109375 65.046875 1.65625 65.046875 
L 1.65625 67.78125 
L 15.234375 67.78125 
z
" id="UKaiTW-4e"/>
    </defs>
    <g transform="translate(347.494252 96.461701)scale(0.08 -0.08)">
     <use xlink:href="#UKaiTW-4e"/>
     <use x="50" xlink:href="#UKaiTW-65"/>
     <use x="100" xlink:href="#UKaiTW-72"/>
    </g>
   </g>
   <g id="text_45">
    <!-- Des -->
    <defs>
     <path d="M 41.890625 42.484375 
L 41.109375 35.546875 
L 39.15625 35.546875 
Q 36.53125 41.703125 33.109375 43.65625 
Q 29.78125 45.609375 26.171875 45.609375 
Q 20.90625 45.609375 18.171875 43.359375 
Q 15.71875 41.3125 15.71875 37.984375 
Q 15.71875 35.359375 17 33.796875 
Q 17.96875 32.515625 27.25 30.46875 
Q 37.40625 28.21875 39.65625 25.296875 
Q 42.09375 22.171875 42.09375 18.953125 
Q 42.09375 13.96875 38.28125 10.453125 
Q 33.984375 6.453125 27.25 6.453125 
Q 18.359375 6.453125 8.796875 11.8125 
L 7.421875 20.3125 
L 9.578125 21.875 
Q 12.203125 15.4375 17.578125 12.109375 
Q 22.265625 9.1875 25.984375 9.1875 
Q 30.171875 9.1875 32.8125 12.109375 
Q 35.15625 14.65625 35.15625 17.78125 
Q 35.15625 20.21875 33.40625 22.078125 
Q 32.625 22.953125 22.75 25.484375 
Q 13.578125 27.546875 10.84375 30.28125 
Q 8.796875 32.328125 8.796875 36.53125 
Q 8.796875 41.796875 13.28125 45.125 
Q 17.671875 48.34375 24.703125 48.34375 
Q 32.328125 48.34375 41.890625 42.484375 
z
" id="UKaiTW-73"/>
    </defs>
    <g transform="translate(121.247077 292.997789)scale(0.08 -0.08)">
     <use xlink:href="#UKaiTW-44"/>
     <use x="50" xlink:href="#UKaiTW-65"/>
     <use x="100" xlink:href="#UKaiTW-73"/>
    </g>
   </g>
   <g id="text_46">
    <!-- Gal -->
    <g transform="translate(129.272105 286.033929)scale(0.08 -0.08)">
     <use xlink:href="#UKaiTW-47"/>
     <use x="50" xlink:href="#UKaiTW-61"/>
     <use x="100" xlink:href="#UKaiTW-6c"/>
    </g>
   </g>
   <g id="text_47">
    <!-- Lar -->
    <defs>
     <path d="M 29.5 10.15625 
Q 33.40625 10.15625 36.421875 11.8125 
Q 39.265625 13.375 46.1875 23.828125 
L 47.859375 23.046875 
L 40.625 7.421875 
L 3.03125 7.421875 
L 3.03125 10.15625 
Q 9.46875 10.15625 9.46875 15.234375 
L 9.46875 59.96875 
Q 9.46875 65.046875 3.03125 65.046875 
L 3.03125 67.78125 
L 23.34375 67.78125 
L 23.34375 65.046875 
Q 16.890625 65.046875 16.890625 59.96875 
L 16.890625 15.234375 
Q 16.890625 10.15625 23.34375 10.15625 
z
" id="UKaiTW-4c"/>
    </defs>
    <g transform="translate(137.612872 278.7833)scale(0.08 -0.08)">
     <use xlink:href="#UKaiTW-4c"/>
     <use x="50" xlink:href="#UKaiTW-61"/>
     <use x="100" xlink:href="#UKaiTW-72"/>
    </g>
   </g>
   <g id="text_48">
    <!-- Pro -->
    <g transform="translate(160.419275 258.963899)scale(0.08 -0.08)">
     <use xlink:href="#UKaiTW-50"/>
     <use x="50.78125" xlink:href="#UKaiTW-72"/>
     <use x="100.78125" xlink:href="#UKaiTW-6f"/>
    </g>
   </g>
   <g id="text_49">
    <!-- Cha -->
    <g transform="translate(73.299564 209.995369)scale(0.08 -0.08)">
     <use xlink:href="#UKaiTW-43"/>
     <use x="50" xlink:href="#UKaiTW-68"/>
     <use x="100" xlink:href="#UKaiTW-61"/>
    </g>
   </g>
   <g id="text_50">
    <!-- HiÊ» -->
    <defs>
     <path d="M 8.6875 0 
L 8.6875 65.234375 
L 41.3125 65.234375 
L 41.3125 0 
z
M 11.921875 3.21875 
L 38.09375 3.21875 
L 38.09375 62.015625 
L 11.921875 62.015625 
z
" id="UKaiTW-2bb"/>
    </defs>
    <g transform="translate(118.362383 152.555945)scale(0.08 -0.08)">
     <use xlink:href="#UKaiTW-48"/>
     <use x="50" xlink:href="#UKaiTW-69"/>
     <use x="100" xlink:href="#UKaiTW-2bb"/>
    </g>
   </g>
   <g id="text_51">
    <!-- Nam -->
    <g transform="translate(106.771655 162.341097)scale(0.08 -0.08)">
     <use xlink:href="#UKaiTW-4e"/>
     <use x="50" xlink:href="#UKaiTW-61"/>
     <use x="100" xlink:href="#UKaiTW-6d"/>
    </g>
   </g>
   <g id="text_52">
    <!-- Dys -->
    <g transform="translate(104.696049 184.539071)scale(0.08 -0.08)">
     <use xlink:href="#UKaiTW-44"/>
     <use x="50" xlink:href="#UKaiTW-79"/>
     <use x="100" xlink:href="#UKaiTW-73"/>
    </g>
   </g>
  </g>
 </g>
 <defs>
  <clipPath id="pbac91b2ed6">
   <rect height="266.112" width="357.12" x="57.6" y="41.472"/>
  </clipPath>
 </defs>
</svg>
