<?xml version="1.0" encoding="utf-8" standalone="no"?>
<!DOCTYPE svg PUBLIC "-//W3C//DTD SVG 1.1//EN"
  "http://www.w3.org/Graphics/SVG/1.1/DTD/svg11.dtd">
<!-- Created with matplotlib (http://matplotlib.org/) -->
<svg height="345pt" version="1.1" viewBox="0 0 460 345" width="460pt" xmlns="http://www.w3.org/2000/svg" xmlns:xlink="http://www.w3.org/1999/xlink">
 <defs>
  <style type="text/css">
*{stroke-linecap:butt;stroke-linejoin:round;}
  </style>
 </defs>
 <g id="figure_1">
  <g id="patch_1">
   <path d="M 0 345.6 
L 460.8 345.6 
L 460.8 0 
L 0 0 
z
" style="fill:#ffffff;"/>
  </g>
  <g id="axes_1">
   <g id="patch_2">
    <path d="M 57.6 307.584 
L 414.72 307.584 
L 414.72 41.472 
L 57.6 41.472 
z
" style="fill:#ffffff;"/>
   </g>
   <g id="PathCollection_1">
    <path clip-path="url(#p34e2054343)" d="M 225.331059 188.785513 
C 230.857697 188.785513 236.158723 186.589757 240.066646 182.681834 
C 243.974569 178.77391 246.170325 173.472885 246.170325 167.946247 
C 246.170325 162.41961 243.974569 157.118584 240.066646 153.210661 
C 236.158723 149.302738 230.857697 147.106982 225.331059 147.106982 
C 219.804422 147.106982 214.503396 149.302738 210.595473 153.210661 
C 206.68755 157.118584 204.491794 162.41961 204.491794 167.946247 
C 204.491794 173.472885 206.68755 178.77391 210.595473 182.681834 
C 214.503396 186.589757 219.804422 188.785513 225.331059 188.785513 
z
" style="fill:none;stroke:#0000ff;"/>
   </g>
   <g id="PathCollection_2">
    <path clip-path="url(#p34e2054343)" d="M 229.857452 291.112927 
C 235.511474 291.112927 240.934683 288.86656 244.93268 284.868563 
C 248.930678 280.870566 251.177044 275.447357 251.177044 269.793335 
C 251.177044 264.139313 248.930678 258.716104 244.93268 254.718107 
C 240.934683 250.72011 235.511474 248.473743 229.857452 248.473743 
C 224.203431 248.473743 218.780222 250.72011 214.782224 254.718107 
C 210.784227 258.716104 208.53786 264.139313 208.53786 269.793335 
C 208.53786 275.447357 210.784227 280.870566 214.782224 284.868563 
C 218.780222 288.86656 224.203431 291.112927 229.857452 291.112927 
z
" style="fill:none;stroke:#0000ff;"/>
   </g>
   <g id="PathCollection_3">
    <path clip-path="url(#p34e2054343)" d="M 252.496044 263.619345 
C 257.73456 263.619345 262.759226 261.53806 266.463416 257.83387 
C 270.167607 254.129679 272.248891 249.105014 272.248891 243.866497 
C 272.248891 238.627981 270.167607 233.603315 266.463416 229.899124 
C 262.759226 226.194934 257.73456 224.113649 252.496044 224.113649 
C 247.257527 224.113649 242.232861 226.194934 238.528671 229.899124 
C 234.82448 233.603315 232.743196 238.627981 232.743196 243.866497 
C 232.743196 249.105014 234.82448 254.129679 238.528671 257.83387 
C 242.232861 261.53806 247.257527 263.619345 252.496044 263.619345 
z
" style="fill:none;stroke:#0000ff;"/>
   </g>
   <g id="PathCollection_4">
    <path clip-path="url(#p34e2054343)" d="M 275.255662 243.461228 
C 282.061236 243.461228 288.588987 240.757345 293.401254 235.945078 
C 298.213521 231.132811 300.917404 224.60506 300.917404 217.799486 
C 300.917404 210.993913 298.213521 204.466162 293.401254 199.653894 
C 288.588987 194.841627 282.061236 192.137744 275.255662 192.137744 
C 268.450089 192.137744 261.922337 194.841627 257.11007 199.653894 
C 252.297803 204.466162 249.59392 210.993913 249.59392 217.799486 
C 249.59392 224.60506 252.297803 231.132811 257.11007 235.945078 
C 261.922337 240.757345 268.450089 243.461228 275.255662 243.461228 
z
" style="fill:none;stroke:#0000ff;"/>
   </g>
   <g id="PathCollection_5">
    <path clip-path="url(#p34e2054343)" d="M 302.783216 210.822401 
C 309.290697 210.822401 315.532525 208.236951 320.134009 203.635467 
C 324.735493 199.033983 327.320942 192.792156 327.320942 186.284675 
C 327.320942 179.777193 324.735493 173.535366 320.134009 168.933882 
C 315.532525 164.332398 309.290697 161.746948 302.783216 161.746948 
C 296.275735 161.746948 290.033908 164.332398 285.432424 168.933882 
C 280.83094 173.535366 278.24549 179.777193 278.24549 186.284675 
C 278.24549 192.792156 280.83094 199.033983 285.432424 203.635467 
C 290.033908 208.236951 296.275735 210.822401 302.783216 210.822401 
z
" style="fill:none;stroke:#0000ff;"/>
   </g>
   <g id="PathCollection_6">
    <path clip-path="url(#p34e2054343)" d="M 189.821467 300.279444 
C 191.688278 300.279444 193.478881 299.537752 194.798916 298.217717 
C 196.118951 296.897682 196.860643 295.107079 196.860643 293.240268 
C 196.860643 291.373457 196.118951 289.582854 194.798916 288.262819 
C 193.478881 286.942784 191.688278 286.201092 189.821467 286.201092 
C 187.954655 286.201092 186.164052 286.942784 184.844017 288.262819 
C 183.523983 289.582854 182.782291 291.373457 182.782291 293.240268 
C 182.782291 295.107079 183.523983 296.897682 184.844017 298.217717 
C 186.164052 299.537752 187.954655 300.279444 189.821467 300.279444 
z
" style="fill:none;stroke:#0000ff;"/>
   </g>
   <g id="PathCollection_7">
    <path clip-path="url(#p34e2054343)" d="M 201.968273 287.245723 
C 204.07451 287.245723 206.094765 286.408906 207.584099 284.919571 
C 209.073434 283.430237 209.91025 281.409983 209.91025 279.303746 
C 209.91025 277.197509 209.073434 275.177254 207.584099 273.68792 
C 206.094765 272.198585 204.07451 271.361768 201.968273 271.361768 
C 199.862036 271.361768 197.841782 272.198585 196.352447 273.68792 
C 194.863113 275.177254 194.026296 277.197509 194.026296 279.303746 
C 194.026296 281.409983 194.863113 283.430237 196.352447 284.919571 
C 197.841782 286.408906 199.862036 287.245723 201.968273 287.245723 
z
" style="fill:none;stroke:#0000ff;"/>
   </g>
   <g id="PathCollection_8">
    <path clip-path="url(#p34e2054343)" d="M 212.372246 278.950058 
C 215.443052 278.950058 218.3885 277.730013 220.559889 275.558625 
C 222.731277 273.387236 223.951322 270.441789 223.951322 267.370982 
C 223.951322 264.300175 222.731277 261.354727 220.559889 259.183339 
C 218.3885 257.01195 215.443052 255.791906 212.372246 255.791906 
C 209.301439 255.791906 206.355991 257.01195 204.184603 259.183339 
C 202.013214 261.354727 200.79317 264.300175 200.79317 267.370982 
C 200.79317 270.441789 202.013214 273.387236 204.184603 275.558625 
C 206.355991 277.730013 209.301439 278.950058 212.372246 278.950058 
z
" style="fill:none;stroke:#0000ff;"/>
   </g>
   <g id="PathCollection_9">
    <path clip-path="url(#p34e2054343)" d="M 224.437851 265.412674 
C 227.582773 265.412674 230.59931 264.163184 232.823106 261.939388 
C 235.046901 259.715592 236.296392 256.699055 236.296392 253.554133 
C 236.296392 250.409211 235.046901 247.392674 232.823106 245.168878 
C 230.59931 242.945083 227.582773 241.695592 224.437851 241.695592 
C 221.292929 241.695592 218.276391 242.945083 216.052596 245.168878 
C 213.8288 247.392674 212.579309 250.409211 212.579309 253.554133 
C 212.579309 256.699055 213.8288 259.715592 216.052596 261.939388 
C 218.276391 264.163184 221.292929 265.412674 224.437851 265.412674 
z
" style="fill:none;stroke:#0000ff;"/>
   </g>
   <g id="PathCollection_10">
    <path clip-path="url(#p34e2054343)" d="M 240.718925 248.730199 
C 244.385304 248.730199 247.902011 247.273531 250.494533 244.68101 
C 253.087054 242.088488 254.543722 238.571781 254.543722 234.905402 
C 254.543722 231.239023 253.087054 227.722316 250.494533 225.129795 
C 247.902011 222.537273 244.385304 221.080606 240.718925 221.080606 
C 237.052546 221.080606 233.535839 222.537273 230.943318 225.129795 
C 228.350797 227.722316 226.894129 231.239023 226.894129 234.905402 
C 226.894129 238.571781 228.350797 242.088488 230.943318 244.68101 
C 233.535839 247.273531 237.052546 248.730199 240.718925 248.730199 
z
" style="fill:none;stroke:#0000ff;"/>
   </g>
   <g id="PathCollection_11">
    <path clip-path="url(#p34e2054343)" d="M 281.707651 213.346767 
C 288.437098 213.346767 294.89183 210.673129 299.650268 205.914692 
C 304.408705 201.156254 307.082343 194.701522 307.082343 187.972075 
C 307.082343 181.242628 304.408705 174.787896 299.650268 170.029458 
C 294.89183 165.27102 288.437098 162.597383 281.707651 162.597383 
C 274.978204 162.597383 268.523471 165.27102 263.765034 170.029458 
C 259.006596 174.787896 256.332959 181.242628 256.332959 187.972075 
C 256.332959 194.701522 259.006596 201.156254 263.765034 205.914692 
C 268.523471 210.673129 274.978204 213.346767 281.707651 213.346767 
z
" style="fill:none;stroke:#0000ff;"/>
   </g>
   <g id="PathCollection_12">
    <path clip-path="url(#p34e2054343)" d="M 291.733901 183.011064 
C 293.263137 183.011064 294.729945 182.403492 295.811278 181.322159 
C 296.892611 180.240826 297.500183 178.774018 297.500183 177.244783 
C 297.500183 175.715547 296.892611 174.248739 295.811278 173.167406 
C 294.729945 172.086073 293.263137 171.478501 291.733901 171.478501 
C 290.204666 171.478501 288.737858 172.086073 287.656525 173.167406 
C 286.575192 174.248739 285.96762 175.715547 285.96762 177.244783 
C 285.96762 178.774018 286.575192 180.240826 287.656525 181.322159 
C 288.737858 182.403492 290.204666 183.011064 291.733901 183.011064 
z
" style="fill:none;stroke:#0000ff;"/>
   </g>
   <g id="PathCollection_13">
    <path clip-path="url(#p34e2054343)" d="M 333.850712 141.835984 
C 337.444434 141.835984 340.89145 140.408183 343.432596 137.867037 
C 345.973741 135.325892 347.401542 131.878876 347.401542 128.285153 
C 347.401542 124.691431 345.973741 121.244415 343.432596 118.703269 
C 340.89145 116.162124 337.444434 114.734323 333.850712 114.734323 
C 330.25699 114.734323 326.809973 116.162124 324.268828 118.703269 
C 321.727683 121.244415 320.299882 124.691431 320.299882 128.285153 
C 320.299882 131.878876 321.727683 135.325892 324.268828 137.867037 
C 326.809973 140.408183 330.25699 141.835984 333.850712 141.835984 
z
" style="fill:none;stroke:#0000ff;"/>
   </g>
   <g id="PathCollection_14">
    <path clip-path="url(#p34e2054343)" d="M 396.782696 61.381321 
C 398.151771 61.381321 399.464956 60.837381 400.433038 59.869299 
C 401.40112 58.901217 401.94506 57.588032 401.94506 56.218957 
C 401.94506 54.849882 401.40112 53.536697 400.433038 52.568614 
C 399.464956 51.600532 398.151771 51.056593 396.782696 51.056593 
C 395.413621 51.056593 394.100435 51.600532 393.132353 52.568614 
C 392.164271 53.536697 391.620332 54.849882 391.620332 56.218957 
C 391.620332 57.588032 392.164271 58.901217 393.132353 59.869299 
C 394.100435 60.837381 395.413621 61.381321 396.782696 61.381321 
z
" style="fill:none;stroke:#0000ff;"/>
   </g>
   <g id="PathCollection_15">
    <path clip-path="url(#p34e2054343)" d="M 191.209813 268.657786 
C 194.400251 268.657786 197.460447 267.390211 199.716428 265.134231 
C 201.972409 262.87825 203.239983 259.818054 203.239983 256.627616 
C 203.239983 253.437177 201.972409 250.376981 199.716428 248.121001 
C 197.460447 245.86502 194.400251 244.597445 191.209813 244.597445 
C 188.019374 244.597445 184.959179 245.86502 182.703198 248.121001 
C 180.447217 250.376981 179.179643 253.437177 179.179643 256.627616 
C 179.179643 259.818054 180.447217 262.87825 182.703198 265.134231 
C 184.959179 267.390211 188.019374 268.657786 191.209813 268.657786 
z
" style="fill:none;stroke:#0000ff;"/>
   </g>
   <g id="PathCollection_16">
    <path clip-path="url(#p34e2054343)" d="M 207.382266 250.210722 
C 210.588647 250.210722 213.664135 248.936814 215.931389 246.66956 
C 218.198643 244.402306 219.472551 241.326818 219.472551 238.120437 
C 219.472551 234.914056 218.198643 231.838568 215.931389 229.571314 
C 213.664135 227.30406 210.588647 226.030152 207.382266 226.030152 
C 204.175885 226.030152 201.100397 227.30406 198.833143 229.571314 
C 196.565889 231.838568 195.291981 234.914056 195.291981 238.120437 
C 195.291981 241.326818 196.565889 244.402306 198.833143 246.66956 
C 201.100397 248.936814 204.175885 250.210722 207.382266 250.210722 
z
" style="fill:none;stroke:#0000ff;"/>
   </g>
   <g id="PathCollection_17">
    <path clip-path="url(#p34e2054343)" d="M 231.505125 224.54299 
C 235.229553 224.54299 238.801939 223.063259 241.435508 220.429691 
C 244.069076 217.796123 245.548807 214.223736 245.548807 210.499308 
C 245.548807 206.77488 244.069076 203.202494 241.435508 200.568925 
C 238.801939 197.935357 235.229553 196.455626 231.505125 196.455626 
C 227.780697 196.455626 224.20831 197.935357 221.574742 200.568925 
C 218.941174 203.202494 217.461443 206.77488 217.461443 210.499308 
C 217.461443 214.223736 218.941174 217.796123 221.574742 220.429691 
C 224.20831 223.063259 227.780697 224.54299 231.505125 224.54299 
z
" style="fill:none;stroke:#0000ff;"/>
   </g>
   <g id="PathCollection_18">
    <path clip-path="url(#p34e2054343)" d="M 245.677282 208.084309 
C 249.33622 208.084309 252.845789 206.630598 255.433049 204.043338 
C 258.020309 201.456078 259.47402 197.946508 259.47402 194.28757 
C 259.47402 190.628632 258.020309 187.119063 255.433049 184.531803 
C 252.845789 181.944543 249.33622 180.490832 245.677282 180.490832 
C 242.018344 180.490832 238.508774 181.944543 235.921514 184.531803 
C 233.334254 187.119063 231.880543 190.628632 231.880543 194.28757 
C 231.880543 197.946508 233.334254 201.456078 235.921514 204.043338 
C 238.508774 206.630598 242.018344 208.084309 245.677282 208.084309 
z
" style="fill:none;stroke:#0000ff;"/>
   </g>
   <g id="PathCollection_19">
    <path clip-path="url(#p34e2054343)" d="M 172.442027 285.831757 
C 174.478228 285.831757 176.431305 285.022766 177.871116 283.582955 
C 179.310927 282.143144 180.119918 280.190067 180.119918 278.153867 
C 180.119918 276.117667 179.310927 274.16459 177.871116 272.724779 
C 176.431305 271.284968 174.478228 270.475977 172.442027 270.475977 
C 170.405827 270.475977 168.45275 271.284968 167.012939 272.724779 
C 165.573128 274.16459 164.764137 276.117667 164.764137 278.153867 
C 164.764137 280.190067 165.573128 282.143144 167.012939 283.582955 
C 168.45275 285.022766 170.405827 285.831757 172.442027 285.831757 
z
" style="fill:none;stroke:#0000ff;"/>
   </g>
   <g id="PathCollection_20">
    <path clip-path="url(#p34e2054343)" d="M 221.424923 243.51494 
C 226.303147 243.51494 230.982227 241.576801 234.431652 238.127377 
C 237.881077 234.677952 239.819216 229.998871 239.819216 225.120647 
C 239.819216 220.242424 237.881077 215.563343 234.431652 212.113918 
C 230.982227 208.664494 226.303147 206.726355 221.424923 206.726355 
C 216.5467 206.726355 211.867619 208.664494 208.418194 212.113918 
C 204.968769 215.563343 203.030631 220.242424 203.030631 225.120647 
C 203.030631 229.998871 204.968769 234.677952 208.418194 238.127377 
C 211.867619 241.576801 216.5467 243.51494 221.424923 243.51494 
z
" style="fill:none;stroke:#0000ff;"/>
   </g>
   <g id="PathCollection_21">
    <path clip-path="url(#p34e2054343)" d="M 355.166941 78.513787 
C 356.895854 78.513787 358.554188 77.826883 359.776713 76.604357 
C 360.999239 75.381831 361.686144 73.723498 361.686144 71.994585 
C 361.686144 70.265672 360.999239 68.607339 359.776713 67.384813 
C 358.554188 66.162287 356.895854 65.475383 355.166941 65.475383 
C 353.438028 65.475383 351.779695 66.162287 350.557169 67.384813 
C 349.334643 68.607339 348.647739 70.265672 348.647739 71.994585 
C 348.647739 73.723498 349.334643 75.381831 350.557169 76.604357 
C 351.779695 77.826883 353.438028 78.513787 355.166941 78.513787 
z
" style="fill:none;stroke:#0000ff;"/>
   </g>
   <g id="PathCollection_22">
    <path clip-path="url(#p34e2054343)" d="M 167.612115 293.979723 
C 169.533694 293.979723 171.376829 293.216272 172.73559 291.85751 
C 174.094352 290.498749 174.857803 288.655614 174.857803 286.734035 
C 174.857803 284.812456 174.094352 282.969321 172.73559 281.61056 
C 171.376829 280.251798 169.533694 279.488347 167.612115 279.488347 
C 165.690536 279.488347 163.847401 280.251798 162.488639 281.61056 
C 161.129878 282.969321 160.366426 284.812456 160.366426 286.734035 
C 160.366426 288.655614 161.129878 290.498749 162.488639 291.85751 
C 163.847401 293.216272 165.690536 293.979723 167.612115 293.979723 
z
" style="fill:none;stroke:#0000ff;"/>
   </g>
   <g id="PathCollection_23">
    <path clip-path="url(#p34e2054343)" d="M 80.223012 234.308429 
C 83.480803 234.308429 86.605602 233.014095 88.909208 230.710489 
C 91.212814 228.406882 92.507148 225.282084 92.507148 222.024293 
C 92.507148 218.766502 91.212814 215.641703 88.909208 213.338097 
C 86.605602 211.034491 83.480803 209.740157 80.223012 209.740157 
C 76.965221 209.740157 73.840422 211.034491 71.536816 213.338097 
C 69.23321 215.641703 67.938876 218.766502 67.938876 222.024293 
C 67.938876 225.282084 69.23321 228.406882 71.536816 230.710489 
C 73.840422 233.014095 76.965221 234.308429 80.223012 234.308429 
z
" style="fill:none;stroke:#0000ff;"/>
   </g>
   <g id="PathCollection_24">
    <path clip-path="url(#p34e2054343)" d="M 125.408965 152.445196 
C 127.086257 152.445196 128.695077 151.778801 129.881101 150.592776 
C 131.067126 149.406752 131.733521 147.797932 131.733521 146.12064 
C 131.733521 144.443349 131.067126 142.834529 129.881101 141.648504 
C 128.695077 140.46248 127.086257 139.796085 125.408965 139.796085 
C 123.731674 139.796085 122.122854 140.46248 120.936829 141.648504 
C 119.750805 142.834529 119.08441 144.443349 119.08441 146.12064 
C 119.08441 147.797932 119.750805 149.406752 120.936829 150.592776 
C 122.122854 151.778801 123.731674 152.445196 125.408965 152.445196 
z
" style="fill:none;stroke:#0000ff;"/>
   </g>
   <g id="PathCollection_25">
    <path clip-path="url(#p34e2054343)" d="M 111.705288 196.400534 
C 113.831052 196.400534 115.870037 195.555959 117.37318 194.052816 
C 118.876322 192.549674 119.720898 190.510689 119.720898 188.384924 
C 119.720898 186.259159 118.876322 184.220175 117.37318 182.717032 
C 115.870037 181.213889 113.831052 180.369314 111.705288 180.369314 
C 109.579523 180.369314 107.540538 181.213889 106.037396 182.717032 
C 104.534253 184.220175 103.689678 186.259159 103.689678 188.384924 
C 103.689678 190.510689 104.534253 192.549674 106.037396 194.052816 
C 107.540538 195.555959 109.579523 196.400534 111.705288 196.400534 
z
" style="fill:none;stroke:#0000ff;"/>
   </g>
   <g id="matplotlib.axis_1">
    <g id="xtick_1">
     <g id="line2d_1">
      <defs>
       <path d="M 0 0 
L 0 3.5 
" id="md20b70f0f9" style="stroke:#000000;stroke-width:0.8;"/>
      </defs>
      <g>
       <use style="stroke:#000000;stroke-width:0.8;" x="103.564593" xlink:href="#md20b70f0f9" y="307.584"/>
      </g>
     </g>
     <g id="text_1">
      <!-- 4.5 -->
      <defs>
       <path d="M 35.359375 22.953125 
L 46.78125 22.953125 
L 46.78125 20.21875 
L 35.359375 20.21875 
L 35.359375 14.65625 
Q 35.453125 10.15625 42.28125 10.15625 
L 42.28125 7.421875 
L 21.484375 7.421875 
L 21.484375 10.15625 
Q 28.328125 10.15625 28.328125 14.65625 
L 28.328125 20.21875 
L 3.21875 20.21875 
L 3.21875 23.640625 
L 32.125 67.78125 
L 35.359375 67.78125 
z
M 28.328125 22.953125 
L 28.328125 56.9375 
L 6.453125 22.953125 
z
" id="UKaiTW-34"/>
       <path d="M 22.171875 4.390625 
Q 18.171875 8.40625 18.171875 11.234375 
Q 18.171875 14.0625 20.171875 16.0625 
Q 22.171875 18.0625 25 18.0625 
Q 27.828125 18.0625 29.828125 16.0625 
Q 31.84375 14.0625 31.84375 11.234375 
Q 31.84375 8.40625 29.828125 6.390625 
Q 27.828125 4.390625 25 4.390625 
Q 22.171875 4.390625 18.171875 8.40625 
z
" id="UKaiTW-2e"/>
       <path d="M 42 67.78125 
L 39.84375 62.890625 
L 13.28125 62.890625 
L 13.28125 40.4375 
Q 19.34375 43.953125 26.765625 43.953125 
Q 33.796875 43.953125 38.671875 39.75 
Q 45.3125 34.1875 45.3125 24.125 
Q 45.3125 15.71875 39.0625 10.84375 
Q 33.40625 6.453125 25.203125 6.453125 
Q 17 6.453125 9.96875 11.140625 
Q 4.6875 14.546875 4.6875 18.265625 
Q 4.6875 20.609375 6.25 22.078125 
Q 7.421875 23.34375 9.578125 23.34375 
Q 11.625 23.34375 13.09375 21.6875 
Q 14.65625 20.125 14.65625 18.265625 
Q 14.65625 17.484375 13.875 16.890625 
Q 13.09375 16.21875 13.28125 15.53125 
Q 13.765625 13.96875 16.40625 12.3125 
Q 21.484375 9.1875 25.203125 9.1875 
Q 29.5 9.1875 33.40625 12.703125 
Q 37.890625 16.796875 37.890625 24.125 
Q 37.890625 32.8125 32.8125 37.703125 
Q 29.296875 41.21875 24.21875 41.21875 
Q 18.171875 41.21875 11.140625 36.625 
L 10.15625 37.890625 
L 10.15625 67.78125 
z
" id="UKaiTW-35"/>
      </defs>
      <g transform="translate(93.064593 324.209)scale(0.14 -0.14)">
       <use xlink:href="#UKaiTW-34"/>
       <use x="50" xlink:href="#UKaiTW-2e"/>
       <use x="100" xlink:href="#UKaiTW-35"/>
      </g>
     </g>
    </g>
    <g id="xtick_2">
     <g id="line2d_2">
      <g>
       <use style="stroke:#000000;stroke-width:0.8;" x="159.689436" xlink:href="#md20b70f0f9" y="307.584"/>
      </g>
     </g>
     <g id="text_2">
      <!-- 5.0 -->
      <defs>
       <path d="M 45.125 23.640625 
Q 33.5 6.453125 25 6.453125 
Q 16.5 6.453125 10.6875 15.046875 
Q 4.890625 23.640625 4.890625 36.421875 
Q 4.890625 48.828125 9.859375 58.015625 
Q 15.625 68.65625 25 68.65625 
Q 34.375 68.65625 40.140625 58.015625 
Q 45.125 48.828125 45.125 36.421875 
Q 45.125 23.640625 33.5 6.453125 
z
M 12.3125 20.90625 
Q 19.734375 9.1875 25 9.1875 
Q 30.28125 9.1875 33.984375 15.046875 
Q 37.703125 20.90625 37.703125 36.421875 
Q 37.703125 50.59375 33.40625 59.578125 
Q 30.375 65.921875 25 65.921875 
Q 19.625 65.921875 16.609375 59.578125 
Q 12.3125 50.59375 12.3125 36.421875 
Q 12.3125 20.90625 19.734375 9.1875 
z
" id="UKaiTW-30"/>
      </defs>
      <g transform="translate(149.189436 324.209)scale(0.14 -0.14)">
       <use xlink:href="#UKaiTW-35"/>
       <use x="50" xlink:href="#UKaiTW-2e"/>
       <use x="100" xlink:href="#UKaiTW-30"/>
      </g>
     </g>
    </g>
    <g id="xtick_3">
     <g id="line2d_3">
      <g>
       <use style="stroke:#000000;stroke-width:0.8;" x="215.814279" xlink:href="#md20b70f0f9" y="307.584"/>
      </g>
     </g>
     <g id="text_3">
      <!-- 5.5 -->
      <g transform="translate(205.314279 324.209)scale(0.14 -0.14)">
       <use xlink:href="#UKaiTW-35"/>
       <use x="50" xlink:href="#UKaiTW-2e"/>
       <use x="100" xlink:href="#UKaiTW-35"/>
      </g>
     </g>
    </g>
    <g id="xtick_4">
     <g id="line2d_4">
      <g>
       <use style="stroke:#000000;stroke-width:0.8;" x="271.939122" xlink:href="#md20b70f0f9" y="307.584"/>
      </g>
     </g>
     <g id="text_4">
      <!-- 6.0 -->
      <defs>
       <path d="M 12.015625 58.890625 
Q 18.453125 68.65625 28.21875 68.65625 
Q 34.078125 68.65625 38.1875 65.53125 
Q 42.96875 61.921875 42.96875 57.90625 
Q 42.96875 55.859375 41.3125 54.390625 
Q 39.546875 53.328125 38.28125 53.328125 
Q 36.625 53.328125 35.25 54.59375 
Q 33.6875 56.0625 33.6875 57.90625 
Q 33.6875 59.578125 34.578125 60.546875 
Q 35.15625 61.234375 33.296875 63.484375 
Q 31.25 65.921875 28.328125 65.921875 
Q 22.171875 65.921875 17.671875 58.59375 
Q 12.890625 50.875 12.3125 38.578125 
Q 20.40625 45.3125 27.828125 45.3125 
Q 34.671875 45.3125 39.453125 41.015625 
Q 45.125 35.9375 45.125 25.484375 
Q 45.125 17 39.0625 11.53125 
Q 33.40625 6.453125 24.90625 6.453125 
Q 16.5 6.453125 10.546875 13.765625 
Q 4.78125 20.90625 4.78125 32.625 
Q 4.78125 47.953125 12.015625 58.890625 
z
M 12.203125 32.625 
Q 12.203125 20.015625 15.828125 14.65625 
Q 19.53125 9.1875 24.90625 9.1875 
Q 31.0625 9.1875 34.1875 12.984375 
Q 37.703125 17.28125 37.703125 25.484375 
Q 37.703125 34.46875 34.578125 37.890625 
Q 31.25 41.5 25.984375 41.5 
Q 21 41.5 12.203125 35.15625 
z
" id="UKaiTW-36"/>
      </defs>
      <g transform="translate(261.445684 324.209)scale(0.14 -0.14)">
       <use xlink:href="#UKaiTW-36"/>
       <use x="49.902344" xlink:href="#UKaiTW-2e"/>
       <use x="99.902344" xlink:href="#UKaiTW-30"/>
      </g>
     </g>
    </g>
    <g id="xtick_5">
     <g id="line2d_5">
      <g>
       <use style="stroke:#000000;stroke-width:0.8;" x="328.063964" xlink:href="#md20b70f0f9" y="307.584"/>
      </g>
     </g>
     <g id="text_5">
      <!-- 6.5 -->
      <g transform="translate(317.570527 324.209)scale(0.14 -0.14)">
       <use xlink:href="#UKaiTW-36"/>
       <use x="49.902344" xlink:href="#UKaiTW-2e"/>
       <use x="99.902344" xlink:href="#UKaiTW-35"/>
      </g>
     </g>
    </g>
    <g id="xtick_6">
     <g id="line2d_6">
      <g>
       <use style="stroke:#000000;stroke-width:0.8;" x="384.188807" xlink:href="#md20b70f0f9" y="307.584"/>
      </g>
     </g>
     <g id="text_6">
      <!-- 7.0 -->
      <defs>
       <path d="M 24.515625 10.15625 
Q 24.515625 8.59375 23.4375 7.515625 
Q 22.359375 6.453125 20.796875 6.453125 
Q 19.234375 6.453125 18.15625 7.515625 
Q 17.09375 8.59375 17.09375 10.15625 
Q 17.09375 23.34375 21.578125 34.578125 
Q 25.6875 44.4375 40.234375 62.890625 
L 29.984375 62.890625 
Q 20.703125 62.890625 16.109375 60.359375 
Q 12.5 58.296875 7.125 47.171875 
L 4.890625 48.828125 
L 10.359375 67.78125 
L 45.125 67.78125 
L 45.125 65.046875 
Q 33.203125 49.703125 29.109375 39.359375 
Q 24.515625 27.828125 24.515625 10.15625 
z
" id="UKaiTW-37"/>
      </defs>
      <g transform="translate(373.688807 324.209)scale(0.14 -0.14)">
       <use xlink:href="#UKaiTW-37"/>
       <use x="50" xlink:href="#UKaiTW-2e"/>
       <use x="100" xlink:href="#UKaiTW-30"/>
      </g>
     </g>
    </g>
    <g id="text_7">
     <!-- math.log(orbit_major,10) -->
     <defs>
      <path d="M 11.234375 42.671875 
Q 14.84375 48.34375 21 48.34375 
Q 23.828125 48.34375 26.265625 46.09375 
Q 27.640625 44.734375 28.21875 42.671875 
Q 32.03125 48.34375 38.28125 48.34375 
Q 41.109375 48.34375 43.5625 46.09375 
Q 45.796875 43.953125 45.796875 39.75 
L 45.796875 13.28125 
Q 45.796875 10.15625 48.34375 10.15625 
L 48.34375 7.421875 
L 36.328125 7.421875 
L 36.328125 10.15625 
Q 38.875 10.15625 38.875 13.28125 
L 38.875 39.75 
Q 38.875 44.4375 36.140625 44.4375 
Q 31.453125 44.4375 28.515625 39.15625 
L 28.515625 13.28125 
Q 28.515625 10.15625 31.0625 10.15625 
L 31.0625 7.421875 
L 19.046875 7.421875 
L 19.046875 10.15625 
Q 21.578125 10.15625 21.578125 13.28125 
L 21.578125 39.75 
Q 21.578125 44.4375 18.84375 44.4375 
Q 14.15625 44.4375 11.234375 38.375 
L 11.234375 13.28125 
Q 11.234375 10.15625 13.765625 10.15625 
L 13.765625 7.421875 
L 1.765625 7.421875 
L 1.765625 10.15625 
Q 4.296875 10.15625 4.296875 13.28125 
L 4.296875 37.015625 
Q 4.296875 40.046875 1.765625 40.046875 
L 1.765625 42.1875 
L 9.078125 47.359375 
L 11.234375 47.359375 
z
" id="UKaiTW-6d"/>
      <path d="M 39.9375 12.59375 
Q 39.9375 10.84375 41.703125 10.84375 
Q 43.265625 10.84375 45.125 12.703125 
L 46.78125 10.546875 
Q 42.671875 6.453125 38.1875 6.453125 
Q 35.75 6.453125 34.578125 7.625 
Q 33.015625 9.1875 33.015625 11.234375 
L 33.015625 11.8125 
Q 30.859375 10.15625 29.296875 9.375 
Q 23.140625 6.453125 16.015625 6.453125 
Q 11.328125 6.453125 7.515625 9.28125 
Q 3.328125 12.40625 3.328125 17.875 
Q 3.328125 24.03125 9.765625 27.640625 
Q 15.71875 30.953125 25.484375 30.953125 
Q 29.203125 30.953125 33.015625 29.6875 
L 33.015625 37.703125 
Q 33.015625 41.40625 30.171875 43.65625 
Q 27.734375 45.609375 24.421875 45.609375 
Q 22.46875 45.609375 20.171875 44.328125 
Q 17.875 43.0625 17.875 39.75 
Q 17.875 37.3125 16.109375 36.421875 
Q 14.15625 35.453125 12.890625 35.453125 
Q 10.84375 35.453125 9.859375 36.625 
Q 8.40625 38.28125 8.40625 39.75 
Q 8.40625 43.453125 12.703125 45.796875 
Q 17.390625 48.34375 23.734375 48.34375 
Q 30.5625 48.34375 35.25 44.625 
Q 39.9375 40.921875 39.9375 35.0625 
z
M 30.765625 27.9375 
Q 21 27.9375 15.4375 24.90625 
Q 10.25 22.078125 10.25 17.875 
Q 10.25 15.4375 12.203125 12.703125 
Q 13.96875 10.25 19.625 10.25 
Q 24.3125 10.25 28.21875 12.5 
Q 30.671875 13.96875 33.015625 16.015625 
L 33.015625 27.640625 
z
" id="UKaiTW-61"/>
      <path d="M 18.171875 44.625 
L 4.59375 44.625 
L 4.59375 47.359375 
Q 14.9375 47.359375 18.453125 51.265625 
Q 22.5625 55.859375 22.5625 61.8125 
L 25.09375 61.8125 
L 25.09375 47.359375 
L 42.671875 47.359375 
L 41.609375 44.625 
L 25.09375 44.625 
L 25.09375 17.390625 
Q 25.09375 14.75 26.765625 12.59375 
Q 28.125 10.84375 31.734375 10.84375 
Q 35.0625 10.84375 37.703125 13.375 
Q 41.3125 16.890625 42.671875 20.40625 
L 45.515625 19.234375 
Q 42.484375 11.921875 38.875 9.375 
Q 34.765625 6.453125 29.390625 6.453125 
Q 24.515625 6.453125 21.390625 9.28125 
Q 18.171875 12.203125 18.171875 17.390625 
z
" id="UKaiTW-74"/>
      <path d="M 41.5 15.234375 
Q 41.5 10.15625 47.953125 10.15625 
L 47.953125 7.421875 
L 28.125 7.421875 
L 28.125 10.15625 
Q 34.578125 10.15625 34.578125 15.234375 
L 34.578125 38.875 
Q 34.578125 43.953125 29.109375 43.953125 
Q 23.828125 43.953125 15.53125 37.40625 
L 15.53125 15.234375 
Q 15.53125 10.15625 21.96875 10.15625 
L 21.96875 7.421875 
L 2.15625 7.421875 
L 2.15625 10.15625 
Q 8.59375 10.15625 8.59375 15.234375 
L 8.59375 56.0625 
Q 8.59375 61.03125 2.25 61.03125 
L 2.25 63.1875 
L 13.375 68.359375 
L 15.53125 68.359375 
L 15.53125 40.234375 
Q 24.3125 48.34375 29.109375 48.34375 
Q 41.5 48.34375 41.5 38.875 
z
" id="UKaiTW-68"/>
      <path d="M 28.515625 15.234375 
Q 28.515625 10.15625 34.96875 10.15625 
L 39.84375 10.15625 
L 39.84375 7.421875 
L 10.25 7.421875 
L 10.25 10.15625 
L 15.140625 10.15625 
Q 21.578125 10.15625 21.578125 15.234375 
L 21.578125 58.40625 
Q 21.578125 60.359375 10.25 60.359375 
L 10.25 63.09375 
Q 20.515625 63.09375 25.78125 68.75 
L 28.515625 68.75 
z
" id="UKaiTW-6c"/>
      <path d="M 19.53125 45.515625 
Q 11.8125 34.859375 11.8125 27.34375 
Q 11.8125 19.828125 15.671875 14.5 
Q 19.53125 9.1875 25 9.1875 
Q 30.46875 9.1875 34.328125 14.5 
Q 38.1875 19.828125 38.1875 27.34375 
Q 38.1875 34.859375 34.328125 40.1875 
Q 30.46875 45.515625 25 45.515625 
Q 19.53125 45.515625 11.8125 34.859375 
z
M 16.703125 6.453125 
Q 4.890625 18.65625 4.890625 27.34375 
Q 4.890625 36.03125 10.796875 42.140625 
Q 16.703125 48.25 25 48.25 
Q 33.296875 48.25 39.203125 42.140625 
Q 45.125 36.03125 45.125 27.34375 
Q 45.125 18.65625 39.203125 12.546875 
Q 33.296875 6.453125 25 6.453125 
Q 16.703125 6.453125 4.890625 18.65625 
z
" id="UKaiTW-6f"/>
      <path d="M 22.859375 -4.203125 
Q 15.234375 -4.203125 10.640625 -2.734375 
Q 5.078125 -0.984375 5.078125 3.03125 
Q 5.078125 6.9375 9.46875 10.75 
Q 10.640625 11.71875 12.796875 12.890625 
Q 10.84375 13.484375 10.359375 13.765625 
Q 7.03125 15.625 7.03125 17.78125 
Q 7.03125 20.125 10.75 22.265625 
Q 13.1875 23.734375 15.234375 24.21875 
Q 12.890625 25.09375 11.140625 26.375 
Q 6.25 29.78125 6.25 35.75 
Q 6.25 41.109375 10.84375 44.921875 
Q 14.9375 48.34375 20.3125 48.34375 
Q 24.515625 48.34375 30.859375 45.796875 
Q 33.40625 46.875 34.859375 47.265625 
Q 37.703125 48.53125 39.453125 48.53125 
Q 41.40625 48.53125 42.671875 47.46875 
Q 45.015625 45.515625 45.015625 43.75 
Q 45.015625 42 44.234375 41.015625 
Q 43.453125 40.046875 42.671875 40.046875 
Q 40.828125 40.046875 39.265625 41.890625 
Q 37.703125 43.75 35.25 43.75 
Q 34.671875 43.75 33.984375 43.5625 
Q 38.09375 39.9375 38.09375 34.859375 
Q 38.09375 29.78125 32.90625 26.40625 
Q 27.734375 23.046875 21.6875 23.046875 
Q 20.21875 23.046875 19.234375 23.25 
Q 15.046875 21.296875 15.046875 19.734375 
Q 15.046875 18.265625 25.296875 19.4375 
Q 31.453125 20.125 37.984375 16.5 
Q 43.953125 12.890625 43.953125 6.734375 
Q 43.953125 1.953125 38.96875 -1.171875 
Q 34.078125 -4.203125 22.859375 -4.203125 
z
M 35.453125 10.0625 
Q 32.421875 12.015625 25.296875 12.015625 
Q 20.3125 12.015625 17 12.3125 
Q 15.921875 11.921875 15.328125 11.328125 
Q 12.5 8.796875 12.5 5.765625 
Q 12.5 2.9375 15.921875 1.265625 
Q 19.34375 -0.390625 26.765625 -0.390625 
Q 31.9375 -0.390625 34.96875 1.46875 
Q 38.28125 3.515625 38.28125 5.859375 
Q 38.28125 8.203125 35.453125 10.0625 
z
M 13.671875 39.359375 
Q 13.671875 33.296875 16.5 29.296875 
Q 18.953125 25.875 23.046875 25.875 
Q 25.6875 25.875 27.828125 27.4375 
Q 30.671875 29.5 30.671875 31.84375 
Q 30.671875 37.890625 26.171875 42.28125 
Q 23.140625 45.21875 19.34375 45.21875 
Q 17.484375 45.21875 15.828125 43.65625 
Q 13.671875 41.703125 13.671875 39.359375 
z
" id="UKaiTW-67"/>
      <path d="M 37.890625 82.421875 
L 37.890625 80.28125 
Q 27.9375 71.09375 24.421875 62.59375 
Q 19.53125 51.46875 19.53125 37.890625 
Q 19.53125 25.09375 23.4375 15.625 
Q 27.546875 5.375 37.890625 -4.390625 
L 37.890625 -6.640625 
Q 24.421875 2.734375 17.96875 14.15625 
Q 12.109375 24.21875 12.109375 37.890625 
Q 12.109375 51.5625 18.5625 63.578125 
Q 24.21875 74.03125 37.890625 82.421875 
z
" id="UKaiTW-28"/>
      <path d="M 43.84375 44.34375 
Q 45.125 43.0625 45.125 41.203125 
Q 45.125 39.359375 43.84375 38.078125 
Q 42.578125 36.8125 40.71875 36.8125 
Q 38.375 36.8125 37.59375 38.09375 
Q 35.0625 42.28125 32.125 42.28125 
Q 29.203125 42.28125 25.390625 40.140625 
Q 22.171875 38.28125 18.5625 34.1875 
L 18.5625 15.234375 
Q 18.5625 10.15625 25 10.15625 
L 25 7.421875 
L 5.171875 7.421875 
L 5.171875 10.15625 
Q 11.625 10.15625 11.625 15.234375 
L 11.625 35.0625 
Q 11.625 40.046875 5.28125 40.046875 
L 5.28125 42.1875 
L 16.40625 47.359375 
L 18.5625 47.359375 
L 18.5625 37.5 
Q 21.875 42 25.59375 44.53125 
Q 31.0625 48.34375 34.671875 48.34375 
Q 40.53125 48.34375 43.84375 44.34375 
z
" id="UKaiTW-72"/>
      <path d="M 9.765625 10.75 
L 9.765625 56.453125 
Q 9.765625 61.421875 3.421875 61.421875 
L 3.421875 63.578125 
L 14.546875 68.75 
L 16.703125 68.75 
L 16.703125 43.265625 
Q 22.359375 48.25 27.9375 48.25 
Q 34.765625 48.25 40.671875 42.140625 
Q 46.578125 36.03125 46.578125 27.34375 
Q 46.578125 18.65625 40.671875 12.546875 
Q 34.765625 6.453125 26.46875 6.453125 
Q 14.65625 6.453125 9.765625 10.75 
z
M 16.703125 40.046875 
L 16.703125 12.59375 
Q 20.609375 9.1875 26.265625 9.1875 
Q 31.9375 9.1875 35.796875 14.5 
Q 39.65625 19.828125 39.65625 27.34375 
Q 39.65625 34.859375 35.796875 40.1875 
Q 31.9375 45.515625 26.46875 45.515625 
Q 22.859375 45.40625 16.703125 40.046875 
z
" id="UKaiTW-62"/>
      <path d="M 22.5625 56.015625 
Q 19.140625 59.4375 19.140625 61.875 
Q 19.140625 64.3125 20.84375 66.015625 
Q 22.5625 67.734375 25 67.734375 
Q 27.4375 67.734375 29.140625 66.015625 
Q 30.859375 64.3125 30.859375 61.875 
Q 30.859375 59.4375 29.140625 57.71875 
Q 27.4375 56.015625 25 56.015625 
Q 22.5625 56.015625 19.140625 59.4375 
z
M 28.515625 15.234375 
Q 28.515625 10.15625 34.96875 10.15625 
L 39.84375 10.15625 
L 39.84375 7.421875 
L 10.25 7.421875 
L 10.25 10.15625 
L 15.140625 10.15625 
Q 21.578125 10.15625 21.578125 15.234375 
L 21.578125 37.984375 
Q 21.578125 39.9375 10.25 39.9375 
L 10.25 42.671875 
Q 20.515625 42.671875 25.78125 48.34375 
L 28.515625 48.34375 
z
" id="UKaiTW-69"/>
      <path d="M 0 -6.25 
L 50 -6.25 
L 50 -10.546875 
L 0 -10.546875 
z
" id="UKaiTW-5f"/>
      <path d="M 36.1875 56.015625 
Q 32.765625 59.4375 32.765625 61.875 
Q 32.765625 64.3125 34.46875 66.015625 
Q 36.1875 67.734375 38.625 67.734375 
Q 41.0625 67.734375 42.765625 66.015625 
Q 44.484375 64.3125 44.484375 61.875 
Q 44.484375 59.4375 42.765625 57.71875 
Q 41.0625 56.015625 38.625 56.015625 
Q 36.1875 56.015625 32.765625 59.4375 
z
M 42.09375 48.34375 
L 42.09375 10.75 
Q 42.09375 3.21875 37.3125 -1.171875 
Q 32.421875 -5.671875 22.65625 -5.671875 
Q 15.71875 -5.671875 9.859375 -1.171875 
Q 3.90625 3.421875 3.90625 10.9375 
Q 3.90625 15.328125 5.765625 17.46875 
Q 7.625 19.625 11.140625 19.625 
Q 12.890625 19.625 14.15625 18.0625 
Q 15.234375 16.703125 15.234375 15.140625 
Q 15.234375 13.09375 13.28125 10.9375 
Q 11.421875 8.890625 11.421875 6.734375 
Q 11.421875 2.828125 14.5 -0.046875 
Q 17.578125 -2.9375 22.65625 -2.9375 
Q 29.203125 -2.9375 32.234375 1.171875 
Q 35.15625 5.375 35.15625 11.921875 
L 35.15625 37.984375 
Q 35.15625 39.9375 23.828125 39.9375 
L 23.828125 42.671875 
Q 34.078125 42.671875 39.359375 48.34375 
z
" id="UKaiTW-6a"/>
      <path d="M 31.84375 11.234375 
Q 31.84375 5.765625 27.9375 1.953125 
Q 24.03125 -1.859375 17.09375 -4 
L 15.828125 -1.46875 
Q 19.734375 -0.203125 22.46875 1.5625 
Q 25 3.125 25 4.390625 
Q 22.171875 4.390625 20.171875 6.390625 
Q 18.171875 8.40625 18.171875 11.234375 
Q 18.171875 14.0625 20.171875 16.0625 
Q 22.171875 18.0625 25 18.0625 
Q 27.828125 18.0625 29.828125 16.0625 
Q 31.84375 14.0625 31.84375 11.234375 
z
" id="UKaiTW-2c"/>
      <path d="M 28.515625 67.78125 
L 28.515625 15.53125 
Q 28.515625 10.15625 39.265625 10.15625 
L 39.265625 7.421875 
L 10.75 7.421875 
L 10.75 10.15625 
Q 21.484375 10.15625 21.484375 15.53125 
L 21.484375 56.734375 
Q 21.484375 61.421875 10.9375 61.421875 
L 10.9375 63.578125 
L 27.4375 67.78125 
z
" id="UKaiTW-31"/>
      <path d="M 12.109375 82.421875 
Q 25.78125 74.03125 31.453125 63.578125 
Q 37.890625 51.5625 37.890625 37.890625 
Q 37.890625 24.21875 32.03125 14.15625 
Q 25.59375 2.734375 12.109375 -6.640625 
L 12.109375 -4.390625 
Q 22.46875 5.375 26.5625 15.625 
Q 30.46875 25.09375 30.46875 37.890625 
Q 30.46875 51.46875 25.59375 62.59375 
Q 22.078125 71.09375 12.109375 80.28125 
z
" id="UKaiTW-29"/>
     </defs>
     <g transform="translate(152.16 340.542125)scale(0.14 -0.14)">
      <use xlink:href="#UKaiTW-6d"/>
      <use x="50" xlink:href="#UKaiTW-61"/>
      <use x="100" xlink:href="#UKaiTW-74"/>
      <use x="150" xlink:href="#UKaiTW-68"/>
      <use x="200" xlink:href="#UKaiTW-2e"/>
      <use x="250" xlink:href="#UKaiTW-6c"/>
      <use x="300" xlink:href="#UKaiTW-6f"/>
      <use x="350" xlink:href="#UKaiTW-67"/>
      <use x="400" xlink:href="#UKaiTW-28"/>
      <use x="450" xlink:href="#UKaiTW-6f"/>
      <use x="500" xlink:href="#UKaiTW-72"/>
      <use x="550" xlink:href="#UKaiTW-62"/>
      <use x="600" xlink:href="#UKaiTW-69"/>
      <use x="650" xlink:href="#UKaiTW-74"/>
      <use x="700" xlink:href="#UKaiTW-5f"/>
      <use x="750" xlink:href="#UKaiTW-6d"/>
      <use x="800" xlink:href="#UKaiTW-61"/>
      <use x="850" xlink:href="#UKaiTW-6a"/>
      <use x="900" xlink:href="#UKaiTW-6f"/>
      <use x="950" xlink:href="#UKaiTW-72"/>
      <use x="1000" xlink:href="#UKaiTW-2c"/>
      <use x="1050" xlink:href="#UKaiTW-31"/>
      <use x="1100" xlink:href="#UKaiTW-30"/>
      <use x="1150" xlink:href="#UKaiTW-29"/>
     </g>
    </g>
   </g>
   <g id="matplotlib.axis_2">
    <g id="ytick_1">
     <g id="line2d_7">
      <defs>
       <path d="M 0 0 
L -3.5 0 
" id="m15a2b8fa2c" style="stroke:#000000;stroke-width:0.8;"/>
      </defs>
      <g>
       <use style="stroke:#000000;stroke-width:0.8;" x="57.6" xlink:href="#m15a2b8fa2c" y="291.017111"/>
      </g>
     </g>
     <g id="text_8">
      <!-- 0.0 -->
      <g transform="translate(29.6 295.829611)scale(0.14 -0.14)">
       <use xlink:href="#UKaiTW-30"/>
       <use x="50" xlink:href="#UKaiTW-2e"/>
       <use x="100" xlink:href="#UKaiTW-30"/>
      </g>
     </g>
    </g>
    <g id="ytick_2">
     <g id="line2d_8">
      <g>
       <use style="stroke:#000000;stroke-width:0.8;" x="57.6" xlink:href="#m15a2b8fa2c" y="248.180229"/>
      </g>
     </g>
     <g id="text_9">
      <!-- 0.5 -->
      <g transform="translate(29.6 252.992729)scale(0.14 -0.14)">
       <use xlink:href="#UKaiTW-30"/>
       <use x="50" xlink:href="#UKaiTW-2e"/>
       <use x="100" xlink:href="#UKaiTW-35"/>
      </g>
     </g>
    </g>
    <g id="ytick_3">
     <g id="line2d_9">
      <g>
       <use style="stroke:#000000;stroke-width:0.8;" x="57.6" xlink:href="#m15a2b8fa2c" y="205.343346"/>
      </g>
     </g>
     <g id="text_10">
      <!-- 1.0 -->
      <g transform="translate(29.6 210.155846)scale(0.14 -0.14)">
       <use xlink:href="#UKaiTW-31"/>
       <use x="50" xlink:href="#UKaiTW-2e"/>
       <use x="100" xlink:href="#UKaiTW-30"/>
      </g>
     </g>
    </g>
    <g id="ytick_4">
     <g id="line2d_10">
      <g>
       <use style="stroke:#000000;stroke-width:0.8;" x="57.6" xlink:href="#m15a2b8fa2c" y="162.506464"/>
      </g>
     </g>
     <g id="text_11">
      <!-- 1.5 -->
      <g transform="translate(29.6 167.318964)scale(0.14 -0.14)">
       <use xlink:href="#UKaiTW-31"/>
       <use x="50" xlink:href="#UKaiTW-2e"/>
       <use x="100" xlink:href="#UKaiTW-35"/>
      </g>
     </g>
    </g>
    <g id="ytick_5">
     <g id="line2d_11">
      <g>
       <use style="stroke:#000000;stroke-width:0.8;" x="57.6" xlink:href="#m15a2b8fa2c" y="119.669581"/>
      </g>
     </g>
     <g id="text_12">
      <!-- 2.0 -->
      <defs>
       <path d="M 29 33.015625 
Q 18.5625 26.375 13.875 20.21875 
Q 10.75 16.796875 9.859375 11.8125 
L 27.734375 11.8125 
Q 37.3125 11.8125 43.0625 19.734375 
L 44.734375 18.953125 
L 40.53125 7.421875 
L 4.6875 7.421875 
Q 4.6875 15.234375 8.890625 20.3125 
Q 13.578125 27.25 25.484375 35.640625 
Q 37.890625 44.4375 37.890625 51.859375 
Q 37.890625 58.203125 33.296875 62.59375 
Q 29.78125 65.921875 25.09375 65.921875 
Q 20.515625 65.921875 16.890625 63.234375 
Q 13.28125 60.546875 13.28125 58.6875 
Q 13.28125 56.9375 14.0625 55.859375 
Q 15.4375 54 15.4375 51.765625 
Q 15.4375 50.59375 14.0625 49.125 
Q 12.703125 47.65625 10.640625 47.65625 
Q 8.203125 47.65625 6.640625 49.125 
Q 4.890625 50.78125 4.890625 53.21875 
Q 4.890625 59.1875 11.140625 64.15625 
Q 16.609375 68.65625 25.203125 68.65625 
Q 33.796875 68.65625 39.65625 63.875 
Q 45.3125 59.28125 45.3125 51.859375 
Q 45.3125 43.359375 29 33.015625 
z
" id="UKaiTW-32"/>
      </defs>
      <g transform="translate(29.6 124.482081)scale(0.14 -0.14)">
       <use xlink:href="#UKaiTW-32"/>
       <use x="50" xlink:href="#UKaiTW-2e"/>
       <use x="100" xlink:href="#UKaiTW-30"/>
      </g>
     </g>
    </g>
    <g id="ytick_6">
     <g id="line2d_12">
      <g>
       <use style="stroke:#000000;stroke-width:0.8;" x="57.6" xlink:href="#m15a2b8fa2c" y="76.832699"/>
      </g>
     </g>
     <g id="text_13">
      <!-- 2.5 -->
      <g transform="translate(29.6 81.645199)scale(0.14 -0.14)">
       <use xlink:href="#UKaiTW-32"/>
       <use x="50" xlink:href="#UKaiTW-2e"/>
       <use x="100" xlink:href="#UKaiTW-35"/>
      </g>
     </g>
    </g>
    <g id="text_14">
     <!-- math.log(rev_cycle,10) -->
     <defs>
      <path d="M 12.109375 31.34375 
L 37.890625 31.34375 
Q 37.109375 36.328125 34.375 40.234375 
Q 30.46875 45.515625 25 45.515625 
Q 19.53125 45.515625 15.625 40.234375 
Q 12.890625 36.328125 12.109375 31.34375 
z
M 42.390625 20.21875 
L 44.828125 19.4375 
Q 43.265625 15.625 40.140625 12.5 
Q 34.078125 6.453125 25.203125 6.453125 
Q 16.703125 6.453125 10.75 12.5 
Q 4.890625 18.453125 4.890625 27.34375 
Q 4.890625 36.03125 10.75 42.1875 
Q 16.5 48.25 25 48.25 
Q 33.296875 48.25 39.265625 42.1875 
Q 44.53125 36.71875 45.125 28.609375 
L 11.8125 28.609375 
Q 11.8125 28.03125 11.8125 23.921875 
Q 11.8125 19.828125 15.625 14.453125 
Q 19.34375 9.1875 25.203125 9.1875 
Q 32.90625 9.1875 38.375 14.453125 
Q 41.015625 17 42.390625 20.21875 
z
" id="UKaiTW-65"/>
      <path d="M 27.25 7.421875 
L 24.03125 7.421875 
L 11.03125 39.546875 
Q 8.984375 44.625 4.59375 44.625 
L 4.59375 47.359375 
L 25 47.359375 
L 25 44.625 
Q 16.5 44.625 18.5625 39.546875 
L 27.734375 16.609375 
L 36.140625 39.546875 
Q 37.984375 44.625 29.6875 44.625 
L 29.6875 47.359375 
L 45.3125 47.359375 
L 45.3125 44.625 
Q 40.71875 44.625 38.875 39.546875 
z
" id="UKaiTW-76"/>
      <path d="M 27.046875 48.25 
Q 34.46875 48.25 38.671875 45.21875 
Q 41.109375 43.453125 41.109375 40.921875 
Q 41.109375 36.71875 37.109375 36.71875 
Q 33.5 36.71875 32.328125 40.921875 
Q 31.0625 45.515625 25.09375 45.515625 
Q 20.609375 45.515625 17.09375 40.53125 
Q 12.703125 34.578125 12.703125 26.953125 
Q 12.703125 18.453125 17.578125 13.765625 
Q 22.359375 9.1875 27.828125 9.1875 
Q 34.46875 9.1875 41.703125 17.484375 
L 44.234375 15.234375 
Q 36.71875 6.453125 27.828125 6.453125 
Q 18.5625 6.453125 12.5 11.421875 
Q 5.765625 17 5.765625 26.953125 
Q 5.765625 35.546875 10.546875 41.21875 
Q 16.703125 48.25 27.046875 48.25 
z
" id="UKaiTW-63"/>
      <path d="M 19.734375 0.390625 
L 23.53125 9.859375 
L 11.53125 39.546875 
Q 9.46875 44.625 3.125 44.625 
L 3.125 47.359375 
L 23.53125 47.359375 
L 23.53125 44.625 
Q 17 44.625 19.046875 39.546875 
L 27.25 18.953125 
L 35.546875 39.546875 
Q 37.59375 44.625 31.0625 44.625 
L 31.0625 47.359375 
L 46.875 47.359375 
L 46.875 44.625 
Q 40.53125 44.625 38.484375 39.546875 
L 22.5625 0 
Q 20.703125 -4.5 14.84375 -4.5 
Q 12.796875 -4.5 11.375 -3.078125 
Q 9.96875 -1.65625 9.96875 0.390625 
Q 9.96875 2.4375 11.375 3.859375 
Q 12.796875 5.28125 14.84375 5.28125 
Q 16.890625 5.28125 18.3125 3.859375 
Q 19.734375 2.4375 19.734375 0.390625 
z
" id="UKaiTW-79"/>
     </defs>
     <g transform="translate(24.123437 251.521437)rotate(-90)scale(0.14 -0.14)">
      <use xlink:href="#UKaiTW-6d"/>
      <use x="50" xlink:href="#UKaiTW-61"/>
      <use x="100" xlink:href="#UKaiTW-74"/>
      <use x="150" xlink:href="#UKaiTW-68"/>
      <use x="200" xlink:href="#UKaiTW-2e"/>
      <use x="250" xlink:href="#UKaiTW-6c"/>
      <use x="300" xlink:href="#UKaiTW-6f"/>
      <use x="350" xlink:href="#UKaiTW-67"/>
      <use x="400" xlink:href="#UKaiTW-28"/>
      <use x="450" xlink:href="#UKaiTW-72"/>
      <use x="500" xlink:href="#UKaiTW-65"/>
      <use x="550" xlink:href="#UKaiTW-76"/>
      <use x="599.902344" xlink:href="#UKaiTW-5f"/>
      <use x="649.902344" xlink:href="#UKaiTW-63"/>
      <use x="699.902344" xlink:href="#UKaiTW-79"/>
      <use x="749.902344" xlink:href="#UKaiTW-63"/>
      <use x="799.902344" xlink:href="#UKaiTW-6c"/>
      <use x="849.902344" xlink:href="#UKaiTW-65"/>
      <use x="899.902344" xlink:href="#UKaiTW-2c"/>
      <use x="949.902344" xlink:href="#UKaiTW-31"/>
      <use x="999.902344" xlink:href="#UKaiTW-30"/>
      <use x="1049.902344" xlink:href="#UKaiTW-29"/>
     </g>
    </g>
   </g>
   <g id="line2d_13"/>
   <g id="patch_3">
    <path d="M 57.6 307.584 
L 57.6 41.472 
" style="fill:none;stroke:#000000;stroke-linecap:square;stroke-linejoin:miter;stroke-width:0.8;"/>
   </g>
   <g id="patch_4">
    <path d="M 414.72 307.584 
L 414.72 41.472 
" style="fill:none;stroke:#000000;stroke-linecap:square;stroke-linejoin:miter;stroke-width:0.8;"/>
   </g>
   <g id="patch_5">
    <path d="M 57.6 307.584 
L 414.72 307.584 
" style="fill:none;stroke:#000000;stroke-linecap:square;stroke-linejoin:miter;stroke-width:0.8;"/>
   </g>
   <g id="patch_6">
    <path d="M 57.6 41.472 
L 414.72 41.472 
" style="fill:none;stroke:#000000;stroke-linecap:square;stroke-linejoin:miter;stroke-width:0.8;"/>
   </g>
   <g id="text_15">
    <!-- Moo -->
    <defs>
     <path d="M 37.109375 15.234375 
L 37.109375 58.6875 
L 24.21875 13.578125 
L 20.90625 13.578125 
L 8.796875 52.4375 
L 8.796875 15.234375 
Q 8.796875 10.15625 13.09375 10.15625 
L 13.09375 7.421875 
L 1.171875 7.421875 
L 1.171875 10.15625 
Q 5.46875 10.15625 5.46875 15.234375 
L 5.46875 59.96875 
Q 5.46875 65.046875 1.171875 65.046875 
L 1.171875 67.78125 
L 11.53125 67.78125 
L 23.921875 24.515625 
L 36.421875 67.78125 
L 48.828125 67.78125 
L 48.828125 65.046875 
Q 44.53125 65.046875 44.53125 59.96875 
L 44.53125 15.234375 
Q 44.53125 10.15625 48.828125 10.15625 
L 48.828125 7.421875 
L 32.8125 7.421875 
L 32.8125 10.15625 
Q 37.109375 10.15625 37.109375 15.234375 
z
" id="UKaiTW-4d"/>
    </defs>
    <g transform="translate(219.331059 170.469372)scale(0.08 -0.08)">
     <use xlink:href="#UKaiTW-4d"/>
     <use x="50" xlink:href="#UKaiTW-6f"/>
     <use x="100" xlink:href="#UKaiTW-6f"/>
    </g>
   </g>
   <g id="text_16">
    <!-- Io -->
    <defs>
     <path d="M 28.71875 15.234375 
Q 28.71875 10.15625 35.15625 10.15625 
L 40.046875 10.15625 
L 40.046875 7.421875 
L 9.96875 7.421875 
L 9.96875 10.15625 
L 14.84375 10.15625 
Q 21.296875 10.15625 21.296875 15.234375 
L 21.296875 59.96875 
Q 21.296875 65.046875 14.84375 65.046875 
L 9.96875 65.046875 
L 9.96875 67.78125 
L 40.046875 67.78125 
L 40.046875 65.046875 
L 35.15625 65.046875 
Q 28.71875 65.046875 28.71875 59.96875 
z
" id="UKaiTW-49"/>
    </defs>
    <g transform="translate(225.857452 272.31646)scale(0.08 -0.08)">
     <use xlink:href="#UKaiTW-49"/>
     <use x="50" xlink:href="#UKaiTW-6f"/>
    </g>
   </g>
   <g id="text_17">
    <!-- Eur -->
    <defs>
     <path d="M 46.875 67.78125 
L 46.875 52.640625 
L 44.4375 52.640625 
Q 44.4375 60.15625 39.9375 62.796875 
Q 36.140625 65.046875 30.46875 65.046875 
L 22.265625 65.046875 
Q 17 65.046875 17 59.96875 
L 17 39.546875 
L 27.640625 39.546875 
Q 35.0625 39.546875 35.0625 47.359375 
L 37.5 47.359375 
L 37.5 28.515625 
L 35.0625 28.515625 
Q 35.0625 36.8125 27.640625 36.8125 
L 17 36.8125 
L 17 15.234375 
Q 17 10.15625 22.265625 10.15625 
L 25 10.15625 
Q 32.03125 10.15625 37.203125 12.59375 
Q 41.40625 14.546875 45.015625 22.75 
L 46.78125 22.171875 
L 43.0625 7.421875 
L 3.125 7.421875 
L 3.125 10.15625 
Q 9.578125 10.15625 9.578125 15.234375 
L 9.578125 59.96875 
Q 9.578125 65.046875 3.125 65.046875 
L 3.125 67.78125 
z
" id="UKaiTW-45"/>
     <path d="M 15.625 18.5625 
Q 15.625 14.75 17.671875 12.796875 
Q 19.734375 10.84375 23.828125 10.84375 
Q 26.859375 10.84375 30.765625 12.890625 
Q 31.453125 13.28125 35.15625 15.625 
L 35.15625 42.484375 
Q 35.15625 45.609375 31.15625 45.609375 
L 31.15625 48.34375 
L 42.09375 48.34375 
L 42.09375 13.671875 
Q 42.78125 11.53125 45.515625 12.203125 
L 45.515625 9.46875 
Q 40.828125 8.984375 35.15625 7.515625 
L 35.15625 12.015625 
Q 27.15625 6.453125 21.484375 6.453125 
Q 16.3125 6.453125 12.5 9.1875 
Q 8.6875 11.921875 8.6875 18.5625 
L 8.6875 42.390625 
Q 8.6875 45.609375 4.59375 45.609375 
L 4.59375 48.34375 
L 15.625 48.34375 
z
" id="UKaiTW-75"/>
    </defs>
    <g transform="translate(246.496044 246.389622)scale(0.08 -0.08)">
     <use xlink:href="#UKaiTW-45"/>
     <use x="50" xlink:href="#UKaiTW-75"/>
     <use x="100" xlink:href="#UKaiTW-72"/>
    </g>
   </g>
   <g id="text_18">
    <!-- Gan -->
    <defs>
     <path d="M 28.421875 6.453125 
Q 15.828125 6.453125 8.40625 15.140625 
Q 0.984375 23.828125 0.984375 37.40625 
Q 0.984375 50.203125 8.40625 59.1875 
Q 16.3125 68.75 29.78125 68.75 
Q 37.59375 68.75 44.921875 63.765625 
L 44.921875 53.71875 
L 42.1875 53.71875 
Q 40.828125 59.28125 37.890625 62.203125 
Q 34.078125 66.015625 29.78125 66.015625 
Q 21.390625 66.015625 15.046875 58.296875 
Q 8.40625 50.296875 8.40625 37.40625 
Q 8.40625 24.21875 15.140625 15.828125 
Q 20.515625 9.1875 28.421875 9.1875 
Q 31.734375 9.1875 35.359375 10.9375 
Q 36.625 11.53125 37.984375 12.703125 
L 37.984375 28.21875 
Q 37.984375 33.296875 31.546875 33.296875 
L 31.546875 36.03125 
L 49.8125 36.03125 
L 49.8125 33.296875 
Q 45.40625 33.296875 45.40625 28.21875 
L 45.40625 15.625 
Q 38.671875 6.453125 28.421875 6.453125 
z
" id="UKaiTW-47"/>
     <path d="M 14.84375 36.8125 
L 14.84375 15.234375 
Q 14.84375 10.15625 21.296875 10.15625 
L 21.296875 7.421875 
L 1.46875 7.421875 
L 1.46875 10.15625 
Q 7.90625 10.15625 7.90625 15.234375 
L 7.90625 35.0625 
Q 7.90625 40.046875 1.5625 40.046875 
L 1.5625 42.1875 
L 12.703125 47.359375 
L 14.84375 47.359375 
L 14.84375 40.140625 
Q 23.53125 48.4375 31.84375 48.4375 
Q 42.09375 48.4375 42.09375 37.890625 
L 42.09375 15.234375 
Q 42.09375 10.15625 48.53125 10.15625 
L 48.53125 7.421875 
L 28.71875 7.421875 
L 28.71875 10.15625 
Q 35.15625 10.15625 35.15625 15.234375 
L 35.15625 37.890625 
Q 35.15625 44.046875 28.421875 44.046875 
Q 23.4375 44.046875 14.84375 36.8125 
z
" id="UKaiTW-6e"/>
    </defs>
    <g transform="translate(269.255662 220.322611)scale(0.08 -0.08)">
     <use xlink:href="#UKaiTW-47"/>
     <use x="50" xlink:href="#UKaiTW-61"/>
     <use x="100" xlink:href="#UKaiTW-6e"/>
    </g>
   </g>
   <g id="text_19">
    <!-- Cal -->
    <defs>
     <path d="M 30.171875 6.453125 
Q 17.578125 6.453125 10.15625 15.140625 
Q 2.734375 23.828125 2.734375 37.40625 
Q 2.734375 50.203125 10.15625 59.1875 
Q 18.0625 68.75 31.546875 68.75 
Q 39.359375 68.75 46.6875 63.765625 
L 46.6875 53.71875 
L 43.953125 53.71875 
Q 42.578125 59.28125 39.65625 62.203125 
Q 35.84375 66.015625 31.546875 66.015625 
Q 23.140625 66.015625 16.796875 58.296875 
Q 10.15625 50.296875 10.15625 37.40625 
Q 10.15625 24.21875 16.890625 15.828125 
Q 22.265625 9.1875 30.171875 9.1875 
Q 33.296875 9.1875 37.984375 12.59375 
Q 40.625 14.546875 45.015625 21.96875 
L 47.265625 20.90625 
Q 40.71875 6.453125 30.171875 6.453125 
z
" id="UKaiTW-43"/>
    </defs>
    <g transform="translate(296.783216 188.8078)scale(0.08 -0.08)">
     <use xlink:href="#UKaiTW-43"/>
     <use x="50" xlink:href="#UKaiTW-61"/>
     <use x="100" xlink:href="#UKaiTW-6c"/>
    </g>
   </g>
   <g id="text_20">
    <!-- Mim -->
    <g transform="translate(183.821467 295.763393)scale(0.08 -0.08)">
     <use xlink:href="#UKaiTW-4d"/>
     <use x="50" xlink:href="#UKaiTW-69"/>
     <use x="100" xlink:href="#UKaiTW-6d"/>
    </g>
   </g>
   <g id="text_21">
    <!-- Enc -->
    <g transform="translate(195.968273 281.826871)scale(0.08 -0.08)">
     <use xlink:href="#UKaiTW-45"/>
     <use x="50" xlink:href="#UKaiTW-6e"/>
     <use x="100" xlink:href="#UKaiTW-63"/>
    </g>
   </g>
   <g id="text_22">
    <!-- Tet -->
    <defs>
     <path d="M 28.71875 15.234375 
Q 28.71875 10.15625 35.15625 10.15625 
L 40.046875 10.15625 
L 40.046875 7.421875 
L 9.96875 7.421875 
L 9.96875 10.15625 
L 14.84375 10.15625 
Q 21.296875 10.15625 21.296875 15.234375 
L 21.296875 65.046875 
L 16.21875 65.046875 
Q 10.75 65.046875 5.28125 54.296875 
L 2.640625 55.375 
L 6.734375 67.78125 
L 43.265625 67.78125 
L 47.359375 55.375 
L 44.734375 54.296875 
Q 39.265625 65.046875 33.796875 65.046875 
L 28.71875 65.046875 
z
" id="UKaiTW-54"/>
    </defs>
    <g transform="translate(206.372246 269.894107)scale(0.08 -0.08)">
     <use xlink:href="#UKaiTW-54"/>
     <use x="50" xlink:href="#UKaiTW-65"/>
     <use x="100" xlink:href="#UKaiTW-74"/>
    </g>
   </g>
   <g id="text_23">
    <!-- Dio -->
    <defs>
     <path d="M 8.796875 59.96875 
Q 8.796875 65.046875 2.34375 65.046875 
L 2.34375 67.78125 
L 21.484375 67.78125 
Q 33.6875 67.78125 39.265625 61.03125 
Q 47.65625 50.59375 47.65625 37.3125 
Q 47.65625 21.875 40.328125 14.15625 
Q 33.796875 7.421875 21.484375 7.421875 
L 2.34375 7.421875 
L 2.34375 10.15625 
Q 8.796875 10.15625 8.796875 15.234375 
z
M 16.21875 59.96875 
L 16.21875 15.234375 
Q 16.21875 10.15625 21.484375 10.15625 
Q 28.328125 10.15625 34.46875 16.796875 
Q 40.234375 22.953125 40.234375 37.3125 
Q 40.234375 51.953125 34.375 58.890625 
Q 29.203125 65.046875 21.484375 65.046875 
Q 16.21875 65.046875 16.21875 59.96875 
z
" id="UKaiTW-44"/>
    </defs>
    <g transform="translate(218.437851 256.077258)scale(0.08 -0.08)">
     <use xlink:href="#UKaiTW-44"/>
     <use x="50" xlink:href="#UKaiTW-69"/>
     <use x="100" xlink:href="#UKaiTW-6f"/>
    </g>
   </g>
   <g id="text_24">
    <!-- Rhe -->
    <defs>
     <path d="M 21.96875 10.15625 
L 21.96875 7.421875 
L 1.65625 7.421875 
L 1.65625 10.15625 
Q 8.109375 10.15625 8.109375 15.234375 
L 8.109375 59.96875 
Q 8.109375 65.046875 1.65625 65.046875 
L 1.65625 67.78125 
L 23.25 67.78125 
L 27.546875 67.78125 
Q 35.453125 67.78125 40.53125 63.96875 
Q 46.1875 59.765625 46.1875 54 
Q 46.1875 46 40.4375 42 
Q 35.75 38.765625 28.515625 37.703125 
L 41.890625 13.875 
Q 44.046875 10.15625 48.34375 10.15625 
L 48.34375 7.421875 
L 37.59375 7.421875 
L 20.90625 37.203125 
L 15.53125 37.203125 
L 15.53125 15.234375 
Q 15.53125 10.15625 21.96875 10.15625 
z
M 21.296875 65.046875 
Q 15.53125 65.046875 15.53125 59.96875 
L 15.53125 39.9375 
L 20.90625 39.9375 
Q 28.421875 39.9375 33.40625 43.453125 
Q 38.765625 47.171875 38.765625 54 
Q 38.765625 58.796875 34.28125 61.8125 
Q 29.5 65.046875 21.296875 65.046875 
z
" id="UKaiTW-52"/>
    </defs>
    <g transform="translate(234.718925 237.428527)scale(0.08 -0.08)">
     <use xlink:href="#UKaiTW-52"/>
     <use x="50" xlink:href="#UKaiTW-68"/>
     <use x="100" xlink:href="#UKaiTW-65"/>
    </g>
   </g>
   <g id="text_25">
    <!-- Tit -->
    <g transform="translate(275.707651 190.4952)scale(0.08 -0.08)">
     <use xlink:href="#UKaiTW-54"/>
     <use x="50" xlink:href="#UKaiTW-69"/>
     <use x="100" xlink:href="#UKaiTW-74"/>
    </g>
   </g>
   <g id="text_26">
    <!-- Hyp -->
    <defs>
     <path d="M 48.4375 7.421875 
L 28.125 7.421875 
L 28.125 10.15625 
Q 34.578125 10.15625 34.578125 15.234375 
L 34.578125 36.71875 
L 15.4375 36.71875 
L 15.4375 15.234375 
Q 15.4375 10.15625 21.875 10.15625 
L 21.875 7.421875 
L 1.5625 7.421875 
L 1.5625 10.15625 
Q 8.015625 10.15625 8.015625 15.234375 
L 8.015625 59.96875 
Q 8.015625 65.046875 1.5625 65.046875 
L 1.5625 67.78125 
L 21.875 67.78125 
L 21.875 65.046875 
Q 15.4375 65.046875 15.4375 59.96875 
L 15.4375 39.453125 
L 34.578125 39.453125 
L 34.578125 59.96875 
Q 34.578125 65.046875 28.125 65.046875 
L 28.125 67.78125 
L 48.4375 67.78125 
L 48.4375 65.046875 
Q 42 65.046875 42 59.96875 
L 42 15.234375 
Q 42 10.15625 48.4375 10.15625 
z
" id="UKaiTW-48"/>
     <path d="M 16.5 9.28125 
L 16.5 2.15625 
Q 16.5 -2.9375 22.953125 -2.9375 
L 22.953125 -5.671875 
L 3.125 -5.671875 
L 3.125 -2.9375 
Q 9.578125 -2.9375 9.578125 2.15625 
L 9.578125 35.0625 
Q 9.578125 40.046875 3.21875 40.046875 
L 3.21875 42.1875 
L 14.359375 47.359375 
L 16.5 47.359375 
L 16.5 42.1875 
Q 23.25 48.34375 29.390625 48.34375 
Q 36.8125 48.34375 42 42.28125 
Q 46.875 36.625 46.875 26.5625 
Q 46.875 18.171875 42 12.703125 
Q 36.421875 6.453125 29 6.453125 
Q 23.25 6.453125 16.5 9.28125 
z
M 16.5 39.15625 
L 16.5 12.984375 
Q 22.171875 9.1875 26.65625 9.1875 
Q 31.84375 9.1875 35.9375 14.15625 
Q 39.9375 19.046875 39.9375 26.5625 
Q 39.9375 35.25 36.140625 39.65625 
Q 32.421875 43.953125 26.859375 43.953125 
Q 22.171875 43.953125 16.5 39.15625 
z
" id="UKaiTW-70"/>
    </defs>
    <g transform="translate(285.733901 179.767908)scale(0.08 -0.08)">
     <use xlink:href="#UKaiTW-48"/>
     <use x="50" xlink:href="#UKaiTW-79"/>
     <use x="100" xlink:href="#UKaiTW-70"/>
    </g>
   </g>
   <g id="text_27">
    <!-- Iap -->
    <g transform="translate(327.850712 130.808278)scale(0.08 -0.08)">
     <use xlink:href="#UKaiTW-49"/>
     <use x="50" xlink:href="#UKaiTW-61"/>
     <use x="100" xlink:href="#UKaiTW-70"/>
    </g>
   </g>
   <g id="text_28">
    <!-- Pho -->
    <defs>
     <path d="M 23.4375 10.15625 
L 23.4375 7.421875 
L 3.125 7.421875 
L 3.125 10.15625 
Q 9.578125 10.15625 9.578125 15.234375 
L 9.578125 59.96875 
Q 9.578125 65.046875 3.125 65.046875 
L 3.125 67.78125 
L 24.703125 67.78125 
L 29 67.78125 
Q 36.921875 67.78125 42 63.96875 
Q 47.65625 59.765625 47.65625 54 
Q 47.65625 46.09375 41.890625 42 
Q 35.15625 37.203125 22.359375 37.203125 
L 17 37.203125 
L 17 15.234375 
Q 17 10.15625 23.4375 10.15625 
z
M 22.75 65.046875 
Q 17 65.046875 17 59.96875 
L 17 39.9375 
L 22.359375 39.9375 
Q 29.890625 39.9375 34.859375 43.453125 
Q 40.234375 47.171875 40.234375 54 
Q 40.234375 58.796875 35.75 61.8125 
Q 30.953125 65.046875 22.75 65.046875 
z
" id="UKaiTW-50"/>
    </defs>
    <g transform="translate(390.751446 58.742082)scale(0.08 -0.08)">
     <use xlink:href="#UKaiTW-50"/>
     <use x="50.78125" xlink:href="#UKaiTW-68"/>
     <use x="100.78125" xlink:href="#UKaiTW-6f"/>
    </g>
   </g>
   <g id="text_29">
    <!-- Ari -->
    <defs>
     <path d="M 43.359375 13.875 
Q 44.53125 10.15625 49.03125 10.15625 
L 49.03125 7.421875 
L 33.59375 7.421875 
L 33.59375 10.15625 
Q 35.25 10.15625 35.9375 10.9375 
Q 36.625 11.71875 35.9375 13.875 
L 31.9375 26.953125 
L 13.875 26.953125 
L 9.765625 12.203125 
Q 9.578125 11.421875 10.25 10.546875 
Q 10.546875 10.15625 11.921875 10.15625 
L 11.921875 7.421875 
L 1.078125 7.421875 
L 1.078125 10.15625 
Q 5.46875 10.15625 6.0625 12.203125 
L 20.515625 65.046875 
L 26.953125 67.78125 
z
M 22.359375 58.015625 
L 15.046875 31.25 
L 30.5625 31.25 
z
" id="UKaiTW-41"/>
    </defs>
    <g transform="translate(185.209813 259.150741)scale(0.08 -0.08)">
     <use xlink:href="#UKaiTW-41"/>
     <use x="50" xlink:href="#UKaiTW-72"/>
     <use x="100" xlink:href="#UKaiTW-69"/>
    </g>
   </g>
   <g id="text_30">
    <!-- Umb -->
    <defs>
     <path d="M 16.40625 22.65625 
Q 16.40625 16.109375 18.953125 12.5 
Q 21.296875 9.1875 26.265625 9.1875 
Q 31.453125 9.1875 34.28125 12.890625 
Q 37.703125 17.390625 37.703125 23.734375 
L 37.703125 59.96875 
Q 37.703125 65.046875 31.25 65.046875 
L 31.25 67.78125 
L 47.46875 67.78125 
L 47.46875 65.046875 
Q 41.015625 65.046875 41.015625 59.96875 
L 41.015625 23.734375 
Q 41.015625 16.015625 36.71875 11.03125 
Q 32.71875 6.453125 26.265625 6.453125 
Q 17.484375 6.453125 13.578125 10.546875 
Q 8.984375 15.328125 8.984375 22.65625 
L 8.984375 59.96875 
Q 8.984375 65.046875 2.546875 65.046875 
L 2.546875 67.78125 
L 22.859375 67.78125 
L 22.859375 65.046875 
Q 16.40625 65.046875 16.40625 59.96875 
z
" id="UKaiTW-55"/>
    </defs>
    <g transform="translate(201.382266 240.643562)scale(0.08 -0.08)">
     <use xlink:href="#UKaiTW-55"/>
     <use x="50" xlink:href="#UKaiTW-6d"/>
     <use x="100" xlink:href="#UKaiTW-62"/>
    </g>
   </g>
   <g id="text_31">
    <!-- Tit -->
    <g transform="translate(225.505125 213.022433)scale(0.08 -0.08)">
     <use xlink:href="#UKaiTW-54"/>
     <use x="50" xlink:href="#UKaiTW-69"/>
     <use x="100" xlink:href="#UKaiTW-74"/>
    </g>
   </g>
   <g id="text_32">
    <!-- Obe -->
    <defs>
     <path d="M 10.15625 59.671875 
Q 17 68.75 25 68.75 
Q 33.015625 68.75 39.84375 59.671875 
Q 46.96875 50.203125 46.96875 37.59375 
Q 46.96875 25 39.84375 15.53125 
Q 33.015625 6.453125 25 6.453125 
Q 17 6.453125 10.15625 15.53125 
Q 3.03125 25 3.03125 37.59375 
Q 3.03125 50.203125 10.15625 59.671875 
z
M 34.28125 57.328125 
Q 29.78125 66.015625 25 66.015625 
Q 20.21875 66.015625 15.71875 57.328125 
Q 10.453125 46.96875 10.453125 37.59375 
Q 10.453125 28.21875 15.71875 17.875 
Q 20.21875 9.1875 25 9.1875 
Q 29.78125 9.1875 34.28125 17.875 
Q 39.546875 28.21875 39.546875 37.59375 
Q 39.546875 46.96875 34.28125 57.328125 
z
" id="UKaiTW-4f"/>
    </defs>
    <g transform="translate(239.677282 196.810695)scale(0.08 -0.08)">
     <use xlink:href="#UKaiTW-4f"/>
     <use x="50" xlink:href="#UKaiTW-62"/>
     <use x="100" xlink:href="#UKaiTW-65"/>
    </g>
   </g>
   <g id="text_33">
    <!-- Mir -->
    <g transform="translate(166.442027 280.676992)scale(0.08 -0.08)">
     <use xlink:href="#UKaiTW-4d"/>
     <use x="50" xlink:href="#UKaiTW-69"/>
     <use x="100" xlink:href="#UKaiTW-72"/>
    </g>
   </g>
   <g id="text_34">
    <!-- Tri -->
    <g transform="translate(215.424923 227.643772)scale(0.08 -0.08)">
     <use xlink:href="#UKaiTW-54"/>
     <use x="50" xlink:href="#UKaiTW-72"/>
     <use x="100" xlink:href="#UKaiTW-69"/>
    </g>
   </g>
   <g id="text_35">
    <!-- Ner -->
    <defs>
     <path d="M 38.578125 23.34375 
L 38.578125 59.96875 
Q 38.578125 65.046875 32.125 65.046875 
L 32.125 67.78125 
L 48.34375 67.78125 
L 48.34375 65.046875 
Q 41.890625 65.046875 41.890625 59.96875 
L 41.890625 7.421875 
L 38.578125 7.421875 
L 11.421875 59.078125 
L 11.421875 15.234375 
Q 11.421875 10.15625 17.875 10.15625 
L 17.875 7.421875 
L 1.65625 7.421875 
L 1.65625 10.15625 
Q 8.109375 10.15625 8.109375 15.234375 
L 8.109375 59.96875 
Q 8.109375 65.046875 1.65625 65.046875 
L 1.65625 67.78125 
L 15.234375 67.78125 
z
" id="UKaiTW-4e"/>
    </defs>
    <g transform="translate(349.166941 74.51771)scale(0.08 -0.08)">
     <use xlink:href="#UKaiTW-4e"/>
     <use x="50" xlink:href="#UKaiTW-65"/>
     <use x="100" xlink:href="#UKaiTW-72"/>
    </g>
   </g>
   <g id="text_36">
    <!-- Pro -->
    <g transform="translate(161.580865 289.25716)scale(0.08 -0.08)">
     <use xlink:href="#UKaiTW-50"/>
     <use x="50.78125" xlink:href="#UKaiTW-72"/>
     <use x="100.78125" xlink:href="#UKaiTW-6f"/>
    </g>
   </g>
   <g id="text_37">
    <!-- Cha -->
    <g transform="translate(74.223012 224.547418)scale(0.08 -0.08)">
     <use xlink:href="#UKaiTW-43"/>
     <use x="50" xlink:href="#UKaiTW-68"/>
     <use x="100" xlink:href="#UKaiTW-61"/>
    </g>
   </g>
   <g id="text_38">
    <!-- Hi -->
    <defs>
     <path d="M 8.6875 0 
L 8.6875 65.234375 
L 41.3125 65.234375 
L 41.3125 0 
z
M 11.921875 3.21875 
L 38.09375 3.21875 
L 38.09375 62.015625 
L 11.921875 62.015625 
z
" id="UKaiTW-2bb"/>
    </defs>
    <g transform="translate(119.408965 148.643765)scale(0.08 -0.08)">
     <use xlink:href="#UKaiTW-48"/>
     <use x="50" xlink:href="#UKaiTW-69"/>
     <use x="100" xlink:href="#UKaiTW-2bb"/>
    </g>
   </g>
   <g id="text_39">
    <!-- Dys -->
    <defs>
     <path d="M 41.890625 42.484375 
L 41.109375 35.546875 
L 39.15625 35.546875 
Q 36.53125 41.703125 33.109375 43.65625 
Q 29.78125 45.609375 26.171875 45.609375 
Q 20.90625 45.609375 18.171875 43.359375 
Q 15.71875 41.3125 15.71875 37.984375 
Q 15.71875 35.359375 17 33.796875 
Q 17.96875 32.515625 27.25 30.46875 
Q 37.40625 28.21875 39.65625 25.296875 
Q 42.09375 22.171875 42.09375 18.953125 
Q 42.09375 13.96875 38.28125 10.453125 
Q 33.984375 6.453125 27.25 6.453125 
Q 18.359375 6.453125 8.796875 11.8125 
L 7.421875 20.3125 
L 9.578125 21.875 
Q 12.203125 15.4375 17.578125 12.109375 
Q 22.265625 9.1875 25.984375 9.1875 
Q 30.171875 9.1875 32.8125 12.109375 
Q 35.15625 14.65625 35.15625 17.78125 
Q 35.15625 20.21875 33.40625 22.078125 
Q 32.625 22.953125 22.75 25.484375 
Q 13.578125 27.546875 10.84375 30.28125 
Q 8.796875 32.328125 8.796875 36.53125 
Q 8.796875 41.796875 13.28125 45.125 
Q 17.671875 48.34375 24.703125 48.34375 
Q 32.328125 48.34375 41.890625 42.484375 
z
" id="UKaiTW-73"/>
    </defs>
    <g transform="translate(105.705288 190.908049)scale(0.08 -0.08)">
     <use xlink:href="#UKaiTW-44"/>
     <use x="50" xlink:href="#UKaiTW-79"/>
     <use x="100" xlink:href="#UKaiTW-73"/>
    </g>
   </g>
  </g>
 </g>
 <defs>
  <clipPath id="p34e2054343">
   <rect height="266.112" width="357.12" x="57.6" y="41.472"/>
  </clipPath>
 </defs>
</svg>
